<?xml version="1.0" encoding="UTF-8" standalone="no"?>
<!-- Created with Inkscape (http://www.inkscape.org/) -->

<svg
   xmlns:dc="http://purl.org/dc/elements/1.1/"
   xmlns:cc="http://creativecommons.org/ns#"
   xmlns:rdf="http://www.w3.org/1999/02/22-rdf-syntax-ns#"
   xmlns:svg="http://www.w3.org/2000/svg"
   xmlns="http://www.w3.org/2000/svg"
   xmlns:xlink="http://www.w3.org/1999/xlink"
   xmlns:sodipodi="http://sodipodi.sourceforge.net/DTD/sodipodi-0.dtd"
   xmlns:inkscape="http://www.inkscape.org/namespaces/inkscape"
   id="svg2"
   version="1.1"
   inkscape:version="0.48.2 r9819"
   width="256"
   height="256"
   sodipodi:docname="logo.svg"
   inkscape:export-filename="C:\Users\Stuart\Documents\GitHub\stepdub\logo.png"
   inkscape:export-xdpi="90"
   inkscape:export-ydpi="90"
   enable-background="new">
  <metadata
     id="metadata8">
    <rdf:RDF>
      <cc:Work
         rdf:about="">
        <dc:format>image/svg+xml</dc:format>
        <dc:type
           rdf:resource="http://purl.org/dc/dcmitype/StillImage" />
        <dc:title></dc:title>
      </cc:Work>
    </rdf:RDF>
  </metadata>
  <defs
     id="defs6">
    <linearGradient
       id="linearGradient4084">
      <stop
         id="stop4086"
         offset="0"
         style="stop-color:#3434e4;stop-opacity:1;" />
      <stop
         style="stop-color:#1f1f65;stop-opacity:1;"
         offset="0.67038792"
         id="stop4090" />
      <stop
         id="stop4092"
         offset="0.85508847"
         style="stop-color:#2c2c8a;stop-opacity:1;" />
      <stop
         id="stop4088"
         offset="1"
         style="stop-color:#1d1d69;stop-opacity:1;" />
    </linearGradient>
    <linearGradient
       id="linearGradient3875">
      <stop
         style="stop-color:#3c0000;stop-opacity:1;"
         offset="0"
         id="stop3877" />
      <stop
         id="stop3893"
         offset="0.125"
         style="stop-color:#8c0000;stop-opacity:1;" />
      <stop
         style="stop-color:#a80000;stop-opacity:1;"
         offset="0.25"
         id="stop3879" />
      <stop
         id="stop3881"
         offset="0.32266784"
         style="stop-color:#8c0000;stop-opacity:1;" />
      <stop
         style="stop-color:#b00000;stop-opacity:1;"
         offset="0.5"
         id="stop3883" />
      <stop
         style="stop-color:#8c0000;stop-opacity:1;"
         offset="0.56999999"
         id="stop3885" />
      <stop
         id="stop3887"
         offset="0.75"
         style="stop-color:#b80000;stop-opacity:1;" />
      <stop
         style="stop-color:#8c0000;stop-opacity:1;"
         offset="0.81999999"
         id="stop3889" />
      <stop
         id="stop3891"
         offset="1"
         style="stop-color:#c40000;stop-opacity:1;" />
    </linearGradient>
    <linearGradient
       id="linearGradient3838">
      <stop
         style="stop-color:#ffffff;stop-opacity:1;"
         offset="0"
         id="stop3841" />
      <stop
         id="stop3865"
         offset="0.33000001"
         style="stop-color:#ffffff;stop-opacity:1;" />
      <stop
         style="stop-color:#c0c0c0;stop-opacity:1;"
         offset="1"
         id="stop3843" />
    </linearGradient>
    <linearGradient
       id="linearGradient3835">
      <stop
         style="stop-color:#1e1e6c;stop-opacity:1;"
         offset="0"
         id="stop3837" />
      <stop
         style="stop-color:#1b1b61;stop-opacity:1;"
         offset="1"
         id="stop3839" />
    </linearGradient>
    <linearGradient
       id="linearGradient3825">
      <stop
         style="stop-color:#1d1d6b;stop-opacity:1;"
         offset="0"
         id="stop3827" />
      <stop
         id="stop3833"
         offset="0.16279416"
         style="stop-color:#252589;stop-opacity:1;" />
      <stop
         style="stop-color:#1d1d6b;stop-opacity:1;"
         offset="1"
         id="stop3829" />
    </linearGradient>
    <linearGradient
       id="linearGradient3813">
      <stop
         style="stop-color:#1b1b5f;stop-opacity:1;"
         offset="0"
         id="stop3815" />
      <stop
         id="stop3821"
         offset="0.3578918"
         style="stop-color:#28288e;stop-opacity:1;" />
      <stop
         style="stop-color:#1c1c62;stop-opacity:1;"
         offset="1"
         id="stop3817" />
    </linearGradient>
    <linearGradient
       id="linearGradient3807">
      <stop
         id="stop3809"
         offset="0"
         style="stop-color:#202072;stop-opacity:1;" />
      <stop
         id="stop3811"
         offset="1"
         style="stop-color:#28288e;stop-opacity:1;" />
    </linearGradient>
    <linearGradient
       id="linearGradient3852">
      <stop
         style="stop-color:#4c4c4c;stop-opacity:1;"
         offset="0"
         id="stop3854" />
      <stop
         style="stop-color:#cccccc;stop-opacity:0;"
         offset="1"
         id="stop3856" />
    </linearGradient>
    <linearGradient
       id="linearGradient3836">
      <stop
         style="stop-color:#937600;stop-opacity:1;"
         offset="0"
         id="stop3838" />
      <stop
         style="stop-color:#d4aa00;stop-opacity:1;"
         offset="1"
         id="stop3840" />
    </linearGradient>
    <linearGradient
       id="linearGradient3828">
      <stop
         style="stop-color:#3434e4;stop-opacity:1;"
         offset="0"
         id="stop3830" />
      <stop
         style="stop-color:#141478;stop-opacity:1;"
         offset="1"
         id="stop3832" />
    </linearGradient>
    <radialGradient
       inkscape:collect="always"
       xlink:href="#linearGradient3852"
       id="radialGradient3858"
       cx="286.46466"
       cy="87.59465"
       fx="286.46466"
       fy="87.59465"
       r="136.85548"
       gradientTransform="matrix(0.42853554,0.40276918,-0.55475291,0.59024207,128.79544,2.8120874)"
       gradientUnits="userSpaceOnUse" />
    <linearGradient
       inkscape:collect="always"
       xlink:href="#linearGradient3807"
       id="linearGradient3885"
       x1="155.12115"
       y1="390.77899"
       x2="155.84029"
       y2="343.83282"
       gradientUnits="userSpaceOnUse" />
    <linearGradient
       inkscape:collect="always"
       xlink:href="#linearGradient3807"
       id="linearGradient3904"
       x1="106.6855"
       y1="310.9086"
       x2="93.520638"
       y2="180.27478"
       gradientUnits="userSpaceOnUse" />
    <linearGradient
       inkscape:collect="always"
       xlink:href="#linearGradient3813"
       id="linearGradient3819"
       x1="83.906097"
       y1="174.97388"
       x2="164.74133"
       y2="235.36578"
       gradientUnits="userSpaceOnUse" />
    <linearGradient
       inkscape:collect="always"
       xlink:href="#linearGradient3825"
       id="linearGradient3831"
       x1="73.314896"
       y1="181.95984"
       x2="141.02612"
       y2="289.45984"
       gradientUnits="userSpaceOnUse" />
    <linearGradient
       inkscape:collect="always"
       xlink:href="#linearGradient3835"
       id="linearGradient3841"
       x1="149.67969"
       y1="313.63345"
       x2="141.8412"
       y2="355.88309"
       gradientUnits="userSpaceOnUse" />
    <linearGradient
       inkscape:collect="always"
       xlink:href="#linearGradient3838"
       id="linearGradient3845"
       x1="655.3631"
       y1="231.45944"
       x2="655.3631"
       y2="355.27954"
       gradientUnits="userSpaceOnUse" />
    <radialGradient
       inkscape:collect="always"
       xlink:href="#linearGradient3875"
       id="radialGradient3873"
       gradientUnits="userSpaceOnUse"
       gradientTransform="matrix(2.0962549,-1.7297164e-8,1.7424412e-8,2.1116762,110.69736,-148.66354)"
       cx="2.1958482"
       cy="132.01715"
       fx="2.1958482"
       fy="132.01715"
       r="514.5" />
    <radialGradient
       inkscape:collect="always"
       xlink:href="#linearGradient3836"
       id="radialGradient4096"
       gradientUnits="userSpaceOnUse"
       gradientTransform="matrix(1.060137,-0.4774352,0.95486567,1.4420905,-181.13402,-16.604046)"
       cx="136.54681"
       cy="178.92728"
       fx="136.54681"
       fy="178.92728"
       r="29.013771" />
    <radialGradient
       inkscape:collect="always"
       xlink:href="#linearGradient3828"
       id="radialGradient4098"
       gradientUnits="userSpaceOnUse"
       gradientTransform="matrix(-0.91663961,-0.17190974,0.25435162,-0.86124857,208.90474,391.27176)"
       cx="139.2596"
       cy="204.94406"
       fx="139.2596"
       fy="204.94406"
       r="29.013771" />
    <radialGradient
       inkscape:collect="always"
       xlink:href="#linearGradient4084"
       id="radialGradient4106"
       gradientUnits="userSpaceOnUse"
       gradientTransform="matrix(1.0609516,-0.00702518,0.0084299,1.0726043,0.74574241,-8.7799618)"
       cx="132.01559"
       cy="195.11459"
       fx="132.01559"
       fy="195.11459"
       r="29.013771" />
    <radialGradient
       inkscape:collect="always"
       xlink:href="#linearGradient3836"
       id="radialGradient4108"
       gradientUnits="userSpaceOnUse"
       gradientTransform="matrix(1.257356,-0.54624484,0.71648043,1.9299556,-166.41609,-96.054159)"
       cx="147.3363"
       cy="183.63324"
       fx="147.3363"
       fy="183.63324"
       r="29.013771" />
    <radialGradient
       inkscape:collect="always"
       xlink:href="#linearGradient3828"
       id="radialGradient4110"
       gradientUnits="userSpaceOnUse"
       gradientTransform="matrix(-0.9456864,0.01081724,-0.26855044,-0.77510158,321.77823,350.1697)"
       cx="126.48194"
       cy="208.83374"
       fx="126.48194"
       fy="208.83374"
       r="29.013771" />
    <radialGradient
       inkscape:collect="always"
       xlink:href="#linearGradient4084"
       id="radialGradient4112"
       gradientUnits="userSpaceOnUse"
       gradientTransform="matrix(0.99022724,-0.00282956,0.00501866,1.0720704,10.748041,-9.2296766)"
       cx="132.04793"
       cy="194.35556"
       fx="132.04793"
       fy="194.35556"
       r="29.013771" />
    <linearGradient
       id="linearGradient4129-8">
      <stop
         id="stop4131-1"
         offset="0"
         style="stop-color:#000000;stop-opacity:0.5945946;" />
      <stop
         id="stop4133-2"
         offset="1"
         style="stop-color:#000000;stop-opacity:0;" />
    </linearGradient>
    <filter
       inkscape:collect="always"
       id="filter3879"
       inkscape:label="filter3879">
      <feBlend
         inkscape:collect="always"
         mode="multiply"
         in2="BackgroundImage"
         id="feBlend3881" />
    </filter>
    <linearGradient
       id="linearGradient3783-7">
      <stop
         style="stop-color:#8e8e8e;stop-opacity:1;"
         offset="0"
         id="stop3785-4" />
      <stop
         style="stop-color:#5c5c5c;stop-opacity:0;"
         offset="1"
         id="stop3787-0" />
    </linearGradient>
    <radialGradient
       r="77.023705"
       fy="64.229652"
       fx="163.08237"
       cy="64.229652"
       cx="163.08237"
       gradientTransform="matrix(0.60035847,0.05493508,-0.03377091,0.36906564,-16.662443,-13.905402)"
       gradientUnits="userSpaceOnUse"
       id="radialGradient3898"
       xlink:href="#linearGradient3783-7"
       inkscape:collect="always" />
    <filter
       inkscape:collect="always"
       id="filter3949"
       inkscape:label="screen">
      <feBlend
         inkscape:collect="always"
         mode="screen"
         in2="BackgroundImage"
         id="feBlend3951" />
    </filter>
    <filter
       inkscape:collect="always"
       id="filter3906"
       inkscape:label="multiply">
      <feBlend
         inkscape:collect="always"
         mode="multiply"
         in2="BackgroundImage"
         id="feBlend3908" />
    </filter>
    <linearGradient
       inkscape:collect="always"
       xlink:href="#linearGradient4129-8"
       id="linearGradient4141"
       gradientUnits="userSpaceOnUse"
       gradientTransform="translate(-53.529389,-152.17385)"
       x1="261.74475"
       y1="381.34549"
       x2="198.27794"
       y2="318.41013" />
  </defs>
  <sodipodi:namedview
     pagecolor="#ffffff"
     bordercolor="#666666"
     borderopacity="1"
     objecttolerance="10"
     gridtolerance="10"
     guidetolerance="10"
     inkscape:pageopacity="0"
     inkscape:pageshadow="2"
     inkscape:window-width="1680"
     inkscape:window-height="987"
     id="namedview4"
     showgrid="false"
     fit-margin-top="0"
     fit-margin-left="0"
     fit-margin-right="0"
     fit-margin-bottom="0"
     inkscape:snap-page="false"
     inkscape:zoom="0.75"
     inkscape:cx="388.27431"
     inkscape:cy="188.09845"
     inkscape:window-x="-8"
     inkscape:window-y="-8"
     inkscape:window-maximized="1"
     inkscape:current-layer="layer6"
     showborder="false"
     inkscape:snap-bbox="true"
     inkscape:snap-bbox-edge-midpoints="false"
     inkscape:snap-nodes="true" />
  <g
     style="display:none"
     inkscape:label="bg copy"
     id="g3867"
     inkscape:groupmode="layer">
    <rect
       inkscape:export-ydpi="90"
       inkscape:export-xdpi="90"
       inkscape:export-filename="C:\Users\Stuart\Documents\GitHub\stepdub\text3050.png"
       y="-782"
       x="-63.444927"
       height="1820"
       width="1024"
       id="rect3869"
       style="fill:url(#radialGradient3873);fill-opacity:1;stroke:none" />
  </g>
  <g
     inkscape:groupmode="layer"
     id="layer9"
     inkscape:label="feature-graphic-region"
     style="display:none">
    <rect
       style="fill:none;stroke:none"
       id="rect3058"
       width="1024"
       height="500"
       x="-63.444927"
       y="-122"
       inkscape:export-filename="C:\Users\Stuart\Documents\GitHub\stepdub\text3050.png"
       inkscape:export-xdpi="90"
       inkscape:export-ydpi="90" />
  </g>
  <g
     inkscape:groupmode="layer"
     id="layer7"
     inkscape:label="Layer" />
  <g
     inkscape:groupmode="layer"
     id="layer6"
     inkscape:label="backface">
    <path
       style="fill:#1d1d67;fill-opacity:1;stroke:none"
       d="m 187.625,13.749999 c 0,0 4.25,11.75 9.5,16.75 5.83819,5.560178 45.75,31.625 45.75,31.625 L 165,115 141.5,88 z"
       id="path3867"
       inkscape:connector-curvature="0"
       sodipodi:nodetypes="cscccc"
       inkscape:export-filename="C:\Users\Stuart\Documents\GitHub\stepdub\text3050.png"
       inkscape:export-xdpi="90"
       inkscape:export-ydpi="90" />
  </g>
  <g
     inkscape:groupmode="layer"
     id="layer2"
     inkscape:label="frontface"
     style="display:inline"
     transform="translate(-53.529389,-152.17385)">
    <path
       style="fill:#3131b3;fill-opacity:1;stroke:none"
       d="M 226.70776,176.52919 C 222.10106,187.46053 203.41187,210.84374 197.8701,213.59796 187.27896,218.8617 119.23674,221.88992 119.23674,221.88992 L 210.388,377.16619 220.2086,372.95736 C 220.2086,372.95736 241.83756,330.69957 249.20279,314.50135 256.56801,298.30313 255.52318,291.68446 265.10282,276.1542 274.68246,260.62395 309.52939,224.71292 309.52939,224.71292 309.52939,224.71292 274.48998,170.86789 265.8043,176.54516 251.93559,185.61025 227.58728,211.38139 227.58728,211.38139 227.58728,211.38139 247.91458,175.3003 244.54984,165.8797 241.18511,156.4591 231.66199,152.17385 231.66199,152.17385 231.66199,152.17385 231.31446,165.59785 226.70776,176.52919 z"
       id="path2990"
       inkscape:connector-curvature="0"
       sodipodi:nodetypes="zsccczzcsczcz"
       inkscape:export-filename="C:\Users\Stuart\Documents\GitHub\stepdub\text3050.png"
       inkscape:export-xdpi="90"
       inkscape:export-ydpi="90" />
  </g>
  <g
     transform="translate(-53.529389,-152.17385)"
     style="display:inline;filter:url(#filter3906);opacity:0.5"
     inkscape:label="backshade"
     id="g3953"
     inkscape:groupmode="layer">
    <path
       inkscape:export-ydpi="90"
       inkscape:export-xdpi="90"
       inkscape:export-filename="C:\Users\Stuart\Documents\GitHub\stepdub\text3050.png"
       sodipodi:nodetypes="zsccczzcsczcz"
       inkscape:connector-curvature="0"
       id="path3955"
       d="M 226.70776,176.52919 C 222.10106,187.46053 203.41187,210.84374 197.8701,213.59796 187.27896,218.8617 119.23674,221.88992 119.23674,221.88992 L 210.388,377.16619 220.2086,372.95736 C 220.2086,372.95736 241.83756,330.69957 249.20279,314.50135 256.56801,298.30313 255.52318,291.68446 265.10282,276.1542 274.68246,260.62395 309.52939,224.71292 309.52939,224.71292 309.52939,224.71292 274.48998,170.86789 265.8043,176.54516 251.93559,185.61025 227.58728,211.38139 227.58728,211.38139 227.58728,211.38139 247.91458,175.3003 244.54984,165.8797 241.18511,156.4591 231.66199,152.17385 231.66199,152.17385 231.66199,152.17385 231.31446,165.59785 226.70776,176.52919 z"
       style="fill:url(#radialGradient3858);fill-opacity:1;stroke:none" />
  </g>
  <g
     transform="translate(-53.529389,-152.17385)"
     style="display:inline"
     inkscape:label="toe"
     id="g3917"
     inkscape:groupmode="layer">
    <path
       inkscape:export-ydpi="90"
       inkscape:export-xdpi="90"
       inkscape:export-filename="C:\Users\Stuart\Documents\GitHub\stepdub\text3050.png"
       sodipodi:nodetypes="cscsssc"
       inkscape:connector-curvature="0"
       id="path3919"
       d="M 100.80204,169.20504 C 100.80204,169.20504 115.68252,157.79668 132.05104,156.80465 148.41956,155.81261 157.1825,164.7409 160.81994,167.22098 177.60646,180.62481 181.98881,200.67898 185.62073,215.3345 187.66807,223.59593 192.89853,256.65903 195.21037,268.73885 197.24759,279.38372 216.21037,295.03223 180.99125,314.53764 137.01674,338.89206 100.80204,169.20504 100.80204,169.20504 z"
       style="fill:#3131b3;fill-opacity:1;stroke:none" />
  </g>
  <g
     inkscape:groupmode="layer"
     id="layer8"
     inkscape:label="glare"
     style="display:inline;filter:url(#filter3949);opacity:1">
    <path
       style="fill:url(#radialGradient3898);fill-opacity:1;stroke:none;display:inline"
       d="M 47.272651,17.031188 C 47.272651,17.031188 62.153131,5.6228278 78.521651,4.6307978 94.890171,3.6387578 103.65311,12.567048 107.29055,15.047128 124.07707,28.450958 128.45942,48.505128 132.09134,63.160648 134.13868,71.422078 139.36914,104.48518 141.68098,116.565 143.7182,127.20987 162.68098,142.85838 127.46186,162.36379 83.487351,186.71821 47.272651,17.031188 47.272651,17.031188 z"
       id="path2993-9"
       inkscape:connector-curvature="0"
       sodipodi:nodetypes="cscsssc"
       inkscape:export-filename="C:\Users\Stuart\Documents\GitHub\stepdub\text3050.png"
       inkscape:export-xdpi="90"
       inkscape:export-ydpi="90" />
  </g>
  <g
     inkscape:groupmode="layer"
     id="layer10"
     inkscape:label="symbol">
    <path
       style="fill:#d4aa00;fill-opacity:1;stroke:none"
       d="m 156.32398,127.858 11.01409,11.09436 -6.01511,8.39286 27.31634,-13.71 -11.98447,20.09643 3.96149,10.87178 -9.33965,-11.94445 6.90765,-9.10088 -27.47319,13.37875 11.28262,-17.63872 z"
       id="path4125"
       inkscape:connector-curvature="0"
       sodipodi:nodetypes="ccccccccccc" />
  </g>
  <g
     inkscape:groupmode="layer"
     id="layer4"
     inkscape:label="sole"
     style="display:inline"
     transform="translate(-53.529389,-152.17385)">
    <path
       style="fill:url(#linearGradient3819);fill-opacity:1;stroke:none"
       d="m 212.3755,386.0515 c 0,0 -93.33159,-83.64881 -111.17488,-118.15293 -7.604218,-14.70451 -19.415849,-89.71664 -19.415849,-89.71664 7.974786,-5.8643 18.038065,-12.19797 26.720649,-11.2515 34.69194,3.78168 47.61104,25.61665 54.65012,50.76777 2.47626,8.84784 9.35296,58.68983 9.35296,63.60014 0,4.9103 -0.23382,20.10886 0.9353,22.91475 1.16912,2.80589 2.33823,6.54708 5.8456,10.98974 3.50736,4.44265 29.69565,38.81478 31.33242,40.9192 1.63677,2.10441 8.50467,14.03147 8.41767,15.90004 -0.26918,5.78136 -2.72326,9.78322 -6.66399,14.02943 z"
       id="path3777"
       inkscape:connector-curvature="0"
       sodipodi:nodetypes="cscsssssssc"
       inkscape:export-filename="C:\Users\Stuart\Documents\GitHub\stepdub\text3050.png"
       inkscape:export-xdpi="90"
       inkscape:export-ydpi="90" />
    <path
       style="fill:url(#linearGradient3841);fill-opacity:1;stroke:none;display:inline"
       d="m 94.878916,305.73295 c 0,0 19.875044,16.95224 21.044174,19.05666 1.16911,2.10441 4.91029,14.67246 4.91029,14.67246 0,0 21.27799,12.15885 30.16331,12.86032 8.88531,0.70147 35.21547,-3.36333 35.21547,-3.36333 l -22.63455,-26.2974 c 0,0 -22.82135,-21.543 -39.42285,-23.17977 -16.60151,-1.63677 -29.275844,6.25106 -29.275844,6.25106 z"
       id="path3779"
       inkscape:connector-curvature="0"
       sodipodi:nodetypes="cscsccsc"
       inkscape:export-filename="C:\Users\Stuart\Documents\GitHub\stepdub\text3050.png"
       inkscape:export-xdpi="90"
       inkscape:export-ydpi="90" />
    <path
       style="fill:url(#linearGradient3904);fill-opacity:1;stroke:none"
       d="m 103.5047,177.83648 c -11.139428,-1.07859 -16.09558,-1.56418 -22.940462,2.60658 -8.966438,5.46347 -15.030782,10.54718 -20.057455,22.05658 -5.96219,13.65142 -7.950018,33.90448 -6.547073,44.66039 1.402944,10.7559 7.248123,27.05411 10.755906,32.96919 11.925025,20.10886 17.770626,24.08387 23.61623,25.01917 5.845602,0.93529 34.839784,6.07943 44.192744,10.52208 9.35296,4.44266 28.52653,14.4971 28.52653,14.4971 0,0 0,-38.58098 -2.33824,-60.09279 -2.33824,-21.51181 -8.41767,-55.4163 -13.79562,-65.23691 -5.37795,-9.8206 -27.18518,-25.6238 -41.41256,-27.00139 z"
       id="path3764"
       inkscape:connector-curvature="0"
       sodipodi:nodetypes="ssssssscsss"
       inkscape:export-filename="C:\Users\Stuart\Documents\GitHub\stepdub\text3050.png"
       inkscape:export-xdpi="90"
       inkscape:export-ydpi="90" />
    <path
       style="fill:url(#linearGradient3831);fill-opacity:1;stroke:none"
       d="m 64.814896,194.4847 c 18.321689,-15.15681 40.576164,-19.05982 59.058204,-4.37774 24.09908,19.14425 25.04418,59.30831 28.89713,88.82079 0.97616,7.47714 3.37059,35.10595 5.24118,43.05597 1.87059,7.95002 3.27354,8.18385 3.27354,8.18385 0,0 3.03971,-5.37796 3.74118,-5.84561 0,0 -6.43583,-69.40175 -13.08851,-102.08462 -1.95689,-9.61367 -5.34319,-19.45344 -16.96376,-32.91452 -7.54125,-8.73566 -24.86892,-18.27208 -37.90086,-16.94662 -13.398167,1.3627 -18.708083,6.79039 -25.047565,12.58944 -1.923618,1.75963 -7.210539,9.51906 -7.210539,9.51906 z"
       id="path3766"
       inkscape:connector-curvature="0"
       sodipodi:nodetypes="csssccssssc"
       inkscape:export-filename="C:\Users\Stuart\Documents\GitHub\stepdub\text3050.png"
       inkscape:export-xdpi="90"
       inkscape:export-ydpi="90" />
    <path
       style="fill:#1c1c68;stroke:none;fill-opacity:1"
       d="m 185.29066,347.92486 c 0,0 -1.83741,4.22216 -4.12379,8.89864 -2.06427,4.2222 -2.86262,9.124 -2.86262,9.124 0,0 9.69518,19.96725 11.09813,24.87756 1.40294,4.9103 12.62641,9.60663 12.62641,9.60663 l 11.86656,-16.25078 c 0,0 -4.44265,-13.6787 -12.86032,-23.3824 -4.02182,-4.63627 -15.74437,-12.87365 -15.74437,-12.87365 z"
       id="path3768"
       inkscape:connector-curvature="0"
       sodipodi:nodetypes="cscsccsc"
       inkscape:export-filename="C:\Users\Stuart\Documents\GitHub\stepdub\text3050.png"
       inkscape:export-xdpi="90"
       inkscape:export-ydpi="90" />
    <path
       style="fill:#212176;fill-opacity:1;stroke:none"
       d="m 116.74146,326.6602 c -0.86093,7.09739 -3.09817,13.32798 -3.09817,13.32798 0,0 28.41479,19.28359 38.46923,21.50492 10.05443,2.22133 27.25225,6.11782 27.25225,6.11782 0,0 6.12097,-5.52638 6.35479,-9.85212 0.23382,-4.32574 -0.0915,-9.86316 -0.0915,-9.86316 -15.67177,-4.92449 -27.5919,-5.77173 -38.60639,-8.37512 -22.62173,-5.38965 -30.28022,-12.86032 -30.28022,-12.86032 z"
       id="path3770"
       inkscape:connector-curvature="0"
       sodipodi:nodetypes="ccscsccc"
       inkscape:export-filename="C:\Users\Stuart\Documents\GitHub\stepdub\text3050.png"
       inkscape:export-xdpi="90"
       inkscape:export-ydpi="90" />
    <path
       style="fill:url(#linearGradient3885);fill-opacity:1;stroke:none;display:inline"
       d="m 114.42511,337.39949 c -1.40294,3.39045 -1.65865,10.77252 -0.84027,12.40929 0.81838,1.63677 10.639,17.5368 16.71842,23.03167 6.07943,5.49487 20.92725,16.95224 23.96697,18.58901 3.03971,1.63677 27.47432,14.14636 30.28021,14.84783 2.80589,0.70147 8.18384,2.10442 9.58679,1.87059 1.40294,-0.23382 4.20883,-1.63677 5.37795,-2.80589 1.16912,-1.16912 1.82804,-2.15041 2.88025,-4.83938 1.05221,-2.68898 -0.0578,-8.16858 -3.62427,-15.31548 -3.69422,-7.40299 -12.83927,-21.63359 -16.20823,-22.98567 -7.75908,-3.11399 -25.0966,-5.15731 -33.89517,-7.94516 -10.51182,-3.33068 -22.98282,-10.21247 -30.71462,-15.56591 -2.2295,-1.54368 -3.52803,-1.2909 -3.52803,-1.2909 z"
       id="path3772"
       inkscape:connector-curvature="0"
       sodipodi:nodetypes="csssssssssssc"
       inkscape:export-filename="C:\Users\Stuart\Documents\GitHub\stepdub\text3050.png"
       inkscape:export-xdpi="90"
       inkscape:export-ydpi="90" />
  </g>
  <g
     inkscape:groupmode="layer"
     id="layer11"
     inkscape:label="shadow"
     style="display:inline;filter:url(#filter3879);opacity:0.5">
    <path
       style="fill:url(#linearGradient4141);fill-opacity:1;stroke:none;display:inline"
       d="M 178.125,0 C 178.125,0 178.03354,3.34298 177.375,8.0625 177.37345,8.073559 177.37655,8.0826759 177.375,8.09375 177.12851,9.8561059 176.80757,11.805411 176.375,13.84375 176.37285,13.853856 176.37715,13.86489 176.375,13.875 176.08645,15.232076 175.7337,16.628417 175.34375,18.03125 175.34105,18.040961 175.34645,18.052788 175.34375,18.0625 174.75618,20.172404 174.04736,22.303371 173.1875,24.34375 172.32374,26.393376 170.95604,28.885237 169.28125,31.59375 168.16473,33.399425 166.90646,35.313258 165.5625,37.25 164.89052,38.218371 164.20889,39.179378 163.5,40.15625 162.08222,42.109994 160.61059,44.078064 159.125,45.96875 158.38239,46.913312 157.61461,47.814206 156.875,48.71875 155.39025,50.536178 153.95501,52.253785 152.5625,53.8125 151.86877,54.588549 151.1821,55.312427 150.53125,56 150.52626,56.005279 150.53624,56.025977 150.53125,56.03125 149.88623,56.712295 149.24597,57.328164 148.65625,57.90625 148.05598,58.495477 147.52966,59.033644 147,59.5 146.99485,59.504536 146.97389,59.495476 146.96875,59.5 146.4512,59.954912 145.96803,60.366277 145.53125,60.6875 145.08878,61.012909 144.69011,61.265361 144.34375,61.4375 137.22531,64.975325 138.83772,141.94211 115.54181,177.29347 L 113.34375,191.09375 C 119.03869,192.18001 125.18017,193.54632 132.09375,195.71875 132.09375,195.71875 132.09265,195.98061 132.09375,196 133.06787,196.68804 143.66,204.19833 147.5,208.625 155.91767,218.3287 160.375,232 160.375,232 L 159.8125,232.78125 C 162.84282,229.30294 164.83689,225.86049 165.375,221.34375 L 166.6875,220.78125 C 166.6875,220.78125 168.04416,218.15346 170.1875,213.9375 175.19658,204.08492 184.41643,185.75909 190.90625,172.34375 191.3566,171.41287 191.89185,170.37792 192.3125,169.5 192.31712,169.49036 192.30789,169.47838 192.3125,169.46875 193.60895,166.76269 194.76685,164.33728 195.6875,162.3125 196.14371,161.30916 196.57273,160.34045 196.96875,159.40625 196.97264,159.39708 196.96487,159.38416 196.96875,159.375 198.15985,156.56343 199.09528,154.03271 199.90625,151.6875 200.44998,150.11698 200.93945,148.60798 201.40625,147.15625 201.86851,145.71432 202.32188,144.30199 202.78125,142.90625 202.78431,142.89698 202.77819,142.88427 202.78125,142.875 203.47236,140.77628 204.23244,138.69585 205.125,136.5 205.12851,136.49138 205.12148,136.47737 205.125,136.46875 206.01966,134.27018 207.09102,131.97572 208.4375,129.4375 208.44157,129.42985 208.43343,129.41391 208.4375,129.40625 209.33943,127.70743 210.36505,125.91003 211.5625,123.96875 211.86186,123.48343 212.18435,122.99215 212.53125,122.46875 213.57195,120.89855 214.81629,119.1636 216.21875,117.3125 218.08442,114.85002 220.26098,112.17457 222.5625,109.40625 222.56748,109.40026 222.55752,109.38099 222.5625,109.375 231.78656,98.281795 243.56903,85.626601 250.40625,78.40625 250.41578,78.39618 250.39674,78.385049 250.40625,78.375 253.82386,74.766035 256,72.53125 256,72.53125 256,72.53125 255.42652,71.685643 254.46875,70.25 254.46529,70.244817 254.47222,70.223949 254.46875,70.21875 253.49385,68.757828 252.08503,66.697843 250.375,64.21875 248.66467,61.739118 246.67452,58.867686 244.46875,55.8125 239.50661,48.939848 233.59122,41.143393 228.09375,35 226.87191,33.634477 225.66583,32.364781 224.5,31.1875 222.15894,28.823716 219.96467,26.893901 218.03125,25.625 217.5493,25.307635 217.10359,25.044748 216.65625,24.8125 216.20895,24.580331 215.78395,24.39015 215.375,24.25 215.00093,24.121804 214.65148,24.045664 214.3125,24 214.28068,23.995486 214.25025,23.972518 214.21875,23.96875 214.03532,23.948143 213.82845,23.963325 213.65625,23.96875 213.31183,23.979567 212.9842,24.036098 212.6875,24.15625 212.5483,24.214419 212.40921,24.291362 212.28125,24.375 210.54766,25.508136 208.64935,26.896307 206.65625,28.46875 203.6666,30.827414 200.47213,33.58848 197.28125,36.46875 194.09037,39.34902 190.90166,42.345825 187.96875,45.1875 186.01348,47.08195 184.17055,48.923934 182.5,50.59375 180.83673,52.256118 179.339,53.756941 178.09375,55.03125 178.08931,55.035792 178.09818,55.057964 178.09375,55.0625 175.61163,57.602963 174.0625,59.21875 174.0625,59.21875 174.0625,59.21875 174.38222,58.640855 174.9375,57.625 175.48675,56.620008 176.26094,55.2024 177.1875,53.4375 178.11762,51.666444 179.17581,49.570318 180.3125,47.28125 181.44441,45.001527 182.64719,42.549462 183.8125,40 184.39535,38.725322 184.9723,37.42116 185.53125,36.125 187.7663,30.94015 189.72569,25.709381 190.71875,21.40625 190.84294,20.868375 190.93856,20.350618 191.03125,19.84375 191.21443,18.841411 191.33062,17.890038 191.375,17.03125 191.37554,17.020423 191.37448,17.010802 191.375,17 191.41578,16.181071 191.38598,15.442346 191.28125,14.78125 191.27476,14.741211 191.28832,14.695655 191.28125,14.65625 191.22103,14.3117 191.1364,14.013144 191.03125,13.71875 190.68459,12.748158 190.24151,11.831249 189.78125,10.96875 189.6822,10.783711 189.60333,10.58637 189.5,10.40625 189.21328,9.9047216 188.90861,9.4323883 188.59375,8.96875 188.58899,8.9617555 188.59852,8.944486 188.59375,8.9375 188.27357,8.4672044 187.93524,8.0253785 187.59375,7.59375 187.2422,7.1496545 186.89719,6.7474611 186.53125,6.34375 186.52111,6.3325198 186.51015,6.3236992 186.5,6.3125 186.16388,5.9429739 185.81006,5.5858698 185.46875,5.25 185.10707,4.8940825 184.73505,4.5372645 184.375,4.21875 182.58453,2.6348389 180.87084,1.5012047 179.6875,0.8125 179.67747,0.806674 179.6662,0.81826269 179.65625,0.8125 179.19276,0.54326462 178.8292,0.32340006 178.5625,0.1875 178.54639,0.17931879 178.54649,0.19518184 178.53125,0.1875 178.26378,0.05157285 178.125,0 178.125,0 z"
       id="path4127"
       inkscape:connector-curvature="0"
       sodipodi:nodetypes="cccccccssssccccccccssccccsccccccccsccccccccccssssccccccccccccsccccsssscccccccccccccccscccccccssccccc" />
  </g>
  <g
     inkscape:groupmode="layer"
     id="layer5"
     inkscape:label="cones"
     transform="translate(-53.529389,-152.17385)">
    <path
       sodipodi:type="arc"
       style="fill:url(#radialGradient4112);fill-opacity:1;stroke:none;filter:url(#filter4070)"
       id="path4062"
       sodipodi:cx="142.69067"
       sodipodi:cy="200.24258"
       sodipodi:rx="29.013771"
       sodipodi:ry="30.916313"
       d="M 171.70444,200.24258 C 171.70444,217.31719 158.71454,231.1589 142.69067,231.1589 126.66681,231.1589 113.6769,217.31719 113.6769,200.24258 113.6769,183.16798 126.66681,169.32627 142.69067,169.32627 158.71454,169.32627 171.70444,183.16798 171.70444,200.24258 z"
       transform="matrix(1.1312564,-0.28988513,0.32883141,1.4380572,-123.11469,4.6411939)"
       inkscape:export-filename="C:\Users\Stuart\Documents\GitHub\stepdub\text3050.png"
       inkscape:export-xdpi="90"
       inkscape:export-ydpi="90" />
    <path
       inkscape:export-ydpi="90"
       inkscape:export-xdpi="90"
       inkscape:export-filename="C:\Users\Stuart\Documents\GitHub\stepdub\text3050.png"
       transform="matrix(0.83275299,-0.21339344,0.242063,1.0585985,-63.1463,69.710343)"
       d="M 171.70444,200.24258 C 171.70444,217.31719 158.71454,231.1589 142.69067,231.1589 126.66681,231.1589 113.6769,217.31719 113.6769,200.24258 113.6769,183.16798 126.66681,169.32627 142.69067,169.32627 158.71454,169.32627 171.70444,183.16798 171.70444,200.24258 z"
       sodipodi:ry="30.916313"
       sodipodi:rx="29.013771"
       sodipodi:cy="200.24258"
       sodipodi:cx="142.69067"
       id="path4001"
       style="fill:url(#radialGradient4096);fill-opacity:1;stroke:none"
       sodipodi:type="arc" />
    <path
       inkscape:export-ydpi="90"
       inkscape:export-xdpi="90"
       inkscape:export-filename="C:\Users\Stuart\Documents\GitHub\stepdub\text3050.png"
       sodipodi:type="arc"
       style="opacity:0.95999995;fill:url(#radialGradient4098);fill-opacity:1;stroke:none"
       id="path4003"
       sodipodi:cx="142.69067"
       sodipodi:cy="200.24258"
       sodipodi:rx="29.013771"
       sodipodi:ry="30.916313"
       d="M 171.70444,200.24258 C 171.70444,217.31719 158.71454,231.1589 142.69067,231.1589 126.66681,231.1589 113.6769,217.31719 113.6769,200.24258 113.6769,183.16798 126.66681,169.32627 142.69067,169.32627 158.71454,169.32627 171.70444,183.16798 171.70444,200.24258 z"
       transform="matrix(0.30707069,-0.07868704,0.08925871,0.39034936,43.040603,184.19157)" />
    <path
       inkscape:export-ydpi="90"
       inkscape:export-xdpi="90"
       inkscape:export-filename="C:\Users\Stuart\Documents\GitHub\stepdub\text3050.png"
       transform="matrix(0.15818395,-0.34572437,0.61274814,0.33336297,18.019041,357.93324)"
       d="M 173.60699,200.24258 C 173.60699,217.31719 159.76528,231.1589 142.69067,231.1589 125.61607,231.1589 111.77436,217.31719 111.77436,200.24258 111.77436,183.16798 125.61607,169.32627 142.69067,169.32627 159.76528,169.32627 173.60699,183.16798 173.60699,200.24258 z"
       sodipodi:ry="30.916313"
       sodipodi:rx="30.916313"
       sodipodi:cy="200.24258"
       sodipodi:cx="142.69067"
       id="path4100"
       style="fill:url(#radialGradient4106);fill-opacity:1;stroke:none;filter:url(#filter4070)"
       sodipodi:type="arc" />
    <path
       sodipodi:type="arc"
       style="fill:url(#radialGradient4108);fill-opacity:1;stroke:none"
       id="path4102"
       sodipodi:cx="142.69067"
       sodipodi:cy="200.24258"
       sodipodi:rx="29.013771"
       sodipodi:ry="30.916313"
       d="M 171.70444,200.24258 C 171.70444,217.31719 158.71454,231.1589 142.69067,231.1589 126.66681,231.1589 113.6769,217.31719 113.6769,200.24258 113.6769,183.16798 126.66681,169.32627 142.69067,169.32627 158.71454,169.32627 171.70444,183.16798 171.70444,200.24258 z"
       transform="matrix(0.11644412,-0.25449844,0.4510629,0.24539882,56.351192,362.53032)"
       inkscape:export-filename="C:\Users\Stuart\Documents\GitHub\stepdub\text3050.png"
       inkscape:export-xdpi="90"
       inkscape:export-ydpi="90" />
    <path
       transform="matrix(0.0429378,-0.09384417,0.16632568,0.09048877,123.95186,370.46021)"
       d="M 171.70444,200.24258 C 171.70444,217.31719 158.71454,231.1589 142.69067,231.1589 126.66681,231.1589 113.6769,217.31719 113.6769,200.24258 113.6769,183.16798 126.66681,169.32627 142.69067,169.32627 158.71454,169.32627 171.70444,183.16798 171.70444,200.24258 z"
       sodipodi:ry="30.916313"
       sodipodi:rx="29.013771"
       sodipodi:cy="200.24258"
       sodipodi:cx="142.69067"
       id="path4104"
       style="opacity:0.95999995;fill:url(#radialGradient4110);fill-opacity:1;stroke:none"
       sodipodi:type="arc"
       inkscape:export-filename="C:\Users\Stuart\Documents\GitHub\stepdub\text3050.png"
       inkscape:export-xdpi="90"
       inkscape:export-ydpi="90" />
  </g>
  <g
     inkscape:groupmode="layer"
     id="layer1"
     inkscape:label="text"
     style="display:none">
    <text
       xml:space="preserve"
       style="font-size:147.40553284px;font-style:normal;font-variant:normal;font-weight:normal;font-stretch:normal;line-height:125%;letter-spacing:0px;word-spacing:0px;fill:url(#linearGradient3845);fill-opacity:1;stroke:none;font-family:Racing Sans One;-inkscape-font-specification:Racing Sans One"
       x="367.15579"
       y="330.51553"
       id="text3050"
       sodipodi:linespacing="125%"
       transform="translate(-53.529389,-152.17385)"
       inkscape:export-xdpi="90"
       inkscape:export-ydpi="90"><tspan
         sodipodi:role="line"
         id="tspan3052"
         x="367.15579"
         y="330.51553"
         style="fill:url(#linearGradient3845);fill-opacity:1">StepDub</tspan></text>
  </g>
  <g
     style="display:none"
     inkscape:label="text path"
     id="g4197"
     inkscape:groupmode="layer">
    <g
       transform="translate(-53.529389,-152.17385)"
       style="font-size:147.40553284px;font-style:normal;font-variant:normal;font-weight:normal;font-stretch:normal;line-height:125%;letter-spacing:0px;word-spacing:0px;fill:url(#linearGradient3845);fill-opacity:1;stroke:none;font-family:Racing Sans One;-inkscape-font-specification:Racing Sans One"
       id="text4199">
      <path
         d="m 425.23541,264.03729 c 0.29384,-1.47542 0.44079,-3.49073 0.44085,-6.04593 -6e-5,-1.47242 -0.0983,-2.92167 -0.29465,-4.34776 -0.19649,-1.42593 -0.54063,-2.70349 -1.0324,-3.83269 -0.49189,-1.12903 -1.22888,-2.01297 -2.21099,-2.65184 -0.98222,-0.6387 -2.26053,-0.95809 -3.83494,-0.95817 -1.76644,8e-5 -3.38664,0.39295 -4.86058,1.1786 -1.47405,0.78581 -2.77635,1.79271 -3.90692,3.02071 -1.13065,1.22816 -2.01535,2.65342 -2.65409,4.27579 -0.63882,1.62252 -0.95821,3.31694 -0.95817,5.08326 -4e-5,2.55519 0.66348,4.52102 1.99057,5.89748 1.327,1.37659 3.07165,2.5072 5.23396,3.39184 2.16221,0.88476 4.61911,1.62175 7.37072,2.21099 2.7515,0.58936 5.60128,1.27687 8.54933,2.06254 2.45609,0.68683 4.91225,1.57077 7.36847,2.65185 2.45609,1.08118 4.64234,2.53118 6.55876,4.35001 1.91626,1.81892 3.46448,4.17761 4.64466,7.07607 1.18001,2.89855 1.77006,6.51006 1.77014,10.83455 -8e-5,6.1899 -1.22891,11.39761 -3.68649,15.62315 -2.45773,4.22556 -5.84807,7.66538 -10.17101,10.31946 -4.32309,2.6541 -9.45733,4.57044 -15.40273,5.74904 -5.94551,1.17859 -12.40754,1.76789 -19.38611,1.76789 -7.07461,0 -12.84763,-0.46634 -17.31907,-1.39902 -4.47149,-0.93268 -7.98478,-1.94033 -10.5399,-3.02297 -3.04696,-1.27755 -5.30668,-2.75155 -6.77918,-4.42198 l 5.01129,-20.19359 25.94262,0 c -0.099,0.88473 -0.19721,2.08881 -0.29465,3.61226 -0.0975,1.52351 -0.14623,2.72609 -0.1462,3.60777 -3e-5,1.18161 0.14692,2.41119 0.44085,3.68874 0.29387,1.27757 0.76021,2.45692 1.39902,3.53804 0.63875,1.08114 1.54819,1.96508 2.72831,2.65184 1.18006,0.68677 2.65331,1.03015 4.41974,1.03014 1.96729,10e-6 3.71269,-0.44233 5.23621,-1.32704 1.52343,-0.88469 2.80099,-1.98981 3.83269,-3.31537 1.03159,-1.32553 1.81732,-2.79952 2.35719,-4.42198 0.53976,-1.62243 0.80967,-3.21938 0.80972,-4.79086 -5e-5,-2.16224 -0.51587,-3.98036 -1.54747,-5.45438 -1.03169,-1.47397 -2.43221,-2.72679 -4.20156,-3.75847 -1.76944,-1.03161 -3.80874,-1.91556 -6.11791,-2.65184 -2.30924,-0.73621 -4.69192,-1.4987 -7.14805,-2.28747 -2.35722,-0.68672 -4.83812,-1.52119 -7.4427,-2.50339 -2.60463,-0.98212 -4.98806,-2.3579 -7.1503,-4.12734 -2.16228,-1.76934 -3.95566,-4.00508 -5.38016,-6.7072 -1.42452,-2.70202 -2.13678,-6.16583 -2.13677,-10.39144 -10e-6,-6.28878 1.59694,-11.57072 4.79086,-15.84583 3.19389,-4.27495 7.22301,-7.73951 12.08736,-10.39369 4.86431,-2.654 10.19498,-4.5456 15.99203,-5.67481 5.79697,-1.12901 11.30008,-1.69357 16.50935,-1.69367 6.87957,10e-5 12.80104,0.81057 17.76441,2.43142 4.96322,1.62104 8.72093,3.51264 11.27314,5.67481 l -5.45213,20.49048 z"
         id="path4204"
         inkscape:connector-curvature="0" />
      <path
         d="m 460.5933,267.13223 c 3.63775,-0.78566 6.8324,-1.67036 9.58397,-2.65409 2.75154,-0.98359 5.28192,-2.21242 7.59115,-3.68649 2.30919,-1.47392 4.52018,-3.29205 6.63298,-5.45438 2.11275,-2.16218 4.39721,-4.81477 6.85341,-7.95777 l 15.1823,0 -4.27354,19.75273 11.49807,0 -1.91635,9.87412 -11.64651,0 -6.04143,28.74516 c -0.49187,2.26125 -0.88549,4.27581 -1.18085,6.04368 -0.29544,1.76791 -0.44314,3.14369 -0.4431,4.12734 -4e-5,1.96434 0.71222,3.19242 2.13677,3.68424 1.42447,0.49184 4.10255,0.73776 8.03425,0.73775 l -2.20874,10.17101 c -0.68981,0.19794 -1.74695,0.34563 -3.17142,0.4431 -1.42455,0.0975 -2.99676,0.21968 -4.71663,0.36663 -1.71995,0.14694 -3.48859,0.24516 -5.30594,0.29465 -1.81741,0.0495 -3.41436,0.0742 -4.79086,0.0742 -2.45618,0 -4.8636,-0.17169 -7.22227,-0.51507 -2.35871,-0.34339 -4.47149,-1.0309 -6.33833,-2.06255 -1.86688,-1.03164 -3.36561,-2.53038 -4.49621,-4.49621 -1.13063,-1.96582 -1.69593,-4.61916 -1.69592,-7.96002 -10e-6,-1.17858 0.0735,-2.65258 0.22042,-4.42199 0.14694,-1.76937 0.46633,-3.7352 0.95817,-5.89748 l 6.18988,-29.33446 -11.49356,0 z"
         id="path4206"
         inkscape:connector-curvature="0" />
      <path
         d="m 543.81481,300.88868 c -0.3929,2.16228 -0.6628,4.22558 -0.80972,6.18988 -0.14698,1.96435 -0.22046,3.73374 -0.22043,5.30818 -3e-5,0.88172 0.0495,1.86313 0.14845,2.94424 0.0989,1.08115 0.32011,2.0888 0.66353,3.02297 0.34335,0.93419 0.83443,1.72067 1.47324,2.35944 0.63875,0.63879 1.54744,0.95818 2.72607,0.95817 0.88466,10e-6 1.89231,-0.29464 3.02296,-0.88395 1.13058,-0.58928 2.26044,-1.4245 3.38959,-2.50564 1.12907,-1.08111 2.2102,-2.40816 3.24339,-3.98114 1.0331,-1.57294 1.84357,-3.34158 2.43142,-5.30593 l 24.17472,0 -3.83269,15.7716 c -1.96439,1.27757 -4.22411,2.3587 -6.77917,3.24339 -2.55519,0.8847 -5.25801,1.59696 -8.10848,2.13677 -2.85057,0.53981 -5.74983,0.93268 -8.69777,1.1786 -2.94803,0.24591 -5.74907,0.36887 -8.40312,0.36887 -4.91235,0 -9.48128,-0.44235 -13.70681,-1.32705 -4.22557,-0.88469 -7.91056,-2.40742 -11.05497,-4.56818 -3.14443,-2.16076 -5.62608,-5.03527 -7.44495,-8.62355 -1.81888,-3.58825 -2.72831,-8.03498 -2.72831,-13.34018 0,-4.81632 0.76173,-9.5337 2.28522,-14.15216 1.52347,-4.61837 4.07859,-8.72096 7.66537,-12.30778 3.58676,-3.58672 8.40235,-6.46123 14.4468,-8.62355 6.0444,-2.1622 13.58606,-3.24333 22.62501,-3.24339 9.82758,6e-5 17.22304,1.52354 22.1864,4.57044 4.96323,3.04701 7.44488,7.81387 7.44495,14.3006 -7e-5,2.65113 -0.39294,5.5249 -1.17859,8.6213 -0.78581,3.09647 -1.9659,5.72582 -3.54029,7.88805 z m 19.60879,-17.544 c -5e-5,-3.0469 -0.49189,-5.11019 -1.4755,-6.18988 -0.98371,-1.07957 -2.1638,-1.61939 -3.54029,-1.61944 -1.5715,5e-5 -3.02075,0.51587 -4.34776,1.54747 -1.32708,1.0317 -2.53042,2.40747 -3.61001,4.12733 -1.07967,1.71996 -2.06183,3.68504 -2.94649,5.89524 -0.88473,2.21028 -1.62248,4.54348 -2.21324,6.9996 l 16.80624,0 c 0.19488,-1.17856 0.39132,-2.40664 0.5893,-3.68424 0.19488,-1.07959 0.36657,-2.25818 0.51507,-3.53579 0.1484,-1.27752 0.22263,-2.45761 0.22268,-3.54029 z"
         id="path4208"
         inkscape:connector-curvature="0" />
      <path
         d="m 615.58323,355.27956 -30.0677,0 18.56964,-88.14733 24.03077,0 2.6496,9.43327 0.88619,0 c 3.53875,-3.73366 7.49439,-6.41174 11.86694,-8.03425 4.37245,-1.62238 8.67147,-2.4336 12.89709,-2.43366 3.43975,6e-5 6.31426,0.51664 8.62354,1.54972 2.30914,1.03321 4.152,2.43372 5.52861,4.20156 1.37645,1.76795 2.35936,3.88073 2.94874,6.33833 0.58922,2.45771 0.88387,5.06156 0.88395,7.81157 -8e-5,1.37658 -0.0983,3.44062 -0.29465,6.19213 -0.19652,2.7516 -0.63886,5.82254 -1.32705,9.21285 -0.68834,3.39037 -1.67125,6.87892 -2.94874,10.46567 -1.27764,3.58678 -2.9728,6.85416 -5.08551,9.80214 -2.11284,2.948 -4.76618,5.35542 -7.96002,7.22228 -3.19397,1.86686 -7.00266,2.80029 -11.42609,2.80029 -2.45621,0 -4.83889,-0.29465 -7.14805,-0.88395 -2.30925,-0.5893 -4.39729,-1.37503 -6.26411,-2.35719 -1.8669,-0.98216 -3.51258,-2.13676 -4.93706,-3.46381 -1.42454,-1.32704 -2.48168,-2.67883 -3.17141,-4.05537 l -0.8817,0 z m 15.62765,-37.88154 c 2.35716,2e-5 4.32223,-1.25355 5.89524,-3.76071 1.57291,-2.50712 2.85047,-5.45586 3.83268,-8.84622 0.98212,-3.39031 1.69437,-6.78065 2.13677,-10.17102 0.4423,-3.3903 0.66347,-5.92068 0.66353,-7.59115 -6e-5,-1.96428 -0.31945,-3.58522 -0.95818,-4.86283 -0.63883,-1.27752 -1.79343,-1.9163 -3.46381,-1.91635 -1.86841,5e-5 -3.6378,0.66358 -5.30818,1.99057 -1.67047,1.32709 -2.89855,2.48245 -3.68424,3.46606 l -5.74903,26.97277 c 0.78569,1.08265 1.71912,2.13978 2.80029,3.17141 1.08109,1.03166 2.3594,1.54749 3.83493,1.54747 z"
         id="path4210"
         inkscape:connector-curvature="0" />
      <path
         d="m 678.37723,330.51553 19.90118,-93.60395 39.64943,0 c 6.09385,9e-5 11.42527,0.61488 15.99427,1.84437 4.56886,1.22967 8.35206,3.26897 11.34962,6.1179 2.99738,2.84911 5.25786,6.58283 6.78143,11.20117 1.52338,4.61849 2.28512,10.26855 2.28521,16.9502 -9e-5,7.17659 -0.90878,14.20393 -2.72606,21.08203 -1.81747,6.87817 -4.83893,13.02006 -9.0644,18.42569 -4.22563,5.40566 -9.75348,9.75417 -16.58357,13.04553 -6.83022,3.29138 -15.25808,4.93706 -25.2836,4.93706 z m 40.38717,-10.31946 c 3.24485,10e-6 6.12011,-1.35103 8.6258,-4.05312 2.50559,-2.70205 4.6671,-6.14112 6.48453,-10.31721 1.81732,-4.17604 3.34079,-8.79446 4.57043,-13.85526 1.22952,-5.06072 2.21243,-9.94979 2.94874,-14.66723 0.73619,-4.71733 1.276,-8.94287 1.61945,-12.67666 0.34332,-3.73365 0.51501,-6.38774 0.51507,-7.96227 -6e-5,-3.04688 -0.6141,-5.42956 -1.84212,-7.14805 -1.22814,-1.71833 -3.36565,-2.57754 -6.41255,-2.57762 l -7.07158,0 -15.7761,73.25742 z"
         id="path4212"
         inkscape:connector-curvature="0" />
      <path
         d="m 830.95601,267.13223 30.0722,0 -13.56286,63.3833 -23.87782,0 -2.65409,-9.43327 -0.8817,0 c -2.55517,3.04697 -6.01973,5.57735 -10.39369,7.59115 -4.37403,2.01381 -8.77127,3.02072 -13.19174,3.02072 -5.89599,0 -10.51516,-1.49874 -13.8575,-4.49621 -3.34236,-2.99747 -5.01354,-6.90288 -5.01353,-11.71624 -10e-6,-2.45914 0.41835,-5.53084 1.25507,-9.21509 0.83671,-3.68422 1.59844,-7.14728 2.28521,-10.3892 l 6.18988,-28.74516 29.92376,0 -7.36848,34.4897 c -0.19796,0.78875 -0.39515,1.72368 -0.59155,2.80479 -0.19646,1.08115 -0.39289,2.13754 -0.58929,3.16916 -0.19647,1.03167 -0.36816,2.01383 -0.51508,2.94649 -0.14698,0.9327 -0.22045,1.69444 -0.22042,2.28522 -3e-5,1.47251 0.31936,2.72458 0.95817,3.75621 0.63875,1.03166 1.79335,1.54749 3.46381,1.54747 1.76936,2e-5 3.43979,-0.58928 5.01129,-1.76789 1.57142,-1.17858 2.7995,-2.30769 3.68424,-3.38734 z"
         id="path4214"
         inkscape:connector-curvature="0" />
      <path
         d="m 884.75308,330.51553 -23.88232,0 20.93133,-99.05608 30.22065,0 -9.58171,45.10605 1.03014,0 c 3.24485,-3.73366 6.90584,-6.41174 10.98299,-8.03425 4.07705,-1.62238 8.13091,-2.4336 12.16159,-2.43366 3.43975,6e-5 6.31427,0.51664 8.62355,1.54972 2.30913,1.03321 4.15125,2.43372 5.52635,4.20156 1.37495,1.76795 2.35787,3.88073 2.94874,6.33833 0.59072,2.45771 0.88612,5.06156 0.8862,7.81157 -8e-5,1.37658 -0.0991,3.44062 -0.2969,6.19213 -0.19801,2.7516 -0.64036,5.82254 -1.32704,9.21285 -0.68685,3.39037 -1.66901,6.87892 -2.94649,10.46567 -1.27764,3.58678 -2.97281,6.85416 -5.08551,9.80214 -2.11285,2.948 -4.76619,5.35542 -7.96003,7.22228 -3.19397,1.86686 -7.00266,2.80029 -11.42609,2.80029 -2.65114,0 -5.23025,-0.29465 -7.73735,-0.88395 -2.50718,-0.5893 -4.76766,-1.37503 -6.78143,-2.35719 -2.01384,-0.98216 -3.78248,-2.13676 -5.30593,-3.46381 -1.52351,-1.32704 -2.62863,-2.67883 -3.31536,-4.05537 l -1.03465,0 z m 16.6578,-13.11751 c 2.35715,2e-5 4.32222,-1.25355 5.89523,-3.76071 1.57291,-2.50712 2.85048,-5.45586 3.83269,-8.84622 0.98211,-3.39031 1.69437,-6.78065 2.13677,-10.17102 0.44229,-3.3903 0.66347,-5.92068 0.66352,-7.59115 -5e-5,-1.96428 -0.31944,-3.58522 -0.95817,-4.86283 -0.63883,-1.27752 -1.79344,-1.9163 -3.46382,-1.91635 -1.96737,5e-5 -3.78624,0.71231 -5.45663,2.13677 -1.67047,1.42456 -2.89855,2.62865 -3.68424,3.61226 l -5.74903,26.38797 c 0.68973,1.17861 1.59917,2.30848 2.72832,3.38959 1.12907,1.08114 2.48086,1.62171 4.05536,1.62169 z"
         id="path4216"
         inkscape:connector-curvature="0" />
    </g>
  </g>
</svg>
