<?xml version="1.0" encoding="UTF-8" standalone="no"?>
<!-- Created with Inkscape (http://www.inkscape.org/) -->

<svg
   xmlns:dc="http://purl.org/dc/elements/1.1/"
   xmlns:cc="http://creativecommons.org/ns#"
   xmlns:rdf="http://www.w3.org/1999/02/22-rdf-syntax-ns#"
   xmlns:svg="http://www.w3.org/2000/svg"
   xmlns="http://www.w3.org/2000/svg"
   xmlns:xlink="http://www.w3.org/1999/xlink"
   xmlns:sodipodi="http://sodipodi.sourceforge.net/DTD/sodipodi-0.dtd"
   xmlns:inkscape="http://www.inkscape.org/namespaces/inkscape"
   id="svg2"
   version="1.1"
   inkscape:version="0.48.2 r9819"
   width="256"
   height="256"
   sodipodi:docname="logo.svg"
   inkscape:export-filename="C:\Users\Stuart\Documents\GitHub\stepdub\splash.png"
   inkscape:export-xdpi="90"
   inkscape:export-ydpi="90">
  <metadata
     id="metadata8">
    <rdf:RDF>
      <cc:Work
         rdf:about="">
        <dc:format>image/svg+xml</dc:format>
        <dc:type
           rdf:resource="http://purl.org/dc/dcmitype/StillImage" />
        <dc:title></dc:title>
      </cc:Work>
    </rdf:RDF>
  </metadata>
  <defs
     id="defs6">
    <linearGradient
       id="linearGradient4129">
      <stop
         id="stop4131"
         offset="0"
         style="stop-color:#000000;stop-opacity:0.5945946;" />
      <stop
         id="stop4133"
         offset="1"
         style="stop-color:#000000;stop-opacity:0;" />
    </linearGradient>
    <linearGradient
       id="linearGradient4084">
      <stop
         id="stop4086"
         offset="0"
         style="stop-color:#3434e4;stop-opacity:1;" />
      <stop
         style="stop-color:#1d1d5d;stop-opacity:1;"
         offset="0.67038792"
         id="stop4090" />
      <stop
         id="stop4092"
         offset="0.85508847"
         style="stop-color:#27277b;stop-opacity:1;" />
      <stop
         id="stop4088"
         offset="1"
         style="stop-color:#181858;stop-opacity:1;" />
    </linearGradient>
    <linearGradient
       id="linearGradient3875">
      <stop
         style="stop-color:#3c0000;stop-opacity:1;"
         offset="0"
         id="stop3877" />
      <stop
         id="stop3893"
         offset="0.125"
         style="stop-color:#8c0000;stop-opacity:1;" />
      <stop
         style="stop-color:#a80000;stop-opacity:1;"
         offset="0.25"
         id="stop3879" />
      <stop
         id="stop3881"
         offset="0.32266784"
         style="stop-color:#8c0000;stop-opacity:1;" />
      <stop
         style="stop-color:#b00000;stop-opacity:1;"
         offset="0.5"
         id="stop3883" />
      <stop
         style="stop-color:#8c0000;stop-opacity:1;"
         offset="0.56999999"
         id="stop3885" />
      <stop
         id="stop3887"
         offset="0.75"
         style="stop-color:#b80000;stop-opacity:1;" />
      <stop
         style="stop-color:#8c0000;stop-opacity:1;"
         offset="0.81999999"
         id="stop3889" />
      <stop
         id="stop3891"
         offset="1"
         style="stop-color:#c40000;stop-opacity:1;" />
    </linearGradient>
    <linearGradient
       id="linearGradient3838">
      <stop
         style="stop-color:#ffffff;stop-opacity:1;"
         offset="0"
         id="stop3841" />
      <stop
         id="stop3865"
         offset="0.33000001"
         style="stop-color:#ffffff;stop-opacity:1;" />
      <stop
         style="stop-color:#c0c0c0;stop-opacity:1;"
         offset="1"
         id="stop3843" />
    </linearGradient>
    <linearGradient
       id="linearGradient3835">
      <stop
         style="stop-color:#171753;stop-opacity:1;"
         offset="0"
         id="stop3837" />
      <stop
         style="stop-color:#101039;stop-opacity:1;"
         offset="1"
         id="stop3839" />
    </linearGradient>
    <linearGradient
       id="linearGradient3825">
      <stop
         style="stop-color:#14144b;stop-opacity:1;"
         offset="0"
         id="stop3827" />
      <stop
         id="stop3833"
         offset="0.16279416"
         style="stop-color:#1e1e71;stop-opacity:1;" />
      <stop
         style="stop-color:#14144b;stop-opacity:1;"
         offset="1"
         id="stop3829" />
    </linearGradient>
    <linearGradient
       id="linearGradient3813">
      <stop
         style="stop-color:#121240;stop-opacity:1;"
         offset="0"
         id="stop3815" />
      <stop
         id="stop3821"
         offset="0.3578918"
         style="stop-color:#212176;stop-opacity:1;" />
      <stop
         style="stop-color:#121240;stop-opacity:1;"
         offset="1"
         id="stop3817" />
    </linearGradient>
    <linearGradient
       id="linearGradient3807">
      <stop
         id="stop3809"
         offset="0"
         style="stop-color:#19195a;stop-opacity:1;" />
      <stop
         id="stop3811"
         offset="1"
         style="stop-color:#212176;stop-opacity:1;" />
    </linearGradient>
    <linearGradient
       id="linearGradient3852">
      <stop
         style="stop-color:#19195a;stop-opacity:1;"
         offset="0"
         id="stop3854" />
      <stop
         style="stop-color:#2c2ca0;stop-opacity:1;"
         offset="1"
         id="stop3856" />
    </linearGradient>
    <linearGradient
       id="linearGradient3836">
      <stop
         style="stop-color:#937600;stop-opacity:1;"
         offset="0"
         id="stop3838" />
      <stop
         style="stop-color:#d4aa00;stop-opacity:1;"
         offset="1"
         id="stop3840" />
    </linearGradient>
    <linearGradient
       id="linearGradient3828">
      <stop
         style="stop-color:#3434e4;stop-opacity:1;"
         offset="0"
         id="stop3830" />
      <stop
         style="stop-color:#10105e;stop-opacity:1;"
         offset="1"
         id="stop3832" />
    </linearGradient>
    <linearGradient
       id="linearGradient3783">
      <stop
         style="stop-color:#8888de;stop-opacity:1;"
         offset="0"
         id="stop3785" />
      <stop
         style="stop-color:#2c2ca0;stop-opacity:1;"
         offset="1"
         id="stop3787" />
    </linearGradient>
    <radialGradient
       inkscape:collect="always"
       xlink:href="#linearGradient3783"
       id="radialGradient3789"
       cx="163.08237"
       cy="64.229652"
       fx="163.08237"
       fy="64.229652"
       r="77.023705"
       gradientTransform="matrix(0.60035847,0.05493508,-0.03377091,0.36906564,36.866946,138.26845)"
       gradientUnits="userSpaceOnUse" />
    <radialGradient
       inkscape:collect="always"
       xlink:href="#linearGradient3852"
       id="radialGradient3858"
       cx="286.46466"
       cy="87.59465"
       fx="286.46466"
       fy="87.59465"
       r="136.85548"
       gradientTransform="matrix(0.42853554,0.40276918,-0.55475291,0.59024207,128.79544,2.8120874)"
       gradientUnits="userSpaceOnUse" />
    <linearGradient
       inkscape:collect="always"
       xlink:href="#linearGradient3807"
       id="linearGradient3885"
       x1="155.12115"
       y1="390.77899"
       x2="155.84029"
       y2="343.83282"
       gradientUnits="userSpaceOnUse" />
    <linearGradient
       inkscape:collect="always"
       xlink:href="#linearGradient3807"
       id="linearGradient3904"
       x1="106.6855"
       y1="310.9086"
       x2="93.520638"
       y2="180.27478"
       gradientUnits="userSpaceOnUse" />
    <linearGradient
       inkscape:collect="always"
       xlink:href="#linearGradient3813"
       id="linearGradient3819"
       x1="83.906097"
       y1="174.97388"
       x2="164.74133"
       y2="235.36578"
       gradientUnits="userSpaceOnUse" />
    <linearGradient
       inkscape:collect="always"
       xlink:href="#linearGradient3825"
       id="linearGradient3831"
       x1="73.314896"
       y1="181.95984"
       x2="141.02612"
       y2="289.45984"
       gradientUnits="userSpaceOnUse" />
    <linearGradient
       inkscape:collect="always"
       xlink:href="#linearGradient3835"
       id="linearGradient3841"
       x1="149.67969"
       y1="313.63345"
       x2="141.8412"
       y2="355.88309"
       gradientUnits="userSpaceOnUse" />
    <linearGradient
       inkscape:collect="always"
       xlink:href="#linearGradient3838"
       id="linearGradient3845"
       x1="655.3631"
       y1="231.45944"
       x2="655.3631"
       y2="355.27954"
       gradientUnits="userSpaceOnUse" />
    <radialGradient
       inkscape:collect="always"
       xlink:href="#linearGradient3875"
       id="radialGradient3873"
       gradientUnits="userSpaceOnUse"
       gradientTransform="matrix(2.0962549,-1.7297164e-8,1.7424412e-8,2.1116762,110.69736,-148.66354)"
       cx="2.1958482"
       cy="132.01715"
       fx="2.1958482"
       fy="132.01715"
       r="514.5" />
    <radialGradient
       inkscape:collect="always"
       xlink:href="#linearGradient3836"
       id="radialGradient4096"
       gradientUnits="userSpaceOnUse"
       gradientTransform="matrix(1.060137,-0.4774352,0.95486567,1.4420905,-181.13402,-16.604046)"
       cx="136.54681"
       cy="178.92728"
       fx="136.54681"
       fy="178.92728"
       r="29.013771" />
    <radialGradient
       inkscape:collect="always"
       xlink:href="#linearGradient3828"
       id="radialGradient4098"
       gradientUnits="userSpaceOnUse"
       gradientTransform="matrix(-0.91663961,-0.17190974,0.25435162,-0.86124857,208.90474,391.27176)"
       cx="139.2596"
       cy="204.94406"
       fx="139.2596"
       fy="204.94406"
       r="29.013771" />
    <radialGradient
       inkscape:collect="always"
       xlink:href="#linearGradient4084"
       id="radialGradient4106"
       gradientUnits="userSpaceOnUse"
       gradientTransform="matrix(1.0609516,-0.00702518,0.0084299,1.0726043,0.74574241,-8.7799618)"
       cx="132.01559"
       cy="195.11459"
       fx="132.01559"
       fy="195.11459"
       r="29.013771" />
    <radialGradient
       inkscape:collect="always"
       xlink:href="#linearGradient3836"
       id="radialGradient4108"
       gradientUnits="userSpaceOnUse"
       gradientTransform="matrix(1.257356,-0.54624484,0.71648043,1.9299556,-166.41609,-96.054159)"
       cx="147.3363"
       cy="183.63324"
       fx="147.3363"
       fy="183.63324"
       r="29.013771" />
    <radialGradient
       inkscape:collect="always"
       xlink:href="#linearGradient3828"
       id="radialGradient4110"
       gradientUnits="userSpaceOnUse"
       gradientTransform="matrix(-0.9456864,0.01081724,-0.26855044,-0.77510158,321.77823,350.1697)"
       cx="126.48194"
       cy="208.83374"
       fx="126.48194"
       fy="208.83374"
       r="29.013771" />
    <radialGradient
       inkscape:collect="always"
       xlink:href="#linearGradient4084"
       id="radialGradient4112"
       gradientUnits="userSpaceOnUse"
       gradientTransform="matrix(0.99022724,-0.00282956,0.00501866,1.0720704,10.748041,-9.2296766)"
       cx="132.04793"
       cy="194.35556"
       fx="132.04793"
       fy="194.35556"
       r="29.013771" />
    <linearGradient
       inkscape:collect="always"
       xlink:href="#linearGradient4129"
       id="linearGradient4137"
       x1="242.74474"
       y1="371.67883"
       x2="176.59332"
       y2="307.56781"
       gradientUnits="userSpaceOnUse" />
    <linearGradient
       inkscape:collect="always"
       xlink:href="#linearGradient4129"
       id="linearGradient4139"
       gradientUnits="userSpaceOnUse"
       x1="261.74475"
       y1="381.34549"
       x2="192.62108"
       y2="320.29575" />
    <linearGradient
       inkscape:collect="always"
       xlink:href="#linearGradient4129-8"
       id="linearGradient4139-8"
       gradientUnits="userSpaceOnUse"
       x1="261.74475"
       y1="381.34549"
       x2="192.62108"
       y2="320.29575" />
    <linearGradient
       id="linearGradient4129-8">
      <stop
         id="stop4131-1"
         offset="0"
         style="stop-color:#000000;stop-opacity:0.5945946;" />
      <stop
         id="stop4133-2"
         offset="1"
         style="stop-color:#000000;stop-opacity:0;" />
    </linearGradient>
    <linearGradient
       gradientTransform="translate(-119.23674,-152.17385)"
       y2="320.29575"
       x2="192.62108"
       y1="381.34549"
       x1="261.74475"
       gradientUnits="userSpaceOnUse"
       id="linearGradient4156"
       xlink:href="#linearGradient4129-8"
       inkscape:collect="always" />
    <linearGradient
       inkscape:collect="always"
       xlink:href="#linearGradient4129-8"
       id="linearGradient4193"
       gradientUnits="userSpaceOnUse"
       gradientTransform="translate(-53.529389,-152.17385)"
       x1="261.74475"
       y1="381.34549"
       x2="198.27794"
       y2="318.41013" />
  </defs>
  <sodipodi:namedview
     pagecolor="#ffffff"
     bordercolor="#666666"
     borderopacity="1"
     objecttolerance="10"
     gridtolerance="10"
     guidetolerance="10"
     inkscape:pageopacity="0"
     inkscape:pageshadow="2"
     inkscape:window-width="1680"
     inkscape:window-height="987"
     id="namedview4"
     showgrid="false"
     fit-margin-top="0"
     fit-margin-left="0"
     fit-margin-right="0"
     fit-margin-bottom="0"
     inkscape:snap-page="false"
     inkscape:zoom="3"
     inkscape:cx="128"
     inkscape:cy="128"
     inkscape:window-x="-8"
     inkscape:window-y="-8"
     inkscape:window-maximized="1"
     inkscape:current-layer="g4197"
     showborder="false"
     inkscape:snap-bbox="true"
     inkscape:snap-bbox-edge-midpoints="false"
     inkscape:snap-nodes="true" />
  <g
     style="display:none"
     inkscape:label="bg copy"
     id="g3867"
     inkscape:groupmode="layer">
    <rect
       inkscape:export-ydpi="90"
       inkscape:export-xdpi="90"
       inkscape:export-filename="C:\Users\Stuart\Documents\GitHub\stepdub\text3050.png"
       y="-782"
       x="-63.444927"
       height="1820"
       width="1024"
       id="rect3869"
       style="fill:url(#radialGradient3873);fill-opacity:1;stroke:none" />
  </g>
  <g
     inkscape:groupmode="layer"
     id="layer9"
     inkscape:label="feature-graphic-region"
     style="display:none">
    <rect
       style="fill:none;stroke:none"
       id="rect3058"
       width="1024"
       height="500"
       x="-63.444927"
       y="-122"
       inkscape:export-filename="C:\Users\Stuart\Documents\GitHub\stepdub\text3050.png"
       inkscape:export-xdpi="90"
       inkscape:export-ydpi="90" />
  </g>
  <g
     inkscape:groupmode="layer"
     id="layer7"
     inkscape:label="Layer" />
  <g
     inkscape:groupmode="layer"
     id="layer6"
     inkscape:label="backface">
    <path
       style="fill:#101039;fill-opacity:1;stroke:none"
       d="m 187.625,13.749999 c 0,0 4.25,11.75 9.5,16.75 5.83819,5.560178 45.75,31.625 45.75,31.625 L 165,115 141.5,88 z"
       id="path3867"
       inkscape:connector-curvature="0"
       sodipodi:nodetypes="cscccc"
       inkscape:export-filename="C:\Users\Stuart\Documents\GitHub\stepdub\text3050.png"
       inkscape:export-xdpi="90"
       inkscape:export-ydpi="90" />
  </g>
  <g
     inkscape:groupmode="layer"
     id="layer2"
     inkscape:label="Layer#1"
     style="display:inline"
     transform="translate(-53.529389,-152.17385)">
    <path
       style="fill:url(#radialGradient3858);fill-opacity:1;stroke:none"
       d="m 226.70776,176.52919 c -4.6067,10.93134 -23.29589,34.31455 -28.83766,37.06877 -10.59114,5.26374 -78.63336,8.29196 -78.63336,8.29196 l 91.15126,155.27627 9.8206,-4.20883 c 0,0 21.62896,-42.25779 28.99419,-58.45601 7.36522,-16.19822 6.32039,-22.81689 15.90003,-38.34715 9.57964,-15.53025 44.42657,-51.44128 44.42657,-51.44128 0,0 -35.03941,-53.84503 -43.72509,-48.16776 -13.86871,9.06509 -38.21702,34.83623 -38.21702,34.83623 0,0 20.3273,-36.08109 16.96256,-45.50169 -3.36473,-9.4206 -12.88785,-13.70585 -12.88785,-13.70585 0,0 -0.34753,13.424 -4.95423,24.35534 z"
       id="path2990"
       inkscape:connector-curvature="0"
       sodipodi:nodetypes="zsccczzcsczcz"
       inkscape:export-filename="C:\Users\Stuart\Documents\GitHub\stepdub\text3050.png"
       inkscape:export-xdpi="90"
       inkscape:export-ydpi="90" />
  </g>
  <g
     inkscape:groupmode="layer"
     id="layer3"
     inkscape:label="Layer#2"
     style="display:inline"
     transform="translate(-53.529389,-152.17385)">
    <path
       style="fill:url(#radialGradient3789);fill-opacity:1;stroke:none"
       d="m 100.80204,169.20504 c 0,0 14.88048,-11.40836 31.249,-12.40039 16.36852,-0.99204 25.13146,7.93625 28.7689,10.41633 16.78652,13.40383 21.16887,33.458 24.80079,48.11352 2.04734,8.26143 7.2778,41.32453 9.58964,53.40435 2.03722,10.64487 21,26.29338 -14.21912,45.79879 -43.97451,24.35442 -80.18921,-145.3326 -80.18921,-145.3326 z"
       id="path2993"
       inkscape:connector-curvature="0"
       sodipodi:nodetypes="cscsssc"
       inkscape:export-filename="C:\Users\Stuart\Documents\GitHub\stepdub\text3050.png"
       inkscape:export-xdpi="90"
       inkscape:export-ydpi="90" />
  </g>
  <g
     inkscape:groupmode="layer"
     id="layer4"
     inkscape:label="sole"
     style="display:inline"
     transform="translate(-53.529389,-152.17385)">
    <path
       style="fill:url(#linearGradient3819);fill-opacity:1;stroke:none"
       d="m 212.3755,386.0515 c 0,0 -93.33159,-83.64881 -111.17488,-118.15293 -7.604218,-14.70451 -19.415849,-89.71664 -19.415849,-89.71664 7.974786,-5.8643 18.038065,-12.19797 26.720649,-11.2515 34.69194,3.78168 47.61104,25.61665 54.65012,50.76777 2.47626,8.84784 9.35296,58.68983 9.35296,63.60014 0,4.9103 -0.23382,20.10886 0.9353,22.91475 1.16912,2.80589 2.33823,6.54708 5.8456,10.98974 3.50736,4.44265 29.69565,38.81478 31.33242,40.9192 1.63677,2.10441 8.50467,14.03147 8.41767,15.90004 -0.26918,5.78136 -2.72326,9.78322 -6.66399,14.02943 z"
       id="path3777"
       inkscape:connector-curvature="0"
       sodipodi:nodetypes="cscsssssssc"
       inkscape:export-filename="C:\Users\Stuart\Documents\GitHub\stepdub\text3050.png"
       inkscape:export-xdpi="90"
       inkscape:export-ydpi="90" />
    <path
       style="fill:url(#linearGradient3841);fill-opacity:1;stroke:none;display:inline"
       d="m 94.878916,305.73295 c 0,0 19.875044,16.95224 21.044174,19.05666 1.16911,2.10441 4.91029,14.67246 4.91029,14.67246 0,0 21.27799,12.15885 30.16331,12.86032 8.88531,0.70147 35.21547,-3.36333 35.21547,-3.36333 l -22.63455,-26.2974 c 0,0 -22.82135,-21.543 -39.42285,-23.17977 -16.60151,-1.63677 -29.275844,6.25106 -29.275844,6.25106 z"
       id="path3779"
       inkscape:connector-curvature="0"
       sodipodi:nodetypes="cscsccsc"
       inkscape:export-filename="C:\Users\Stuart\Documents\GitHub\stepdub\text3050.png"
       inkscape:export-xdpi="90"
       inkscape:export-ydpi="90" />
    <path
       style="fill:url(#linearGradient3904);fill-opacity:1;stroke:none"
       d="m 103.5047,177.83648 c -11.139428,-1.07859 -16.09558,-1.56418 -22.940462,2.60658 -8.966438,5.46347 -15.030782,10.54718 -20.057455,22.05658 -5.96219,13.65142 -7.950018,33.90448 -6.547073,44.66039 1.402944,10.7559 7.248123,27.05411 10.755906,32.96919 11.925025,20.10886 17.770626,24.08387 23.61623,25.01917 5.845602,0.93529 34.839784,6.07943 44.192744,10.52208 9.35296,4.44266 28.52653,14.4971 28.52653,14.4971 0,0 0,-38.58098 -2.33824,-60.09279 -2.33824,-21.51181 -8.41767,-55.4163 -13.79562,-65.23691 -5.37795,-9.8206 -27.18518,-25.6238 -41.41256,-27.00139 z"
       id="path3764"
       inkscape:connector-curvature="0"
       sodipodi:nodetypes="ssssssscsss"
       inkscape:export-filename="C:\Users\Stuart\Documents\GitHub\stepdub\text3050.png"
       inkscape:export-xdpi="90"
       inkscape:export-ydpi="90" />
    <path
       style="fill:url(#linearGradient3831);fill-opacity:1;stroke:none"
       d="m 64.814896,194.4847 c 18.321689,-15.15681 40.576164,-19.05982 59.058204,-4.37774 24.09908,19.14425 25.04418,59.30831 28.89713,88.82079 0.97616,7.47714 3.37059,35.10595 5.24118,43.05597 1.87059,7.95002 3.27354,8.18385 3.27354,8.18385 0,0 3.03971,-5.37796 3.74118,-5.84561 0,0 -6.43583,-69.40175 -13.08851,-102.08462 -1.95689,-9.61367 -5.34319,-19.45344 -16.96376,-32.91452 -7.54125,-8.73566 -24.86892,-18.27208 -37.90086,-16.94662 -13.398167,1.3627 -18.708083,6.79039 -25.047565,12.58944 -1.923618,1.75963 -7.210539,9.51906 -7.210539,9.51906 z"
       id="path3766"
       inkscape:connector-curvature="0"
       sodipodi:nodetypes="csssccssssc"
       inkscape:export-filename="C:\Users\Stuart\Documents\GitHub\stepdub\text3050.png"
       inkscape:export-xdpi="90"
       inkscape:export-ydpi="90" />
    <path
       style="fill:#161650;stroke:none"
       d="m 185.29066,347.92486 c 0,0 -1.83741,4.22216 -4.12379,8.89864 -2.06427,4.2222 -2.86262,9.124 -2.86262,9.124 0,0 9.69518,19.96725 11.09813,24.87756 1.40294,4.9103 12.62641,9.60663 12.62641,9.60663 l 11.86656,-16.25078 c 0,0 -4.44265,-13.6787 -12.86032,-23.3824 -4.02182,-4.63627 -15.74437,-12.87365 -15.74437,-12.87365 z"
       id="path3768"
       inkscape:connector-curvature="0"
       sodipodi:nodetypes="cscsccsc"
       inkscape:export-filename="C:\Users\Stuart\Documents\GitHub\stepdub\text3050.png"
       inkscape:export-xdpi="90"
       inkscape:export-ydpi="90" />
    <path
       style="fill:#1a1a5e;fill-opacity:1;stroke:none"
       d="m 116.74146,326.6602 c -0.86093,7.09739 -3.09817,13.32798 -3.09817,13.32798 0,0 28.41479,19.28359 38.46923,21.50492 10.05443,2.22133 27.25225,6.11782 27.25225,6.11782 0,0 6.12097,-5.52638 6.35479,-9.85212 0.23382,-4.32574 -0.0915,-9.86316 -0.0915,-9.86316 -15.67177,-4.92449 -27.5919,-5.77173 -38.60639,-8.37512 -22.62173,-5.38965 -30.28022,-12.86032 -30.28022,-12.86032 z"
       id="path3770"
       inkscape:connector-curvature="0"
       sodipodi:nodetypes="ccscsccc"
       inkscape:export-filename="C:\Users\Stuart\Documents\GitHub\stepdub\text3050.png"
       inkscape:export-xdpi="90"
       inkscape:export-ydpi="90" />
    <path
       style="fill:url(#linearGradient3885);fill-opacity:1;stroke:none;display:inline"
       d="m 114.42511,337.39949 c -1.40294,3.39045 -1.65865,10.77252 -0.84027,12.40929 0.81838,1.63677 10.639,17.5368 16.71842,23.03167 6.07943,5.49487 20.92725,16.95224 23.96697,18.58901 3.03971,1.63677 27.47432,14.14636 30.28021,14.84783 2.80589,0.70147 8.18384,2.10442 9.58679,1.87059 1.40294,-0.23382 4.20883,-1.63677 5.37795,-2.80589 1.16912,-1.16912 1.82804,-2.15041 2.88025,-4.83938 1.05221,-2.68898 -0.0578,-8.16858 -3.62427,-15.31548 -3.69422,-7.40299 -12.83927,-21.63359 -16.20823,-22.98567 -7.75908,-3.11399 -25.0966,-5.15731 -33.89517,-7.94516 -10.51182,-3.33068 -22.98282,-10.21247 -30.71462,-15.56591 -2.2295,-1.54368 -3.52803,-1.2909 -3.52803,-1.2909 z"
       id="path3772"
       inkscape:connector-curvature="0"
       sodipodi:nodetypes="csssssssssssc"
       inkscape:export-filename="C:\Users\Stuart\Documents\GitHub\stepdub\text3050.png"
       inkscape:export-xdpi="90"
       inkscape:export-ydpi="90" />
  </g>
  <g
     inkscape:groupmode="layer"
     id="layer8"
     inkscape:label="glare"
     style="display:inline" />
  <g
     inkscape:groupmode="layer"
     id="layer5"
     inkscape:label="cones"
     transform="translate(-53.529389,-152.17385)">
    <path
       sodipodi:type="arc"
       style="fill:url(#radialGradient4112);fill-opacity:1;stroke:none;filter:url(#filter4070)"
       id="path4062"
       sodipodi:cx="142.69067"
       sodipodi:cy="200.24258"
       sodipodi:rx="29.013771"
       sodipodi:ry="30.916313"
       d="m 171.70444,200.24258 a 29.013771,30.916313 0 1 1 -58.02754,0 29.013771,30.916313 0 1 1 58.02754,0 z"
       transform="matrix(1.1312564,-0.28988513,0.32883141,1.4380572,-123.11469,4.6411939)"
       inkscape:export-filename="C:\Users\Stuart\Documents\GitHub\stepdub\text3050.png"
       inkscape:export-xdpi="90"
       inkscape:export-ydpi="90" />
    <path
       inkscape:export-ydpi="90"
       inkscape:export-xdpi="90"
       inkscape:export-filename="C:\Users\Stuart\Documents\GitHub\stepdub\text3050.png"
       transform="matrix(0.83275299,-0.21339344,0.242063,1.0585985,-63.1463,69.710343)"
       d="m 171.70444,200.24258 a 29.013771,30.916313 0 1 1 -58.02754,0 29.013771,30.916313 0 1 1 58.02754,0 z"
       sodipodi:ry="30.916313"
       sodipodi:rx="29.013771"
       sodipodi:cy="200.24258"
       sodipodi:cx="142.69067"
       id="path4001"
       style="fill:url(#radialGradient4096);fill-opacity:1;stroke:none"
       sodipodi:type="arc" />
    <path
       inkscape:export-ydpi="90"
       inkscape:export-xdpi="90"
       inkscape:export-filename="C:\Users\Stuart\Documents\GitHub\stepdub\text3050.png"
       sodipodi:type="arc"
       style="opacity:0.95999995;fill:url(#radialGradient4098);fill-opacity:1;stroke:none"
       id="path4003"
       sodipodi:cx="142.69067"
       sodipodi:cy="200.24258"
       sodipodi:rx="29.013771"
       sodipodi:ry="30.916313"
       d="m 171.70444,200.24258 a 29.013771,30.916313 0 1 1 -58.02754,0 29.013771,30.916313 0 1 1 58.02754,0 z"
       transform="matrix(0.30707069,-0.07868704,0.08925871,0.39034936,43.040603,184.19157)" />
    <path
       inkscape:export-ydpi="90"
       inkscape:export-xdpi="90"
       inkscape:export-filename="C:\Users\Stuart\Documents\GitHub\stepdub\text3050.png"
       transform="matrix(0.15818395,-0.34572437,0.61274814,0.33336297,18.019041,357.93324)"
       d="m 173.60699,200.24258 a 30.916313,30.916313 0 1 1 -61.83263,0 30.916313,30.916313 0 1 1 61.83263,0 z"
       sodipodi:ry="30.916313"
       sodipodi:rx="30.916313"
       sodipodi:cy="200.24258"
       sodipodi:cx="142.69067"
       id="path4100"
       style="fill:url(#radialGradient4106);fill-opacity:1;stroke:none;filter:url(#filter4070)"
       sodipodi:type="arc" />
    <path
       sodipodi:type="arc"
       style="fill:url(#radialGradient4108);fill-opacity:1;stroke:none"
       id="path4102"
       sodipodi:cx="142.69067"
       sodipodi:cy="200.24258"
       sodipodi:rx="29.013771"
       sodipodi:ry="30.916313"
       d="m 171.70444,200.24258 a 29.013771,30.916313 0 1 1 -58.02754,0 29.013771,30.916313 0 1 1 58.02754,0 z"
       transform="matrix(0.11644412,-0.25449844,0.4510629,0.24539882,56.351192,362.53032)"
       inkscape:export-filename="C:\Users\Stuart\Documents\GitHub\stepdub\text3050.png"
       inkscape:export-xdpi="90"
       inkscape:export-ydpi="90" />
    <path
       transform="matrix(0.0429378,-0.09384417,0.16632568,0.09048877,123.95186,370.46021)"
       d="m 171.70444,200.24258 a 29.013771,30.916313 0 1 1 -58.02754,0 29.013771,30.916313 0 1 1 58.02754,0 z"
       sodipodi:ry="30.916313"
       sodipodi:rx="29.013771"
       sodipodi:cy="200.24258"
       sodipodi:cx="142.69067"
       id="path4104"
       style="opacity:0.95999995;fill:url(#radialGradient4110);fill-opacity:1;stroke:none"
       sodipodi:type="arc"
       inkscape:export-filename="C:\Users\Stuart\Documents\GitHub\stepdub\text3050.png"
       inkscape:export-xdpi="90"
       inkscape:export-ydpi="90" />
  </g>
  <g
     inkscape:groupmode="layer"
     id="layer10"
     inkscape:label="symbol">
    <path
       style="fill:#d4aa00;fill-opacity:1;stroke:none"
       d="m 156.32398,127.858 11.01409,11.09436 -6.01511,8.39286 27.31634,-13.71 -11.98447,20.09643 3.96149,10.87178 -9.33965,-11.94445 6.90765,-9.10088 -27.47319,13.37875 11.28262,-17.63872 z"
       id="path4125"
       inkscape:connector-curvature="0"
       sodipodi:nodetypes="ccccccccccc" />
  </g>
  <g
     inkscape:groupmode="layer"
     id="layer11"
     inkscape:label="Layer#3">
    <path
       inkscape:export-ydpi="90"
       inkscape:export-xdpi="90"
       inkscape:export-filename="C:\Users\Stuart\Documents\GitHub\stepdub\text3050.png"
       sodipodi:nodetypes="zsccczzcsczcz"
       inkscape:connector-curvature="0"
       id="path4127"
       d="m 173.17837,24.35534 c -4.6067,10.93134 -23.29589,34.31455 -28.83766,37.06877 -10.59114,5.26374 -78.633359,8.29196 -78.633359,8.29196 l 91.151259,155.27627 9.8206,-4.20883 c 0,0 21.62896,-42.25779 28.99419,-58.45601 7.36522,-16.19822 6.32039,-22.81689 15.90003,-38.34715 C 221.15307,108.4501 256,72.53907 256,72.53907 c 0,0 -35.03941,-53.84503 -43.72509,-48.16776 -13.86871,9.06509 -38.21702,34.83623 -38.21702,34.83623 0,0 20.3273,-36.08109 16.96256,-45.50169 C 187.65572,4.28525 178.1326,0 178.1326,0 c 0,0 -0.34753,13.424 -4.95423,24.35534 z"
       style="fill:url(#linearGradient4193);fill-opacity:1;stroke:none;display:inline" />
  </g>
  <g
     inkscape:groupmode="layer"
     id="layer1"
     inkscape:label="text"
     style="display:none">
    <text
       xml:space="preserve"
       style="font-size:147.40553284px;font-style:normal;font-variant:normal;font-weight:normal;font-stretch:normal;line-height:125%;letter-spacing:0px;word-spacing:0px;fill:url(#linearGradient3845);fill-opacity:1;stroke:none;font-family:Racing Sans One;-inkscape-font-specification:Racing Sans One"
       x="367.15579"
       y="330.51553"
       id="text3050"
       sodipodi:linespacing="125%"
       transform="translate(-53.529389,-152.17385)"
       inkscape:export-xdpi="90"
       inkscape:export-ydpi="90"><tspan
         sodipodi:role="line"
         id="tspan3052"
         x="367.15579"
         y="330.51553"
         style="fill:url(#linearGradient3845);fill-opacity:1">StepDub</tspan></text>
  </g>
  <g
     style="display:none"
     inkscape:label="text path"
     id="g4197"
     inkscape:groupmode="layer">
    <g
       transform="translate(-53.529389,-152.17385)"
       style="font-size:147.40553284px;font-style:normal;font-variant:normal;font-weight:normal;font-stretch:normal;line-height:125%;letter-spacing:0px;word-spacing:0px;fill:url(#linearGradient3845);fill-opacity:1;stroke:none;font-family:Racing Sans One;-inkscape-font-specification:Racing Sans One"
       id="text4199">
      <path
         d="m 425.23541,264.03729 c 0.29384,-1.47542 0.44079,-3.49073 0.44085,-6.04593 -6e-5,-1.47242 -0.0983,-2.92167 -0.29465,-4.34776 -0.19649,-1.42593 -0.54063,-2.70349 -1.0324,-3.83269 -0.49189,-1.12903 -1.22888,-2.01297 -2.21099,-2.65184 -0.98222,-0.6387 -2.26053,-0.95809 -3.83494,-0.95817 -1.76644,8e-5 -3.38664,0.39295 -4.86058,1.1786 -1.47405,0.78581 -2.77635,1.79271 -3.90692,3.02071 -1.13065,1.22816 -2.01535,2.65342 -2.65409,4.27579 -0.63882,1.62252 -0.95821,3.31694 -0.95817,5.08326 -4e-5,2.55519 0.66348,4.52102 1.99057,5.89748 1.327,1.37659 3.07165,2.5072 5.23396,3.39184 2.16221,0.88476 4.61911,1.62175 7.37072,2.21099 2.7515,0.58936 5.60128,1.27687 8.54933,2.06254 2.45609,0.68683 4.91225,1.57077 7.36847,2.65185 2.45609,1.08118 4.64234,2.53118 6.55876,4.35001 1.91626,1.81892 3.46448,4.17761 4.64466,7.07607 1.18001,2.89855 1.77006,6.51006 1.77014,10.83455 -8e-5,6.1899 -1.22891,11.39761 -3.68649,15.62315 -2.45773,4.22556 -5.84807,7.66538 -10.17101,10.31946 -4.32309,2.6541 -9.45733,4.57044 -15.40273,5.74904 -5.94551,1.17859 -12.40754,1.76789 -19.38611,1.76789 -7.07461,0 -12.84763,-0.46634 -17.31907,-1.39902 -4.47149,-0.93268 -7.98478,-1.94033 -10.5399,-3.02297 -3.04696,-1.27755 -5.30668,-2.75155 -6.77918,-4.42198 l 5.01129,-20.19359 25.94262,0 c -0.099,0.88473 -0.19721,2.08881 -0.29465,3.61226 -0.0975,1.52351 -0.14623,2.72609 -0.1462,3.60777 -3e-5,1.18161 0.14692,2.41119 0.44085,3.68874 0.29387,1.27757 0.76021,2.45692 1.39902,3.53804 0.63875,1.08114 1.54819,1.96508 2.72831,2.65184 1.18006,0.68677 2.65331,1.03015 4.41974,1.03014 1.96729,10e-6 3.71269,-0.44233 5.23621,-1.32704 1.52343,-0.88469 2.80099,-1.98981 3.83269,-3.31537 1.03159,-1.32553 1.81732,-2.79952 2.35719,-4.42198 0.53976,-1.62243 0.80967,-3.21938 0.80972,-4.79086 -5e-5,-2.16224 -0.51587,-3.98036 -1.54747,-5.45438 -1.03169,-1.47397 -2.43221,-2.72679 -4.20156,-3.75847 -1.76944,-1.03161 -3.80874,-1.91556 -6.11791,-2.65184 -2.30924,-0.73621 -4.69192,-1.4987 -7.14805,-2.28747 -2.35722,-0.68672 -4.83812,-1.52119 -7.4427,-2.50339 -2.60463,-0.98212 -4.98806,-2.3579 -7.1503,-4.12734 -2.16228,-1.76934 -3.95566,-4.00508 -5.38016,-6.7072 -1.42452,-2.70202 -2.13678,-6.16583 -2.13677,-10.39144 -10e-6,-6.28878 1.59694,-11.57072 4.79086,-15.84583 3.19389,-4.27495 7.22301,-7.73951 12.08736,-10.39369 4.86431,-2.654 10.19498,-4.5456 15.99203,-5.67481 5.79697,-1.12901 11.30008,-1.69357 16.50935,-1.69367 6.87957,10e-5 12.80104,0.81057 17.76441,2.43142 4.96322,1.62104 8.72093,3.51264 11.27314,5.67481 l -5.45213,20.49048 z"
         id="path4204"
         inkscape:connector-curvature="0" />
      <path
         d="m 460.5933,267.13223 c 3.63775,-0.78566 6.8324,-1.67036 9.58397,-2.65409 2.75154,-0.98359 5.28192,-2.21242 7.59115,-3.68649 2.30919,-1.47392 4.52018,-3.29205 6.63298,-5.45438 2.11275,-2.16218 4.39721,-4.81477 6.85341,-7.95777 l 15.1823,0 -4.27354,19.75273 11.49807,0 -1.91635,9.87412 -11.64651,0 -6.04143,28.74516 c -0.49187,2.26125 -0.88549,4.27581 -1.18085,6.04368 -0.29544,1.76791 -0.44314,3.14369 -0.4431,4.12734 -4e-5,1.96434 0.71222,3.19242 2.13677,3.68424 1.42447,0.49184 4.10255,0.73776 8.03425,0.73775 l -2.20874,10.17101 c -0.68981,0.19794 -1.74695,0.34563 -3.17142,0.4431 -1.42455,0.0975 -2.99676,0.21968 -4.71663,0.36663 -1.71995,0.14694 -3.48859,0.24516 -5.30594,0.29465 -1.81741,0.0495 -3.41436,0.0742 -4.79086,0.0742 -2.45618,0 -4.8636,-0.17169 -7.22227,-0.51507 -2.35871,-0.34339 -4.47149,-1.0309 -6.33833,-2.06255 -1.86688,-1.03164 -3.36561,-2.53038 -4.49621,-4.49621 -1.13063,-1.96582 -1.69593,-4.61916 -1.69592,-7.96002 -10e-6,-1.17858 0.0735,-2.65258 0.22042,-4.42199 0.14694,-1.76937 0.46633,-3.7352 0.95817,-5.89748 l 6.18988,-29.33446 -11.49356,0 z"
         id="path4206"
         inkscape:connector-curvature="0" />
      <path
         d="m 543.81481,300.88868 c -0.3929,2.16228 -0.6628,4.22558 -0.80972,6.18988 -0.14698,1.96435 -0.22046,3.73374 -0.22043,5.30818 -3e-5,0.88172 0.0495,1.86313 0.14845,2.94424 0.0989,1.08115 0.32011,2.0888 0.66353,3.02297 0.34335,0.93419 0.83443,1.72067 1.47324,2.35944 0.63875,0.63879 1.54744,0.95818 2.72607,0.95817 0.88466,10e-6 1.89231,-0.29464 3.02296,-0.88395 1.13058,-0.58928 2.26044,-1.4245 3.38959,-2.50564 1.12907,-1.08111 2.2102,-2.40816 3.24339,-3.98114 1.0331,-1.57294 1.84357,-3.34158 2.43142,-5.30593 l 24.17472,0 -3.83269,15.7716 c -1.96439,1.27757 -4.22411,2.3587 -6.77917,3.24339 -2.55519,0.8847 -5.25801,1.59696 -8.10848,2.13677 -2.85057,0.53981 -5.74983,0.93268 -8.69777,1.1786 -2.94803,0.24591 -5.74907,0.36887 -8.40312,0.36887 -4.91235,0 -9.48128,-0.44235 -13.70681,-1.32705 -4.22557,-0.88469 -7.91056,-2.40742 -11.05497,-4.56818 -3.14443,-2.16076 -5.62608,-5.03527 -7.44495,-8.62355 -1.81888,-3.58825 -2.72831,-8.03498 -2.72831,-13.34018 0,-4.81632 0.76173,-9.5337 2.28522,-14.15216 1.52347,-4.61837 4.07859,-8.72096 7.66537,-12.30778 3.58676,-3.58672 8.40235,-6.46123 14.4468,-8.62355 6.0444,-2.1622 13.58606,-3.24333 22.62501,-3.24339 9.82758,6e-5 17.22304,1.52354 22.1864,4.57044 4.96323,3.04701 7.44488,7.81387 7.44495,14.3006 -7e-5,2.65113 -0.39294,5.5249 -1.17859,8.6213 -0.78581,3.09647 -1.9659,5.72582 -3.54029,7.88805 z m 19.60879,-17.544 c -5e-5,-3.0469 -0.49189,-5.11019 -1.4755,-6.18988 -0.98371,-1.07957 -2.1638,-1.61939 -3.54029,-1.61944 -1.5715,5e-5 -3.02075,0.51587 -4.34776,1.54747 -1.32708,1.0317 -2.53042,2.40747 -3.61001,4.12733 -1.07967,1.71996 -2.06183,3.68504 -2.94649,5.89524 -0.88473,2.21028 -1.62248,4.54348 -2.21324,6.9996 l 16.80624,0 c 0.19488,-1.17856 0.39132,-2.40664 0.5893,-3.68424 0.19488,-1.07959 0.36657,-2.25818 0.51507,-3.53579 0.1484,-1.27752 0.22263,-2.45761 0.22268,-3.54029 z"
         id="path4208"
         inkscape:connector-curvature="0" />
      <path
         d="m 615.58323,355.27956 -30.0677,0 18.56964,-88.14733 24.03077,0 2.6496,9.43327 0.88619,0 c 3.53875,-3.73366 7.49439,-6.41174 11.86694,-8.03425 4.37245,-1.62238 8.67147,-2.4336 12.89709,-2.43366 3.43975,6e-5 6.31426,0.51664 8.62354,1.54972 2.30914,1.03321 4.152,2.43372 5.52861,4.20156 1.37645,1.76795 2.35936,3.88073 2.94874,6.33833 0.58922,2.45771 0.88387,5.06156 0.88395,7.81157 -8e-5,1.37658 -0.0983,3.44062 -0.29465,6.19213 -0.19652,2.7516 -0.63886,5.82254 -1.32705,9.21285 -0.68834,3.39037 -1.67125,6.87892 -2.94874,10.46567 -1.27764,3.58678 -2.9728,6.85416 -5.08551,9.80214 -2.11284,2.948 -4.76618,5.35542 -7.96002,7.22228 -3.19397,1.86686 -7.00266,2.80029 -11.42609,2.80029 -2.45621,0 -4.83889,-0.29465 -7.14805,-0.88395 -2.30925,-0.5893 -4.39729,-1.37503 -6.26411,-2.35719 -1.8669,-0.98216 -3.51258,-2.13676 -4.93706,-3.46381 -1.42454,-1.32704 -2.48168,-2.67883 -3.17141,-4.05537 l -0.8817,0 z m 15.62765,-37.88154 c 2.35716,2e-5 4.32223,-1.25355 5.89524,-3.76071 1.57291,-2.50712 2.85047,-5.45586 3.83268,-8.84622 0.98212,-3.39031 1.69437,-6.78065 2.13677,-10.17102 0.4423,-3.3903 0.66347,-5.92068 0.66353,-7.59115 -6e-5,-1.96428 -0.31945,-3.58522 -0.95818,-4.86283 -0.63883,-1.27752 -1.79343,-1.9163 -3.46381,-1.91635 -1.86841,5e-5 -3.6378,0.66358 -5.30818,1.99057 -1.67047,1.32709 -2.89855,2.48245 -3.68424,3.46606 l -5.74903,26.97277 c 0.78569,1.08265 1.71912,2.13978 2.80029,3.17141 1.08109,1.03166 2.3594,1.54749 3.83493,1.54747 z"
         id="path4210"
         inkscape:connector-curvature="0" />
      <path
         d="m 678.37723,330.51553 19.90118,-93.60395 39.64943,0 c 6.09385,9e-5 11.42527,0.61488 15.99427,1.84437 4.56886,1.22967 8.35206,3.26897 11.34962,6.1179 2.99738,2.84911 5.25786,6.58283 6.78143,11.20117 1.52338,4.61849 2.28512,10.26855 2.28521,16.9502 -9e-5,7.17659 -0.90878,14.20393 -2.72606,21.08203 -1.81747,6.87817 -4.83893,13.02006 -9.0644,18.42569 -4.22563,5.40566 -9.75348,9.75417 -16.58357,13.04553 -6.83022,3.29138 -15.25808,4.93706 -25.2836,4.93706 z m 40.38717,-10.31946 c 3.24485,10e-6 6.12011,-1.35103 8.6258,-4.05312 2.50559,-2.70205 4.6671,-6.14112 6.48453,-10.31721 1.81732,-4.17604 3.34079,-8.79446 4.57043,-13.85526 1.22952,-5.06072 2.21243,-9.94979 2.94874,-14.66723 0.73619,-4.71733 1.276,-8.94287 1.61945,-12.67666 0.34332,-3.73365 0.51501,-6.38774 0.51507,-7.96227 -6e-5,-3.04688 -0.6141,-5.42956 -1.84212,-7.14805 -1.22814,-1.71833 -3.36565,-2.57754 -6.41255,-2.57762 l -7.07158,0 -15.7761,73.25742 z"
         id="path4212"
         inkscape:connector-curvature="0" />
      <path
         d="m 830.95601,267.13223 30.0722,0 -13.56286,63.3833 -23.87782,0 -2.65409,-9.43327 -0.8817,0 c -2.55517,3.04697 -6.01973,5.57735 -10.39369,7.59115 -4.37403,2.01381 -8.77127,3.02072 -13.19174,3.02072 -5.89599,0 -10.51516,-1.49874 -13.8575,-4.49621 -3.34236,-2.99747 -5.01354,-6.90288 -5.01353,-11.71624 -10e-6,-2.45914 0.41835,-5.53084 1.25507,-9.21509 0.83671,-3.68422 1.59844,-7.14728 2.28521,-10.3892 l 6.18988,-28.74516 29.92376,0 -7.36848,34.4897 c -0.19796,0.78875 -0.39515,1.72368 -0.59155,2.80479 -0.19646,1.08115 -0.39289,2.13754 -0.58929,3.16916 -0.19647,1.03167 -0.36816,2.01383 -0.51508,2.94649 -0.14698,0.9327 -0.22045,1.69444 -0.22042,2.28522 -3e-5,1.47251 0.31936,2.72458 0.95817,3.75621 0.63875,1.03166 1.79335,1.54749 3.46381,1.54747 1.76936,2e-5 3.43979,-0.58928 5.01129,-1.76789 1.57142,-1.17858 2.7995,-2.30769 3.68424,-3.38734 z"
         id="path4214"
         inkscape:connector-curvature="0" />
      <path
         d="m 884.75308,330.51553 -23.88232,0 20.93133,-99.05608 30.22065,0 -9.58171,45.10605 1.03014,0 c 3.24485,-3.73366 6.90584,-6.41174 10.98299,-8.03425 4.07705,-1.62238 8.13091,-2.4336 12.16159,-2.43366 3.43975,6e-5 6.31427,0.51664 8.62355,1.54972 2.30913,1.03321 4.15125,2.43372 5.52635,4.20156 1.37495,1.76795 2.35787,3.88073 2.94874,6.33833 0.59072,2.45771 0.88612,5.06156 0.8862,7.81157 -8e-5,1.37658 -0.0991,3.44062 -0.2969,6.19213 -0.19801,2.7516 -0.64036,5.82254 -1.32704,9.21285 -0.68685,3.39037 -1.66901,6.87892 -2.94649,10.46567 -1.27764,3.58678 -2.97281,6.85416 -5.08551,9.80214 -2.11285,2.948 -4.76619,5.35542 -7.96003,7.22228 -3.19397,1.86686 -7.00266,2.80029 -11.42609,2.80029 -2.65114,0 -5.23025,-0.29465 -7.73735,-0.88395 -2.50718,-0.5893 -4.76766,-1.37503 -6.78143,-2.35719 -2.01384,-0.98216 -3.78248,-2.13676 -5.30593,-3.46381 -1.52351,-1.32704 -2.62863,-2.67883 -3.31536,-4.05537 l -1.03465,0 z m 16.6578,-13.11751 c 2.35715,2e-5 4.32222,-1.25355 5.89523,-3.76071 1.57291,-2.50712 2.85048,-5.45586 3.83269,-8.84622 0.98211,-3.39031 1.69437,-6.78065 2.13677,-10.17102 0.44229,-3.3903 0.66347,-5.92068 0.66352,-7.59115 -5e-5,-1.96428 -0.31944,-3.58522 -0.95817,-4.86283 -0.63883,-1.27752 -1.79344,-1.9163 -3.46382,-1.91635 -1.96737,5e-5 -3.78624,0.71231 -5.45663,2.13677 -1.67047,1.42456 -2.89855,2.62865 -3.68424,3.61226 l -5.74903,26.38797 c 0.68973,1.17861 1.59917,2.30848 2.72832,3.38959 1.12907,1.08114 2.48086,1.62171 4.05536,1.62169 z"
         id="path4216"
         inkscape:connector-curvature="0" />
    </g>
  </g>
</svg>
