<?xml version="1.0" encoding="UTF-8" standalone="no"?>
<!-- Created with Inkscape (http://www.inkscape.org/) -->

<svg
   xmlns:dc="http://purl.org/dc/elements/1.1/"
   xmlns:cc="http://creativecommons.org/ns#"
   xmlns:rdf="http://www.w3.org/1999/02/22-rdf-syntax-ns#"
   xmlns:svg="http://www.w3.org/2000/svg"
   xmlns="http://www.w3.org/2000/svg"
   xmlns:xlink="http://www.w3.org/1999/xlink"
   xmlns:sodipodi="http://sodipodi.sourceforge.net/DTD/sodipodi-0.dtd"
   xmlns:inkscape="http://www.inkscape.org/namespaces/inkscape"
   id="svg2"
   version="1.1"
   inkscape:version="0.48.2 r9819"
   width="256"
   height="256"
   sodipodi:docname="Combat-Boot-2174307.jpg">
  <metadata
     id="metadata8">
    <rdf:RDF>
      <cc:Work
         rdf:about="">
        <dc:format>image/svg+xml</dc:format>
        <dc:type
           rdf:resource="http://purl.org/dc/dcmitype/StillImage" />
        <dc:title></dc:title>
      </cc:Work>
    </rdf:RDF>
  </metadata>
  <defs
     id="defs6">
    <linearGradient
       id="linearGradient3860">
      <stop
         id="stop3862"
         offset="0"
         style="stop-color:#2c2ca0;stop-opacity:1;" />
      <stop
         id="stop3864"
         offset="1"
         style="stop-color:#2c2ca0;stop-opacity:0;" />
    </linearGradient>
    <linearGradient
       id="linearGradient3852">
      <stop
         style="stop-color:#19195a;stop-opacity:1;"
         offset="0"
         id="stop3854" />
      <stop
         style="stop-color:#2c2ca0;stop-opacity:1;"
         offset="1"
         id="stop3856" />
    </linearGradient>
    <linearGradient
       id="linearGradient3836">
      <stop
         style="stop-color:#987a00;stop-opacity:1;"
         offset="0"
         id="stop3838" />
      <stop
         style="stop-color:#d4aa00;stop-opacity:1;"
         offset="1"
         id="stop3840" />
    </linearGradient>
    <linearGradient
       id="linearGradient3828">
      <stop
         style="stop-color:#ffcd01;stop-opacity:1;"
         offset="0"
         id="stop3830" />
      <stop
         style="stop-color:#bc9800;stop-opacity:1;"
         offset="1"
         id="stop3832" />
    </linearGradient>
    <linearGradient
       id="linearGradient3801">
      <stop
         id="stop3803"
         offset="0"
         style="stop-color:#9f9fff;stop-opacity:0.27027026;" />
      <stop
         id="stop3805"
         offset="1"
         style="stop-color:#2c2ca0;stop-opacity:0;" />
    </linearGradient>
    <linearGradient
       id="linearGradient3783">
      <stop
         style="stop-color:#8888de;stop-opacity:1;"
         offset="0"
         id="stop3785" />
      <stop
         style="stop-color:#2c2ca0;stop-opacity:1;"
         offset="1"
         id="stop3787" />
    </linearGradient>
    <radialGradient
       inkscape:collect="always"
       xlink:href="#linearGradient3783"
       id="radialGradient3789"
       cx="168.76456"
       cy="67.555237"
       fx="168.76456"
       fy="67.555237"
       r="77.023705"
       gradientTransform="matrix(0.69448534,0.0322148,-0.01717275,0.37020942,20.45042,141.90026)"
       gradientUnits="userSpaceOnUse" />
    <radialGradient
       inkscape:collect="always"
       xlink:href="#linearGradient3801"
       id="radialGradient3799"
       cx="245.63651"
       cy="183.65649"
       fx="245.63651"
       fy="183.65649"
       r="77.023705"
       gradientTransform="matrix(1,0,0,1.4958264,0,-80.183165)"
       gradientUnits="userSpaceOnUse" />
    <radialGradient
       inkscape:collect="always"
       xlink:href="#linearGradient3828"
       id="radialGradient3834"
       cx="136.37296"
       cy="198.54213"
       fx="136.37296"
       fy="198.54213"
       r="29.013771"
       gradientTransform="matrix(-1.2370693,-0.0303833,0.08133225,-1.3766834,288.75906,475.80849)"
       gradientUnits="userSpaceOnUse" />
    <radialGradient
       inkscape:collect="always"
       xlink:href="#linearGradient3836"
       id="radialGradient3842"
       cx="146.205"
       cy="203.73564"
       fx="146.205"
       fy="203.73564"
       r="29.013771"
       gradientTransform="matrix(0.76314694,-0.01997269,0.05269321,1.0656937,24.428258,-10.255649)"
       gradientUnits="userSpaceOnUse" />
    <radialGradient
       inkscape:collect="always"
       xlink:href="#linearGradient3836"
       id="radialGradient3848"
       gradientUnits="userSpaceOnUse"
       gradientTransform="matrix(0.76314694,-0.01997269,0.05269321,1.0656937,24.428258,-10.255649)"
       cx="146.205"
       cy="203.73564"
       fx="146.205"
       fy="203.73564"
       r="29.013771" />
    <radialGradient
       inkscape:collect="always"
       xlink:href="#linearGradient3828"
       id="radialGradient3850"
       gradientUnits="userSpaceOnUse"
       gradientTransform="matrix(-1.2370693,-0.0303833,0.08133225,-1.3766834,288.75906,475.80849)"
       cx="136.37296"
       cy="198.54213"
       fx="136.37296"
       fy="198.54213"
       r="29.013771" />
    <radialGradient
       inkscape:collect="always"
       xlink:href="#linearGradient3852"
       id="radialGradient3858"
       cx="292.08038"
       cy="83.484917"
       fx="292.08038"
       fy="83.484917"
       r="136.85548"
       gradientTransform="matrix(0.23966219,0.07283095,-0.23646651,0.77813179,157.20311,82.658522)"
       gradientUnits="userSpaceOnUse" />
  </defs>
  <sodipodi:namedview
     pagecolor="#ffffff"
     bordercolor="#666666"
     borderopacity="1"
     objecttolerance="10"
     gridtolerance="10"
     guidetolerance="10"
     inkscape:pageopacity="0"
     inkscape:pageshadow="2"
     inkscape:window-width="1680"
     inkscape:window-height="987"
     id="namedview4"
     showgrid="false"
     fit-margin-top="0"
     fit-margin-left="0"
     fit-margin-right="0"
     fit-margin-bottom="0"
     inkscape:snap-page="true"
     inkscape:zoom="0.52561247"
     inkscape:cx="239.87249"
     inkscape:cy="139.89004"
     inkscape:window-x="-8"
     inkscape:window-y="-8"
     inkscape:window-maximized="1"
     inkscape:current-layer="layer2" />
  <g
     inkscape:groupmode="layer"
     id="layer2"
     inkscape:label="Layer#1"
     style="display:inline"
     transform="translate(-53.529389,-152.17385)">
    <path
       style="fill:url(#radialGradient3858);fill-opacity:1;stroke:none"
       d="m 226.70776,176.52919 c -4.6067,10.93134 -23.29589,34.31455 -28.83766,37.06877 -10.59114,5.26374 -78.63336,8.29196 -78.63336,8.29196 l 91.15126,155.27627 9.8206,-4.20883 c 0,0 21.62896,-42.25779 28.99419,-58.45601 7.36522,-16.19822 6.32039,-22.81689 15.90003,-38.34715 9.57964,-15.53025 44.42657,-51.44128 44.42657,-51.44128 0,0 -35.03941,-53.84503 -43.72509,-48.16776 -13.86871,9.06509 -34.96702,36.14873 -34.96702,36.14873 0,0 20.3273,-36.08109 16.96256,-45.50169 -3.36473,-9.4206 -16.13785,-15.01835 -16.13785,-15.01835 0,0 -0.34753,13.424 -4.95423,24.35534 z"
       id="path2990"
       inkscape:connector-curvature="0"
       sodipodi:nodetypes="zsccczzcsczcz" />
  </g>
  <g
     inkscape:groupmode="layer"
     id="layer3"
     inkscape:label="Layer#2"
     style="display:inline"
     transform="translate(-53.529389,-152.17385)">
    <path
       style="fill:url(#radialGradient3789);fill-opacity:1;stroke:none"
       d="m 100.80204,169.20504 c 0,0 14.88048,-11.40836 31.249,-12.40039 16.36852,-0.99204 25.13146,7.93625 28.7689,10.41633 3.63746,2.48007 13.55777,14.88047 17.19522,25.2968 3.63745,10.41632 3.47211,15.37649 7.60557,22.81672 4.13347,7.44024 7.2778,41.32453 9.58964,53.40435 2.03722,10.64487 21,26.29338 -14.21912,45.79879 -43.97451,24.35442 -80.18921,-145.3326 -80.18921,-145.3326 z"
       id="path2993"
       inkscape:connector-curvature="0"
       sodipodi:nodetypes="cssssssc" />
  </g>
  <g
     inkscape:groupmode="layer"
     id="layer4"
     inkscape:label="sole"
     style="display:inline"
     transform="translate(-53.529389,-152.17385)">
    <path
       style="fill:#101039;fill-opacity:1;stroke:none;display:inline"
       d="m 94.878916,305.73295 c 0,0 19.875044,16.95224 21.044174,19.05666 1.16911,2.10441 4.91029,14.67246 4.91029,14.67246 0,0 21.27799,12.15885 30.16331,12.86032 8.88531,0.70147 48.40158,7.01472 48.40158,7.01472 l -29.69566,-39.92545 c 0,0 -28.94635,-18.293 -45.54785,-19.92977 -16.60151,-1.63677 -29.275844,6.25106 -29.275844,6.25106 z"
       id="path3779"
       inkscape:connector-curvature="0"
       sodipodi:nodetypes="cscsccsc" />
    <path
       style="fill:#121240;fill-opacity:1;stroke:none"
       d="m 212.3755,386.0515 c 0,0 0.23383,-11.10664 -10.40516,-22.21327 -10.98204,-11.46476 -17.30299,-15.90004 -20.10888,-19.4074 -2.80588,-3.50736 -16.60151,-16.83533 -17.5368,-19.64122 -0.9353,-2.80589 -3.8747,-43.89383 -7.48237,-66.05529 -2.45515,-15.08165 -2.45515,-24.43462 -8.7684,-41.7376 -6.31325,-17.30297 -23.03167,-35.0736 -23.03167,-35.0736 0,0 -11.57428,-7.7162 -24.90226,-7.7162 -13.327968,0 -18.355189,3.97501 -18.355189,3.97501 0,0 11.925029,-7.71619 15.198564,-9.35296 3.273535,-1.63677 10.522085,-3.27354 10.522085,-3.27354 0,0 8.88531,0 13.79561,2.10442 4.91031,2.10442 18.70593,7.48237 25.48683,16.83533 6.7809,9.35296 14.02944,24.3177 16.36768,33.20302 2.33824,8.88531 9.35296,58.68983 9.35296,63.60014 0,4.9103 -0.23382,20.10886 0.9353,22.91475 1.16912,2.80589 2.33823,6.54708 5.8456,10.98974 3.50736,4.44265 29.69565,38.81478 31.33242,40.9192 1.63677,2.10441 8.41767,14.02945 8.41767,15.90004 0,1.87059 -0.70148,5.14412 -1.87059,7.71619 -1.16913,2.57206 -4.7934,6.31324 -4.7934,6.31324 z"
       id="path3777"
       inkscape:connector-curvature="0"
       sodipodi:nodetypes="cssssscscscsssssssssc" />
    <path
       style="fill:#1a1a60;fill-opacity:1;stroke:none"
       d="m 103.06276,173.50545 c -16.068388,-1.45196 -16.537523,1.44102 -23.382405,5.61178 -8.966438,5.46347 -14.146899,11.87301 -19.173572,23.38241 -5.96219,13.65142 -7.950018,33.90448 -6.547073,44.66039 1.402944,10.7559 7.248123,27.05411 10.755906,32.96919 11.925025,20.10886 17.770626,24.08387 23.61623,25.01917 5.845602,0.93529 34.839784,6.07943 44.192744,10.52208 9.35296,4.44266 28.52653,14.4971 28.52653,14.4971 0,0 0,-38.58098 -2.33824,-60.09279 -2.33824,-21.51181 -8.41767,-55.4163 -13.79562,-65.23691 -5.37795,-9.8206 -18.99711,-29.26699 -41.8545,-31.33242 z"
       id="path3764"
       inkscape:connector-curvature="0"
       sodipodi:nodetypes="ssssssscsss" />
    <path
       style="fill:#14144b;fill-opacity:1;stroke:none"
       d="m 64.554862,194.4327 c 0,0 11.618132,-14.14635 26.582871,-13.6787 14.964737,0.46765 23.526837,2.72047 32.735367,9.35296 8.27995,5.96367 16.36768,16.83533 17.30298,25.25299 0.93529,8.41767 12.15885,56.58542 13.09415,64.0678 0.93529,7.48236 1.87059,34.60595 3.74118,42.55597 1.87059,7.95002 3.27354,8.18385 3.27354,8.18385 0,0 3.03971,-5.37796 3.74118,-5.84561 0.70147,-0.46764 -7.48237,-69.67956 -7.48237,-69.67956 0,0 -4.88437,-31.53789 -6.31325,-37.17803 -1.3877,-5.47757 -12.51546,-24.63419 -16.25665,-28.14155 -3.74118,-3.50736 -14.98199,-13.1561 -20.01444,-14.84439 -5.20954,-1.74769 -15.637845,-2.37592 -24.055514,-1.2068 -8.417663,1.16912 -14.90663,7.40829 -19.232025,11.34046 -1.929048,1.75368 -7.117019,9.82061 -7.117019,9.82061 z"
       id="path3766"
       inkscape:connector-curvature="0"
       sodipodi:nodetypes="cssssscscsssssc" />
    <path
       style="fill:#161650;stroke:none"
       d="m 185.29066,347.92486 c 0,0 -1.83741,4.22216 -4.12379,8.89864 -2.06427,4.2222 -2.86262,9.124 -2.86262,9.124 0,0 9.69518,19.96725 11.09813,24.87756 1.40294,4.9103 12.62641,9.60663 12.62641,9.60663 l 11.86656,-16.25078 c 0,0 -4.44265,-13.6787 -12.86032,-23.3824 -4.02182,-4.63627 -15.74437,-12.87365 -15.74437,-12.87365 z"
       id="path3768"
       inkscape:connector-curvature="0"
       sodipodi:nodetypes="cscsccsc" />
    <path
       style="fill:#1a1a5e;fill-opacity:1;stroke:none"
       d="m 116.74146,326.6602 c -0.86093,7.09739 -3.09817,13.32798 -3.09817,13.32798 0,0 28.41479,19.28359 38.46923,21.50492 10.05443,2.22133 27.25225,6.11782 27.25225,6.11782 0,0 6.12097,-5.52638 6.35479,-9.85212 0.23382,-4.32574 -0.0915,-9.86316 -0.0915,-9.86316 -15.67177,-4.92449 -27.5919,-5.77173 -38.60639,-8.37512 -22.62173,-5.38965 -30.28022,-12.86032 -30.28022,-12.86032 z"
       id="path3770"
       inkscape:connector-curvature="0"
       sodipodi:nodetypes="ccscsccc" />
    <path
       style="fill:#1d1d68;fill-opacity:1;stroke:none;display:inline"
       d="m 114.42511,337.39949 c -1.40294,3.39045 -1.65865,10.77252 -0.84027,12.40929 0.81838,1.63677 10.639,17.5368 16.71842,23.03167 6.07943,5.49487 20.92725,16.95224 23.96697,18.58901 3.03971,1.63677 27.47432,14.14636 30.28021,14.84783 2.80589,0.70147 8.18384,2.10442 9.58679,1.87059 1.40294,-0.23382 4.20883,-1.63677 5.37795,-2.80589 1.16912,-1.16912 1.82804,-2.15041 2.88025,-4.83938 1.05221,-2.68898 -0.0578,-8.16858 -3.62427,-15.31548 -3.69422,-7.40299 -12.83927,-21.63359 -16.20823,-22.98567 -7.75908,-3.11399 -25.0966,-5.15731 -33.89517,-7.94516 -10.51182,-3.33068 -22.98282,-10.21247 -30.71462,-15.56591 -2.2295,-1.54368 -3.52803,-1.2909 -3.52803,-1.2909 z"
       id="path3772"
       inkscape:connector-curvature="0"
       sodipodi:nodetypes="csssssssssssc" />
  </g>
  <g
     inkscape:groupmode="layer"
     id="layer5"
     inkscape:label="cones"
     transform="translate(-53.529389,-152.17385)">
    <path
       sodipodi:type="arc"
       style="fill:url(#radialGradient3842);fill-opacity:1;stroke:none"
       id="path3824"
       sodipodi:cx="142.69067"
       sodipodi:cy="200.24258"
       sodipodi:rx="29.013771"
       sodipodi:ry="30.916313"
       d="m 171.70444,200.24258 a 29.013771,30.916313 0 1 1 -58.02754,0 29.013771,30.916313 0 1 1 58.02754,0 z"
       transform="matrix(0.9439995,-0.19730682,0.21808842,1.198548,-76.576431,39.862491)" />
    <path
       transform="matrix(0.31028708,-0.06485359,0.07168438,0.39395569,43.164744,182.0763)"
       d="m 171.70444,200.24258 a 29.013771,30.916313 0 1 1 -58.02754,0 29.013771,30.916313 0 1 1 58.02754,0 z"
       sodipodi:ry="30.916313"
       sodipodi:rx="29.013771"
       sodipodi:cy="200.24258"
       sodipodi:cx="142.69067"
       id="path3826"
       style="fill:url(#radialGradient3834);fill-opacity:1;stroke:none"
       sodipodi:type="arc" />
    <path
       transform="matrix(0.4691927,0.15606189,-0.03187319,0.26780893,102.85737,301.6702)"
       d="m 171.70444,200.24258 a 29.013771,30.916313 0 1 1 -58.02754,0 29.013771,30.916313 0 1 1 58.02754,0 z"
       sodipodi:ry="30.916313"
       sodipodi:rx="29.013771"
       sodipodi:cy="200.24258"
       sodipodi:cx="142.69067"
       id="path3844"
       style="fill:url(#radialGradient3848);fill-opacity:1;stroke:none"
       sodipodi:type="arc" />
    <path
       sodipodi:type="arc"
       style="fill:url(#radialGradient3850);fill-opacity:1;stroke:none"
       id="path3846"
       sodipodi:cx="142.69067"
       sodipodi:cy="200.24258"
       sodipodi:rx="29.013771"
       sodipodi:ry="30.916313"
       d="m 171.70444,200.24258 a 29.013771,30.916313 0 1 1 -58.02754,0 29.013771,30.916313 0 1 1 58.02754,0 z"
       transform="matrix(0.15140575,0.05691716,-0.01417514,0.07711524,145.07205,354.79503)" />
  </g>
</svg>
