<?xml version="1.0" encoding="UTF-8" standalone="no"?>
<!-- Created with Inkscape (http://www.inkscape.org/) -->

<svg
   xmlns:dc="http://purl.org/dc/elements/1.1/"
   xmlns:cc="http://creativecommons.org/ns#"
   xmlns:rdf="http://www.w3.org/1999/02/22-rdf-syntax-ns#"
   xmlns:svg="http://www.w3.org/2000/svg"
   xmlns="http://www.w3.org/2000/svg"
   xmlns:xlink="http://www.w3.org/1999/xlink"
   xmlns:sodipodi="http://sodipodi.sourceforge.net/DTD/sodipodi-0.dtd"
   xmlns:inkscape="http://www.inkscape.org/namespaces/inkscape"
   width="578.47498"
   height="123.82011"
   id="svg3204"
   version="1.1"
   inkscape:version="0.48.4 r9939"
   sodipodi:docname="New document 2">
  <defs
     id="defs3206">
    <linearGradient
       inkscape:collect="always"
       xlink:href="#linearGradient3838"
       id="linearGradient3845"
       x1="655.3631"
       y1="231.45944"
       x2="655.3631"
       y2="355.27954"
       gradientUnits="userSpaceOnUse" />
    <linearGradient
       id="linearGradient3838">
      <stop
         style="stop-color:#ffffff;stop-opacity:1;"
         offset="0"
         id="stop3841" />
      <stop
         id="stop3865"
         offset="0.33000001"
         style="stop-color:#ffffff;stop-opacity:1;" />
      <stop
         style="stop-color:#c0c0c0;stop-opacity:1;"
         offset="1"
         id="stop3843" />
    </linearGradient>
    <linearGradient
       inkscape:collect="always"
       xlink:href="#linearGradient3838"
       id="linearGradient3110"
       x1="655.3631"
       y1="231.45944"
       x2="655.3631"
       y2="355.27954"
       gradientUnits="userSpaceOnUse" />
    <linearGradient
       id="linearGradient3112">
      <stop
         style="stop-color:#ffffff;stop-opacity:1;"
         offset="0"
         id="stop3114" />
      <stop
         id="stop3116"
         offset="0.33000001"
         style="stop-color:#ffffff;stop-opacity:1;" />
      <stop
         style="stop-color:#c0c0c0;stop-opacity:1;"
         offset="1"
         id="stop3118" />
    </linearGradient>
    <linearGradient
       inkscape:collect="always"
       xlink:href="#linearGradient3838"
       id="linearGradient3120"
       x1="655.3631"
       y1="231.45944"
       x2="655.3631"
       y2="355.27954"
       gradientUnits="userSpaceOnUse" />
    <linearGradient
       id="linearGradient3122">
      <stop
         style="stop-color:#ffffff;stop-opacity:1;"
         offset="0"
         id="stop3124" />
      <stop
         id="stop3126"
         offset="0.33000001"
         style="stop-color:#ffffff;stop-opacity:1;" />
      <stop
         style="stop-color:#c0c0c0;stop-opacity:1;"
         offset="1"
         id="stop3128" />
    </linearGradient>
    <linearGradient
       inkscape:collect="always"
       xlink:href="#linearGradient3838"
       id="linearGradient3130"
       x1="655.3631"
       y1="231.45944"
       x2="655.3631"
       y2="355.27954"
       gradientUnits="userSpaceOnUse" />
    <linearGradient
       id="linearGradient3132">
      <stop
         style="stop-color:#ffffff;stop-opacity:1;"
         offset="0"
         id="stop3134" />
      <stop
         id="stop3136"
         offset="0.33000001"
         style="stop-color:#ffffff;stop-opacity:1;" />
      <stop
         style="stop-color:#c0c0c0;stop-opacity:1;"
         offset="1"
         id="stop3138" />
    </linearGradient>
    <linearGradient
       inkscape:collect="always"
       xlink:href="#linearGradient3838"
       id="linearGradient3140"
       x1="655.3631"
       y1="231.45944"
       x2="655.3631"
       y2="355.27954"
       gradientUnits="userSpaceOnUse" />
    <linearGradient
       id="linearGradient3142">
      <stop
         style="stop-color:#ffffff;stop-opacity:1;"
         offset="0"
         id="stop3144" />
      <stop
         id="stop3146"
         offset="0.33000001"
         style="stop-color:#ffffff;stop-opacity:1;" />
      <stop
         style="stop-color:#c0c0c0;stop-opacity:1;"
         offset="1"
         id="stop3148" />
    </linearGradient>
    <linearGradient
       inkscape:collect="always"
       xlink:href="#linearGradient3838"
       id="linearGradient3150"
       x1="655.3631"
       y1="231.45944"
       x2="655.3631"
       y2="355.27954"
       gradientUnits="userSpaceOnUse" />
    <linearGradient
       id="linearGradient3152">
      <stop
         style="stop-color:#ffffff;stop-opacity:1;"
         offset="0"
         id="stop3154" />
      <stop
         id="stop3156"
         offset="0.33000001"
         style="stop-color:#ffffff;stop-opacity:1;" />
      <stop
         style="stop-color:#c0c0c0;stop-opacity:1;"
         offset="1"
         id="stop3158" />
    </linearGradient>
    <linearGradient
       inkscape:collect="always"
       xlink:href="#linearGradient3838"
       id="linearGradient3160"
       x1="655.3631"
       y1="231.45944"
       x2="655.3631"
       y2="355.27954"
       gradientUnits="userSpaceOnUse" />
    <linearGradient
       id="linearGradient3162">
      <stop
         style="stop-color:#ffffff;stop-opacity:1;"
         offset="0"
         id="stop3164" />
      <stop
         id="stop3166"
         offset="0.33000001"
         style="stop-color:#ffffff;stop-opacity:1;" />
      <stop
         style="stop-color:#c0c0c0;stop-opacity:1;"
         offset="1"
         id="stop3168" />
    </linearGradient>
    <linearGradient
       inkscape:collect="always"
       xlink:href="#linearGradient3838"
       id="linearGradient3170"
       x1="655.3631"
       y1="231.45944"
       x2="655.3631"
       y2="355.27954"
       gradientUnits="userSpaceOnUse" />
    <linearGradient
       id="linearGradient3172">
      <stop
         style="stop-color:#ffffff;stop-opacity:1;"
         offset="0"
         id="stop3174" />
      <stop
         id="stop3176"
         offset="0.33000001"
         style="stop-color:#ffffff;stop-opacity:1;" />
      <stop
         style="stop-color:#c0c0c0;stop-opacity:1;"
         offset="1"
         id="stop3178" />
    </linearGradient>
    <linearGradient
       y2="355.27954"
       x2="655.3631"
       y1="231.45944"
       x1="655.3631"
       gradientUnits="userSpaceOnUse"
       id="linearGradient3188"
       xlink:href="#linearGradient3838"
       inkscape:collect="always" />
    <linearGradient
       y2="355.27954"
       x2="655.3631"
       y1="231.45944"
       x1="655.3631"
       gradientUnits="userSpaceOnUse"
       id="linearGradient3190"
       xlink:href="#linearGradient3838"
       inkscape:collect="always" />
    <linearGradient
       y2="355.27954"
       x2="655.3631"
       y1="231.45944"
       x1="655.3631"
       gradientUnits="userSpaceOnUse"
       id="linearGradient3192"
       xlink:href="#linearGradient3838"
       inkscape:collect="always" />
    <linearGradient
       y2="355.27954"
       x2="655.3631"
       y1="231.45944"
       x1="655.3631"
       gradientUnits="userSpaceOnUse"
       id="linearGradient3194"
       xlink:href="#linearGradient3838"
       inkscape:collect="always" />
    <linearGradient
       y2="355.27954"
       x2="655.3631"
       y1="231.45944"
       x1="655.3631"
       gradientUnits="userSpaceOnUse"
       id="linearGradient3196"
       xlink:href="#linearGradient3838"
       inkscape:collect="always" />
    <linearGradient
       y2="355.27954"
       x2="655.3631"
       y1="231.45944"
       x1="655.3631"
       gradientUnits="userSpaceOnUse"
       id="linearGradient3198"
       xlink:href="#linearGradient3838"
       inkscape:collect="always" />
    <linearGradient
       y2="355.27954"
       x2="655.3631"
       y1="231.45944"
       x1="655.3631"
       gradientUnits="userSpaceOnUse"
       id="linearGradient3200"
       xlink:href="#linearGradient3838"
       inkscape:collect="always" />
    <linearGradient
       y2="355.27954"
       x2="655.3631"
       y1="231.45944"
       x1="655.3631"
       gradientUnits="userSpaceOnUse"
       id="linearGradient3202"
       xlink:href="#linearGradient3838"
       inkscape:collect="always" />
  </defs>
  <sodipodi:namedview
     id="base"
     pagecolor="#ffffff"
     bordercolor="#666666"
     borderopacity="1.0"
     inkscape:pageopacity="0.0"
     inkscape:pageshadow="2"
     inkscape:zoom="0.35"
     inkscape:cx="312.8089"
     inkscape:cy="61.910057"
     inkscape:document-units="px"
     inkscape:current-layer="layer1"
     showgrid="false"
     fit-margin-top="0"
     fit-margin-left="0"
     fit-margin-right="0"
     fit-margin-bottom="0"
     inkscape:window-width="1366"
     inkscape:window-height="680"
     inkscape:window-x="0"
     inkscape:window-y="31"
     inkscape:window-maximized="1" />
  <metadata
     id="metadata3209">
    <rdf:RDF>
      <cc:Work
         rdf:about="">
        <dc:format>image/svg+xml</dc:format>
        <dc:type
           rdf:resource="http://purl.org/dc/dcmitype/StillImage" />
        <dc:title></dc:title>
      </cc:Work>
    </rdf:RDF>
  </metadata>
  <g
     inkscape:label="Layer 1"
     inkscape:groupmode="layer"
     id="layer1"
     transform="translate(-62.1911,-470.45213)">
    <g
       transform="translate(-303.93454,238.99268)"
       style="font-size:147.40553284px;font-style:normal;font-variant:normal;font-weight:normal;font-stretch:normal;line-height:125%;letter-spacing:0px;word-spacing:0px;fill:url(#linearGradient3202);fill-opacity:1;stroke:none;display:inline;font-family:Racing Sans One;-inkscape-font-specification:Racing Sans One"
       id="text4199">
      <path
         style="fill:url(#linearGradient3188)"
         d="m 425.23541,264.03729 c 0.29384,-1.47542 0.44079,-3.49073 0.44085,-6.04593 -6e-5,-1.47242 -0.0983,-2.92167 -0.29465,-4.34776 -0.19649,-1.42593 -0.54063,-2.70349 -1.0324,-3.83269 -0.49189,-1.12903 -1.22888,-2.01297 -2.21099,-2.65184 -0.98222,-0.6387 -2.26053,-0.95809 -3.83494,-0.95817 -1.76644,8e-5 -3.38664,0.39295 -4.86058,1.1786 -1.47405,0.78581 -2.77635,1.79271 -3.90692,3.02071 -1.13065,1.22816 -2.01535,2.65342 -2.65409,4.27579 -0.63882,1.62252 -0.95821,3.31694 -0.95817,5.08326 -4e-5,2.55519 0.66348,4.52102 1.99057,5.89748 1.327,1.37659 3.07165,2.5072 5.23396,3.39184 2.16221,0.88476 4.61911,1.62175 7.37072,2.21099 2.7515,0.58936 5.60128,1.27687 8.54933,2.06254 2.45609,0.68683 4.91225,1.57077 7.36847,2.65185 2.45609,1.08118 4.64234,2.53118 6.55876,4.35001 1.91626,1.81892 3.46448,4.17761 4.64466,7.07607 1.18001,2.89855 1.77006,6.51006 1.77014,10.83455 -8e-5,6.1899 -1.22891,11.39761 -3.68649,15.62315 -2.45773,4.22556 -5.84807,7.66538 -10.17101,10.31946 -4.32309,2.6541 -9.45733,4.57044 -15.40273,5.74904 -5.94551,1.17859 -12.40754,1.76789 -19.38611,1.76789 -7.07461,0 -12.84763,-0.46634 -17.31907,-1.39902 -4.47149,-0.93268 -7.98478,-1.94033 -10.5399,-3.02297 -3.04696,-1.27755 -5.30668,-2.75155 -6.77918,-4.42198 l 5.01129,-20.19359 25.94262,0 c -0.099,0.88473 -0.19721,2.08881 -0.29465,3.61226 -0.0975,1.52351 -0.14623,2.72609 -0.1462,3.60777 -3e-5,1.18161 0.14692,2.41119 0.44085,3.68874 0.29387,1.27757 0.76021,2.45692 1.39902,3.53804 0.63875,1.08114 1.54819,1.96508 2.72831,2.65184 1.18006,0.68677 2.65331,1.03015 4.41974,1.03014 1.96729,10e-6 3.71269,-0.44233 5.23621,-1.32704 1.52343,-0.88469 2.80099,-1.98981 3.83269,-3.31537 1.03159,-1.32553 1.81732,-2.79952 2.35719,-4.42198 0.53976,-1.62243 0.80967,-3.21938 0.80972,-4.79086 -5e-5,-2.16224 -0.51587,-3.98036 -1.54747,-5.45438 -1.03169,-1.47397 -2.43221,-2.72679 -4.20156,-3.75847 -1.76944,-1.03161 -3.80874,-1.91556 -6.11791,-2.65184 -2.30924,-0.73621 -4.69192,-1.4987 -7.14805,-2.28747 -2.35722,-0.68672 -4.83812,-1.52119 -7.4427,-2.50339 -2.60463,-0.98212 -4.98806,-2.3579 -7.1503,-4.12734 -2.16228,-1.76934 -3.95566,-4.00508 -5.38016,-6.7072 -1.42452,-2.70202 -2.13678,-6.16583 -2.13677,-10.39144 -10e-6,-6.28878 1.59694,-11.57072 4.79086,-15.84583 3.19389,-4.27495 7.22301,-7.73951 12.08736,-10.39369 4.86431,-2.654 10.19498,-4.5456 15.99203,-5.67481 5.79697,-1.12901 11.30008,-1.69357 16.50935,-1.69367 6.87957,10e-5 12.80104,0.81057 17.76441,2.43142 4.96322,1.62104 8.72093,3.51264 11.27314,5.67481 l -5.45213,20.49048 z"
         id="path4204"
         inkscape:connector-curvature="0" />
      <path
         style="fill:url(#linearGradient3190)"
         d="m 460.5933,267.13223 c 3.63775,-0.78566 6.8324,-1.67036 9.58397,-2.65409 2.75154,-0.98359 5.28192,-2.21242 7.59115,-3.68649 2.30919,-1.47392 4.52018,-3.29205 6.63298,-5.45438 2.11275,-2.16218 4.39721,-4.81477 6.85341,-7.95777 l 15.1823,0 -4.27354,19.75273 11.49807,0 -1.91635,9.87412 -11.64651,0 -6.04143,28.74516 c -0.49187,2.26125 -0.88549,4.27581 -1.18085,6.04368 -0.29544,1.76791 -0.44314,3.14369 -0.4431,4.12734 -4e-5,1.96434 0.71222,3.19242 2.13677,3.68424 1.42447,0.49184 4.10255,0.73776 8.03425,0.73775 l -2.20874,10.17101 c -0.68981,0.19794 -1.74695,0.34563 -3.17142,0.4431 -1.42455,0.0975 -2.99676,0.21968 -4.71663,0.36663 -1.71995,0.14694 -3.48859,0.24516 -5.30594,0.29465 -1.81741,0.0495 -3.41436,0.0742 -4.79086,0.0742 -2.45618,0 -4.8636,-0.17169 -7.22227,-0.51507 -2.35871,-0.34339 -4.47149,-1.0309 -6.33833,-2.06255 -1.86688,-1.03164 -3.36561,-2.53038 -4.49621,-4.49621 -1.13063,-1.96582 -1.69593,-4.61916 -1.69592,-7.96002 -10e-6,-1.17858 0.0735,-2.65258 0.22042,-4.42199 0.14694,-1.76937 0.46633,-3.7352 0.95817,-5.89748 l 6.18988,-29.33446 -11.49356,0 z"
         id="path4206"
         inkscape:connector-curvature="0" />
      <path
         style="fill:url(#linearGradient3192)"
         d="m 543.81481,300.88868 c -0.3929,2.16228 -0.6628,4.22558 -0.80972,6.18988 -0.14698,1.96435 -0.22046,3.73374 -0.22043,5.30818 -3e-5,0.88172 0.0495,1.86313 0.14845,2.94424 0.0989,1.08115 0.32011,2.0888 0.66353,3.02297 0.34335,0.93419 0.83443,1.72067 1.47324,2.35944 0.63875,0.63879 1.54744,0.95818 2.72607,0.95817 0.88466,10e-6 1.89231,-0.29464 3.02296,-0.88395 1.13058,-0.58928 2.26044,-1.4245 3.38959,-2.50564 1.12907,-1.08111 2.2102,-2.40816 3.24339,-3.98114 1.0331,-1.57294 1.84357,-3.34158 2.43142,-5.30593 l 24.17472,0 -3.83269,15.7716 c -1.96439,1.27757 -4.22411,2.3587 -6.77917,3.24339 -2.55519,0.8847 -5.25801,1.59696 -8.10848,2.13677 -2.85057,0.53981 -5.74983,0.93268 -8.69777,1.1786 -2.94803,0.24591 -5.74907,0.36887 -8.40312,0.36887 -4.91235,0 -9.48128,-0.44235 -13.70681,-1.32705 -4.22557,-0.88469 -7.91056,-2.40742 -11.05497,-4.56818 -3.14443,-2.16076 -5.62608,-5.03527 -7.44495,-8.62355 -1.81888,-3.58825 -2.72831,-8.03498 -2.72831,-13.34018 0,-4.81632 0.76173,-9.5337 2.28522,-14.15216 1.52347,-4.61837 4.07859,-8.72096 7.66537,-12.30778 3.58676,-3.58672 8.40235,-6.46123 14.4468,-8.62355 6.0444,-2.1622 13.58606,-3.24333 22.62501,-3.24339 9.82758,6e-5 17.22304,1.52354 22.1864,4.57044 4.96323,3.04701 7.44488,7.81387 7.44495,14.3006 -7e-5,2.65113 -0.39294,5.5249 -1.17859,8.6213 -0.78581,3.09647 -1.9659,5.72582 -3.54029,7.88805 z m 19.60879,-17.544 c -5e-5,-3.0469 -0.49189,-5.11019 -1.4755,-6.18988 -0.98371,-1.07957 -2.1638,-1.61939 -3.54029,-1.61944 -1.5715,5e-5 -3.02075,0.51587 -4.34776,1.54747 -1.32708,1.0317 -2.53042,2.40747 -3.61001,4.12733 -1.07967,1.71996 -2.06183,3.68504 -2.94649,5.89524 -0.88473,2.21028 -1.62248,4.54348 -2.21324,6.9996 l 16.80624,0 c 0.19488,-1.17856 0.39132,-2.40664 0.5893,-3.68424 0.19488,-1.07959 0.36657,-2.25818 0.51507,-3.53579 0.1484,-1.27752 0.22263,-2.45761 0.22268,-3.54029 z"
         id="path4208"
         inkscape:connector-curvature="0" />
      <path
         style="fill:url(#linearGradient3194)"
         d="m 615.58323,355.27956 -30.0677,0 18.56964,-88.14733 24.03077,0 2.6496,9.43327 0.88619,0 c 3.53875,-3.73366 7.49439,-6.41174 11.86694,-8.03425 4.37245,-1.62238 8.67147,-2.4336 12.89709,-2.43366 3.43975,6e-5 6.31426,0.51664 8.62354,1.54972 2.30914,1.03321 4.152,2.43372 5.52861,4.20156 1.37645,1.76795 2.35936,3.88073 2.94874,6.33833 0.58922,2.45771 0.88387,5.06156 0.88395,7.81157 -8e-5,1.37658 -0.0983,3.44062 -0.29465,6.19213 -0.19652,2.7516 -0.63886,5.82254 -1.32705,9.21285 -0.68834,3.39037 -1.67125,6.87892 -2.94874,10.46567 -1.27764,3.58678 -2.9728,6.85416 -5.08551,9.80214 -2.11284,2.948 -4.76618,5.35542 -7.96002,7.22228 -3.19397,1.86686 -7.00266,2.80029 -11.42609,2.80029 -2.45621,0 -4.83889,-0.29465 -7.14805,-0.88395 -2.30925,-0.5893 -4.39729,-1.37503 -6.26411,-2.35719 -1.8669,-0.98216 -3.51258,-2.13676 -4.93706,-3.46381 -1.42454,-1.32704 -2.48168,-2.67883 -3.17141,-4.05537 l -0.8817,0 z m 15.62765,-37.88154 c 2.35716,2e-5 4.32223,-1.25355 5.89524,-3.76071 1.57291,-2.50712 2.85047,-5.45586 3.83268,-8.84622 0.98212,-3.39031 1.69437,-6.78065 2.13677,-10.17102 0.4423,-3.3903 0.66347,-5.92068 0.66353,-7.59115 -6e-5,-1.96428 -0.31945,-3.58522 -0.95818,-4.86283 -0.63883,-1.27752 -1.79343,-1.9163 -3.46381,-1.91635 -1.86841,5e-5 -3.6378,0.66358 -5.30818,1.99057 -1.67047,1.32709 -2.89855,2.48245 -3.68424,3.46606 l -5.74903,26.97277 c 0.78569,1.08265 1.71912,2.13978 2.80029,3.17141 1.08109,1.03166 2.3594,1.54749 3.83493,1.54747 z"
         id="path4210"
         inkscape:connector-curvature="0" />
      <path
         style="fill:url(#linearGradient3196)"
         d="m 678.37723,330.51553 19.90118,-93.60395 39.64943,0 c 6.09385,9e-5 11.42527,0.61488 15.99427,1.84437 4.56886,1.22967 8.35206,3.26897 11.34962,6.1179 2.99738,2.84911 5.25786,6.58283 6.78143,11.20117 1.52338,4.61849 2.28512,10.26855 2.28521,16.9502 -9e-5,7.17659 -0.90878,14.20393 -2.72606,21.08203 -1.81747,6.87817 -4.83893,13.02006 -9.0644,18.42569 -4.22563,5.40566 -9.75348,9.75417 -16.58357,13.04553 -6.83022,3.29138 -15.25808,4.93706 -25.2836,4.93706 z m 40.38717,-10.31946 c 3.24485,10e-6 6.12011,-1.35103 8.6258,-4.05312 2.50559,-2.70205 4.6671,-6.14112 6.48453,-10.31721 1.81732,-4.17604 3.34079,-8.79446 4.57043,-13.85526 1.22952,-5.06072 2.21243,-9.94979 2.94874,-14.66723 0.73619,-4.71733 1.276,-8.94287 1.61945,-12.67666 0.34332,-3.73365 0.51501,-6.38774 0.51507,-7.96227 -6e-5,-3.04688 -0.6141,-5.42956 -1.84212,-7.14805 -1.22814,-1.71833 -3.36565,-2.57754 -6.41255,-2.57762 l -7.07158,0 -15.7761,73.25742 z"
         id="path4212"
         inkscape:connector-curvature="0" />
      <path
         style="fill:url(#linearGradient3198)"
         d="m 830.95601,267.13223 30.0722,0 -13.56286,63.3833 -23.87782,0 -2.65409,-9.43327 -0.8817,0 c -2.55517,3.04697 -6.01973,5.57735 -10.39369,7.59115 -4.37403,2.01381 -8.77127,3.02072 -13.19174,3.02072 -5.89599,0 -10.51516,-1.49874 -13.8575,-4.49621 -3.34236,-2.99747 -5.01354,-6.90288 -5.01353,-11.71624 -10e-6,-2.45914 0.41835,-5.53084 1.25507,-9.21509 0.83671,-3.68422 1.59844,-7.14728 2.28521,-10.3892 l 6.18988,-28.74516 29.92376,0 -7.36848,34.4897 c -0.19796,0.78875 -0.39515,1.72368 -0.59155,2.80479 -0.19646,1.08115 -0.39289,2.13754 -0.58929,3.16916 -0.19647,1.03167 -0.36816,2.01383 -0.51508,2.94649 -0.14698,0.9327 -0.22045,1.69444 -0.22042,2.28522 -3e-5,1.47251 0.31936,2.72458 0.95817,3.75621 0.63875,1.03166 1.79335,1.54749 3.46381,1.54747 1.76936,2e-5 3.43979,-0.58928 5.01129,-1.76789 1.57142,-1.17858 2.7995,-2.30769 3.68424,-3.38734 z"
         id="path4214"
         inkscape:connector-curvature="0" />
      <path
         style="fill:url(#linearGradient3200)"
         d="m 884.75308,330.51553 -23.88232,0 20.93133,-99.05608 30.22065,0 -9.58171,45.10605 1.03014,0 c 3.24485,-3.73366 6.90584,-6.41174 10.98299,-8.03425 4.07705,-1.62238 8.13091,-2.4336 12.16159,-2.43366 3.43975,6e-5 6.31427,0.51664 8.62355,1.54972 2.30913,1.03321 4.15125,2.43372 5.52635,4.20156 1.37495,1.76795 2.35787,3.88073 2.94874,6.33833 0.59072,2.45771 0.88612,5.06156 0.8862,7.81157 -8e-5,1.37658 -0.0991,3.44062 -0.2969,6.19213 -0.19801,2.7516 -0.64036,5.82254 -1.32704,9.21285 -0.68685,3.39037 -1.66901,6.87892 -2.94649,10.46567 -1.27764,3.58678 -2.97281,6.85416 -5.08551,9.80214 -2.11285,2.948 -4.76619,5.35542 -7.96003,7.22228 -3.19397,1.86686 -7.00266,2.80029 -11.42609,2.80029 -2.65114,0 -5.23025,-0.29465 -7.73735,-0.88395 -2.50718,-0.5893 -4.76766,-1.37503 -6.78143,-2.35719 -2.01384,-0.98216 -3.78248,-2.13676 -5.30593,-3.46381 -1.52351,-1.32704 -2.62863,-2.67883 -3.31536,-4.05537 l -1.03465,0 z m 16.6578,-13.11751 c 2.35715,2e-5 4.32222,-1.25355 5.89523,-3.76071 1.57291,-2.50712 2.85048,-5.45586 3.83269,-8.84622 0.98211,-3.39031 1.69437,-6.78065 2.13677,-10.17102 0.44229,-3.3903 0.66347,-5.92068 0.66352,-7.59115 -5e-5,-1.96428 -0.31944,-3.58522 -0.95817,-4.86283 -0.63883,-1.27752 -1.79344,-1.9163 -3.46382,-1.91635 -1.96737,5e-5 -3.78624,0.71231 -5.45663,2.13677 -1.67047,1.42456 -2.89855,2.62865 -3.68424,3.61226 l -5.74903,26.38797 c 0.68973,1.17861 1.59917,2.30848 2.72832,3.38959 1.12907,1.08114 2.48086,1.62171 4.05536,1.62169 z"
         id="path4216"
         inkscape:connector-curvature="0" />
    </g>
  </g>
</svg>
