<?xml version="1.0" encoding="UTF-8" standalone="no"?>
<!-- Created with Inkscape (http://www.inkscape.org/) -->

<svg
   xmlns:dc="http://purl.org/dc/elements/1.1/"
   xmlns:cc="http://creativecommons.org/ns#"
   xmlns:rdf="http://www.w3.org/1999/02/22-rdf-syntax-ns#"
   xmlns:svg="http://www.w3.org/2000/svg"
   xmlns="http://www.w3.org/2000/svg"
   xmlns:xlink="http://www.w3.org/1999/xlink"
   xmlns:sodipodi="http://sodipodi.sourceforge.net/DTD/sodipodi-0.dtd"
   xmlns:inkscape="http://www.inkscape.org/namespaces/inkscape"
   width="64px"
   height="64px"
   id="svg2985"
   version="1.1"
   inkscape:version="0.48.4 r9939"
   sodipodi:docname="New document 2">
  <defs
     id="defs2987">
    <linearGradient
       id="linearGradient3802">
      <stop
         style="stop-color:#803300;stop-opacity:1;"
         offset="0"
         id="stop3804" />
      <stop
         style="stop-color:#612700;stop-opacity:1;"
         offset="1"
         id="stop3806" />
    </linearGradient>
    <linearGradient
       id="linearGradient3776">
      <stop
         style="stop-color:#ffe6d5;stop-opacity:1;"
         offset="0"
         id="stop3778" />
      <stop
         style="stop-color:#c7b3a6;stop-opacity:1;"
         offset="1"
         id="stop3780" />
    </linearGradient>
    <radialGradient
       inkscape:collect="always"
       xlink:href="#linearGradient3776"
       id="radialGradient3782"
       cx="43.906559"
       cy="5.818182"
       fx="43.906559"
       fy="5.818182"
       r="10.909091"
       gradientUnits="userSpaceOnUse" />
    <radialGradient
       inkscape:collect="always"
       xlink:href="#linearGradient3776"
       id="radialGradient3800"
       gradientUnits="userSpaceOnUse"
       cx="43.906559"
       cy="5.818182"
       fx="43.906559"
       fy="5.818182"
       r="10.909091" />
    <radialGradient
       inkscape:collect="always"
       xlink:href="#linearGradient3802"
       id="radialGradient3808"
       cx="11.20437"
       cy="46.389874"
       fx="11.20437"
       fy="46.389874"
       r="22.840734"
       gradientTransform="matrix(1.4624247,0.01215948,-0.01285379,1.5459319,-4.5848908,-24.993247)"
       gradientUnits="userSpaceOnUse" />
    <linearGradient
       inkscape:collect="always"
       xlink:href="#linearGradient3776"
       id="linearGradient3816"
       x1="35.098225"
       y1="6.089025"
       x2="81.759567"
       y2="6.089025"
       gradientUnits="userSpaceOnUse" />
  </defs>
  <sodipodi:namedview
     id="base"
     pagecolor="#ffffff"
     bordercolor="#666666"
     borderopacity="1.0"
     inkscape:pageopacity="0.0"
     inkscape:pageshadow="2"
     inkscape:zoom="5.5"
     inkscape:cx="35.55938"
     inkscape:cy="36.264915"
     inkscape:current-layer="layer1"
     showgrid="true"
     inkscape:document-units="px"
     inkscape:grid-bbox="true"
     inkscape:window-width="1366"
     inkscape:window-height="675"
     inkscape:window-x="0"
     inkscape:window-y="31"
     inkscape:window-maximized="1" />
  <metadata
     id="metadata2990">
    <rdf:RDF>
      <cc:Work
         rdf:about="">
        <dc:format>image/svg+xml</dc:format>
        <dc:type
           rdf:resource="http://purl.org/dc/dcmitype/StillImage" />
        <dc:title></dc:title>
      </cc:Work>
    </rdf:RDF>
  </metadata>
  <g
     inkscape:groupmode="layer"
     id="layer2"
     inkscape:label="lowhoof" />
  <g
     id="layer1"
     inkscape:label="Layer 1"
     inkscape:groupmode="layer">
    <path
       d="m 44.181818,34.090908 a 18.454546,18.454546 0 1 1 -36.9090919,0 18.454546,18.454546 0 1 1 36.9090919,0 z"
       sodipodi:ry="18.454546"
       sodipodi:rx="18.454546"
       sodipodi:cy="34.090908"
       sodipodi:cx="25.727272"
       id="path2995"
       style="fill:#552200;fill-opacity:1;stroke:none"
       sodipodi:type="arc"
       transform="matrix(1.1394668,0,0,1.3043634,13.656284,-20.395498)" />
    <path
       sodipodi:type="arc"
       style="fill:url(#linearGradient3816);fill-opacity:1;stroke:none"
       id="path3004"
       sodipodi:cx="41.272728"
       sodipodi:cy="5.818182"
       sodipodi:rx="10.909091"
       sodipodi:ry="10.909091"
       d="m 52.181819,5.818182 a 10.909091,10.909091 0 1 1 -21.818182,0 10.909091,10.909091 0 1 1 21.818182,0 z"
       transform="matrix(1.7593157,0,0,2.013913,-30.007774,12.354121)" />
    <path
       transform="matrix(1.402335,0,0,1.6052721,-15.819657,14.731668)"
       d="m 52.181819,5.818182 a 10.909091,10.909091 0 1 1 -21.818182,0 10.909091,10.909091 0 1 1 21.818182,0 z"
       sodipodi:ry="10.909091"
       sodipodi:rx="10.909091"
       sodipodi:cy="5.818182"
       sodipodi:cx="41.272728"
       id="path3006"
       style="fill:url(#radialGradient3800);fill-opacity:1;stroke:none"
       sodipodi:type="arc" />
    <path
       style="fill:url(#radialGradient3808);fill-opacity:1;stroke:none"
       d="M 28.712819,63.687741 C 23.073227,64.904652 9.1438848,62.939594 2.8281126,51.053386 -3.4876587,39.167178 1.1301244,24.465215 13.142219,18.215634 c 6.474751,-3.368647 7.288116,-2.88972 12.984852,-3.043938 0,0 8.892009,3.274061 15.590057,15.457967 6.698049,12.183907 2.881796,23.894216 2.881796,23.894216 -1.71864,4.04888 -9.897377,7.871615 -15.886105,9.163862 z"
       id="path2993"
       inkscape:connector-curvature="0"
       sodipodi:nodetypes="sssczcs" />
    <path
       sodipodi:type="arc"
       style="fill:#552200;fill-opacity:1;stroke:none"
       id="path2998"
       sodipodi:cx="17.09091"
       sodipodi:cy="40.909092"
       sodipodi:rx="2.7272727"
       sodipodi:ry="2.7272727"
       d="m 19.818183,40.909092 a 2.7272727,2.7272727 0 1 1 -5.454546,0 2.7272727,2.7272727 0 1 1 5.454546,0 z"
       transform="matrix(0.53675094,0.36239576,-0.33886517,0.57402261,14.246331,13.315878)" />
    <path
       transform="matrix(0.68536233,0.46273308,-0.43268751,0.73295347,14.288555,11.249526)"
       d="m 19.818183,40.909092 a 2.7272727,2.7272727 0 1 1 -5.454546,0 2.7272727,2.7272727 0 1 1 5.454546,0 z"
       sodipodi:ry="2.7272727"
       sodipodi:rx="2.7272727"
       sodipodi:cy="40.909092"
       sodipodi:cx="17.09091"
       id="path3000"
       style="fill:#552200;fill-opacity:1;stroke:none"
       sodipodi:type="arc" />
    <path
       sodipodi:type="arc"
       style="fill:#552200;fill-opacity:1;stroke:none"
       id="path3002"
       sodipodi:cx="17.09091"
       sodipodi:cy="40.909092"
       sodipodi:rx="2.7272727"
       sodipodi:ry="2.7272727"
       d="m 19.818183,40.909092 a 2.7272727,2.7272727 0 1 1 -5.454546,0 2.7272727,2.7272727 0 1 1 5.454546,0 z"
       transform="matrix(0.63640788,0.42968072,-0.40178126,0.68059967,10.199437,9.0877735)" />
  </g>
  <g
     inkscape:groupmode="layer"
     id="layer3"
     inkscape:label="highhoof" />
</svg>
