<?xml version="1.0" encoding="UTF-8" standalone="no"?>
<!-- Created with Inkscape (http://www.inkscape.org/) -->

<svg
   xmlns:dc="http://purl.org/dc/elements/1.1/"
   xmlns:cc="http://creativecommons.org/ns#"
   xmlns:rdf="http://www.w3.org/1999/02/22-rdf-syntax-ns#"
   xmlns:svg="http://www.w3.org/2000/svg"
   xmlns="http://www.w3.org/2000/svg"
   xmlns:xlink="http://www.w3.org/1999/xlink"
   xmlns:sodipodi="http://sodipodi.sourceforge.net/DTD/sodipodi-0.dtd"
   xmlns:inkscape="http://www.inkscape.org/namespaces/inkscape"
   width="64"
   height="64"
   id="svg3756"
   version="1.1"
   inkscape:version="0.48.2 r9819"
   sodipodi:docname="ninja.svg">
  <defs
     id="defs3758">
    <linearGradient
       id="linearGradient3875">
      <stop
         style="stop-color:#000000;stop-opacity:0;"
         offset="0"
         id="stop3877" />
      <stop
         id="stop3879"
         offset="0.26660067"
         style="stop-color:#000000;stop-opacity:0;" />
      <stop
         id="stop3881"
         offset="0.3339622"
         style="stop-color:#000000;stop-opacity:0.23423423;" />
      <stop
         style="stop-color:#000000;stop-opacity:0;"
         offset="0.36197853"
         id="stop3883" />
      <stop
         style="stop-color:#000000;stop-opacity:0;"
         offset="1"
         id="stop3885" />
    </linearGradient>
    <linearGradient
       id="linearGradient3863">
      <stop
         style="stop-color:#000000;stop-opacity:0;"
         offset="0"
         id="stop3865" />
      <stop
         id="stop3867"
         offset="0.30545893"
         style="stop-color:#000000;stop-opacity:0;" />
      <stop
         id="stop3869"
         offset="0.3339622"
         style="stop-color:#000000;stop-opacity:0.23529412;" />
      <stop
         style="stop-color:#000000;stop-opacity:0;"
         offset="0.41609013"
         id="stop3871" />
      <stop
         style="stop-color:#000000;stop-opacity:0;"
         offset="1"
         id="stop3873" />
    </linearGradient>
    <linearGradient
       id="linearGradient3827">
      <stop
         id="stop3829"
         offset="0"
         style="stop-color:#000000;stop-opacity:0;" />
      <stop
         style="stop-color:#000000;stop-opacity:0;"
         offset="0.30545893"
         id="stop3839" />
      <stop
         style="stop-color:#000000;stop-opacity:0.56756759;"
         offset="0.3339622"
         id="stop3831" />
      <stop
         id="stop3837"
         offset="0.45001775"
         style="stop-color:#000000;stop-opacity:0;" />
      <stop
         id="stop3833"
         offset="1"
         style="stop-color:#000000;stop-opacity:0;" />
    </linearGradient>
    <linearGradient
       id="linearGradient3809">
      <stop
         style="stop-color:#514c39;stop-opacity:1;"
         offset="0"
         id="stop3811" />
      <stop
         id="stop3817"
         offset="0.33540958"
         style="stop-color:#777053;stop-opacity:1;" />
      <stop
         style="stop-color:#5e5842;stop-opacity:1;"
         offset="1"
         id="stop3813" />
    </linearGradient>
    <linearGradient
       id="linearGradient3797">
      <stop
         style="stop-color:#c80000;stop-opacity:1;"
         offset="0"
         id="stop3799" />
      <stop
         id="stop3807"
         offset="0.5"
         style="stop-color:#c80000;stop-opacity:1;" />
      <stop
         style="stop-color:#ac0000;stop-opacity:1;"
         offset="1"
         id="stop3801" />
    </linearGradient>
    <linearGradient
       id="linearGradient3787">
      <stop
         style="stop-color:#c80000;stop-opacity:1;"
         offset="0"
         id="stop3789" />
      <stop
         id="stop3795"
         offset="0.5"
         style="stop-color:#a00000;stop-opacity:1;" />
      <stop
         style="stop-color:#c80000;stop-opacity:1;"
         offset="1"
         id="stop3791" />
    </linearGradient>
    <linearGradient
       id="linearGradient3775">
      <stop
         style="stop-color:#000000;stop-opacity:1;"
         offset="0"
         id="stop3777" />
      <stop
         id="stop3783"
         offset="0.5"
         style="stop-color:#252525;stop-opacity:1;" />
      <stop
         style="stop-color:#141414;stop-opacity:1;"
         offset="0.75"
         id="stop3785" />
      <stop
         style="stop-color:#000000;stop-opacity:1;"
         offset="1"
         id="stop3779" />
    </linearGradient>
    <inkscape:perspective
       sodipodi:type="inkscape:persp3d"
       inkscape:vp_x="0 : 526.18109 : 1"
       inkscape:vp_y="0 : 1000 : 0"
       inkscape:vp_z="744.09448 : 526.18109 : 1"
       inkscape:persp3d-origin="372.04724 : 350.78739 : 1"
       id="perspective3764" />
    <inkscape:perspective
       id="perspective3774"
       inkscape:persp3d-origin="0.5 : 0.33333333 : 1"
       inkscape:vp_z="1 : 0.5 : 1"
       inkscape:vp_y="0 : 1000 : 0"
       inkscape:vp_x="0 : 0.5 : 1"
       sodipodi:type="inkscape:persp3d" />
    <radialGradient
       inkscape:collect="always"
       xlink:href="#linearGradient3775"
       id="radialGradient3781"
       cx="-154.46321"
       cy="1257.601"
       fx="-154.46321"
       fy="1257.601"
       r="75.282066"
       gradientTransform="matrix(-0.82432454,-0.41999427,-0.15390392,0.38766513,-72.695147,741.41006)"
       gradientUnits="userSpaceOnUse" />
    <linearGradient
       inkscape:collect="always"
       xlink:href="#linearGradient3787"
       id="linearGradient3793"
       x1="-146.34842"
       y1="1216.1176"
       x2="-136.46062"
       y2="1270.1606"
       gradientUnits="userSpaceOnUse"
       gradientTransform="matrix(-0.42506805,0,0,0.48154245,-206.49205,685.35957)" />
    <linearGradient
       inkscape:collect="always"
       xlink:href="#linearGradient3797"
       id="linearGradient3803"
       x1="82.682838"
       y1="408.06229"
       x2="115.80357"
       y2="438.95514"
       gradientUnits="userSpaceOnUse"
       gradientTransform="matrix(-0.42506805,0,0,0.48154245,-125.81477,1097.1453)" />
    <linearGradient
       inkscape:collect="always"
       xlink:href="#linearGradient3797"
       id="linearGradient3805"
       x1="-125.71072"
       y1="1270.6788"
       x2="-120.80177"
       y2="1316.2145"
       gradientUnits="userSpaceOnUse"
       gradientTransform="matrix(-0.42506805,0,0,0.48154245,-206.49205,685.35957)" />
    <linearGradient
       inkscape:collect="always"
       xlink:href="#linearGradient3809"
       id="linearGradient3815"
       x1="80.317535"
       y1="377.45178"
       x2="130.64929"
       y2="366.91605"
       gradientUnits="userSpaceOnUse"
       gradientTransform="matrix(-0.42506805,0,0,0.48154245,-125.81477,1097.1453)" />
    <radialGradient
       inkscape:collect="always"
       xlink:href="#linearGradient3863"
       id="radialGradient3841"
       cx="99.015884"
       cy="372.841"
       fx="99.015884"
       fy="372.841"
       r="25.612307"
       gradientTransform="matrix(5.3950526,-1.2656733,0.49783775,2.1220812,-601.97827,-282.90706)"
       gradientUnits="userSpaceOnUse" />
    <radialGradient
       inkscape:collect="always"
       xlink:href="#linearGradient3827"
       id="radialGradient3847"
       gradientUnits="userSpaceOnUse"
       gradientTransform="matrix(5.3950526,-1.2656733,0.49783775,2.1220812,-601.97827,-282.90706)"
       cx="97.58847"
       cy="364.98413"
       fx="97.58847"
       fy="364.98413"
       r="25.612307" />
    <radialGradient
       inkscape:collect="always"
       xlink:href="#linearGradient3875"
       id="radialGradient3861"
       gradientUnits="userSpaceOnUse"
       gradientTransform="matrix(5.3831017,-1.3155749,0.58847498,2.4079371,-633.89315,-382.3701)"
       cx="98.752922"
       cy="364.95288"
       fx="98.752922"
       fy="364.95288"
       r="25.612307" />
    <radialGradient
       inkscape:collect="always"
       xlink:href="#linearGradient3863"
       id="radialGradient3889"
       gradientUnits="userSpaceOnUse"
       gradientTransform="matrix(-2.2932645,-0.60947544,-0.21161492,1.0218722,130.06696,960.91357)"
       cx="99.787407"
       cy="373.80606"
       fx="99.787407"
       fy="373.80606"
       r="25.612307" />
    <radialGradient
       inkscape:collect="always"
       xlink:href="#linearGradient3875"
       id="radialGradient3891"
       gradientUnits="userSpaceOnUse"
       gradientTransform="matrix(5.2151923,-1.873577,0.8324983,2.3172999,-706.62464,-294.46476)"
       cx="97.630898"
       cy="364.78186"
       fx="97.630898"
       fy="364.78186"
       r="25.612307" />
    <radialGradient
       inkscape:collect="always"
       xlink:href="#linearGradient3875"
       id="radialGradient3895"
       gradientUnits="userSpaceOnUse"
       gradientTransform="matrix(-2.2168116,-0.90220689,-0.35386843,1.1158782,174.54879,955.34805)"
       cx="97.630898"
       cy="364.78186"
       fx="97.630898"
       fy="364.78186"
       r="25.612307" />
  </defs>
  <sodipodi:namedview
     id="base"
     pagecolor="#ffffff"
     bordercolor="#666666"
     borderopacity="1.0"
     inkscape:pageopacity="0.0"
     inkscape:pageshadow="2"
     inkscape:zoom="5.6"
     inkscape:cx="37.678026"
     inkscape:cy="44.110439"
     inkscape:document-units="px"
     inkscape:current-layer="layer1"
     showgrid="false"
     inkscape:window-width="1680"
     inkscape:window-height="987"
     inkscape:window-x="-8"
     inkscape:window-y="-8"
     inkscape:window-maximized="1"
     fit-margin-top="0"
     fit-margin-left="0"
     fit-margin-right="0"
     fit-margin-bottom="0" />
  <g
     inkscape:label="Layer 1"
     inkscape:groupmode="layer"
     id="layer1"
     transform="translate(189.80991,-1257.9203)">
    <path
       style="fill:url(#radialGradient3781);fill-opacity:1;stroke:none"
       d="m -155.30717,1259.9877 c 1.05404,7.3364 -1.77299,8.4085 -3.97739,11.5089 -1.68793,1.2913 -2.77515,6.9821 -2.77515,6.9821 l -0.84225,11.7953 c 0,0 15.10677,13.4251 23.98978,18.9155 3.17856,1.9647 11.83549,4.1383 11.83549,4.1383 0.48746,2.5676 3.05755,4.3402 -0.91655,8.5925 -12.27814,-0.8327 -19.8355,-0.814 -29.90088,-3.9275 -9.66351,-2.9893 -19.29684,-11.8976 -31.73399,-16.0264 0.21759,-3.2275 -1.30483,-4.4645 1.83311,-11.0002 0,0 4.36183,-1.0045 5.76498,-2.7538 3.66825,-6.2496 4.85146,-13.3807 2.88629,-20.4634 -1.11996,-3.6255 -0.8012,-5.9365 -0.76229,-9.8287 0,0 15.68914,3.5267 24.59885,2.0674 z"
       id="path2996"
       inkscape:connector-curvature="0"
       sodipodi:nodetypes="ccccsccscccccc" />
    <path
       style="fill:url(#linearGradient3815);fill-opacity:1;stroke:none"
       d="m -162.47689,1290.4416 c 0,0 -6.54632,0.4051 -10.24886,0.2124 -3.45783,-0.18 -9.38291,-2.7344 -9.38291,-2.7344 0,0 1.37662,-3.6263 2.36338,-10.6774 0.98677,-7.0512 -0.26948,-12.2119 -0.26948,-12.2119 0,0 4.92699,1.4711 11.38957,4.0858 4.70759,1.9047 9.73268,2.1645 9.73268,2.1645 0,0 -2.53738,5.1248 -3.06225,10.3371 -0.53896,5.3522 -0.52213,8.8239 -0.52213,8.8239 z"
       id="path2998"
       inkscape:connector-curvature="0"
       sodipodi:nodetypes="cscscscsc" />
    <path
       style="fill:url(#linearGradient3803);fill-opacity:1;stroke:none"
       d="m -179.97299,1306.8226 c 0,0 22.27812,-7.0082 23.64441,-9.9318 1.36629,-2.9237 1.06267,-4.1275 1.06267,-4.1275 0,0 3.33982,6.0193 -0.15181,9.9748 -3.49163,3.9555 -17.15453,8.298 -17.15453,8.298 0,0 -1.3663,-0.387 -4.25068,-2.2788 -2.88439,-1.8917 -3.15006,-1.9347 -3.15006,-1.9347 z"
       id="path3000"
       inkscape:connector-curvature="0"
       sodipodi:nodetypes="cscscsc" />
    <path
       inkscape:connector-curvature="0"
       id="path3002"
       d="m -151.43589,1319.8462 c 0,0 1.69135,-9.4155 0.39588,-17.3802 -0.50526,-3.1065 -2.99199,-6.2673 -2.99199,-6.2673 -1.92658,-1.511 1.26297,3.8042 1.0983,8.4629 -0.18082,5.1156 -4.03109,14.2154 -4.03109,14.2154 0,0 0.62413,0.1258 2.9421,0.6412 2.31792,0.5153 2.5868,0.328 2.5868,0.328 z"
       style="fill:url(#linearGradient3805);fill-opacity:1;stroke:none"
       sodipodi:nodetypes="cscscsc" />
    <path
       sodipodi:nodetypes="cscscscsc"
       inkscape:connector-curvature="0"
       id="path3825"
       d="m -162.47689,1290.4416 c 0,0 -6.54632,0.4051 -10.24886,0.2124 -3.45783,-0.18 -9.38291,-2.7344 -9.38291,-2.7344 0,0 1.37662,-3.6263 2.36338,-10.6774 0.98677,-7.0512 -0.26948,-12.2119 -0.26948,-12.2119 0,0 4.92699,1.2131 11.38957,3.8278 4.70759,1.9047 8.29048,4.4002 8.29048,4.4002 0,0 -1.09518,3.1471 -1.62005,8.3594 -0.53896,5.3522 -0.52213,8.8239 -0.52213,8.8239 z"
       style="fill:url(#radialGradient3889);fill-opacity:1;stroke:none" />
    <path
       style="fill:url(#linearGradient3793);fill-opacity:1;stroke:none"
       d="m -166.30642,1271.1949 c 1.15726,2.8003 8.61279,6.5863 9.83534,9.3102 1.25732,3.0503 2.84545,6.2852 1.52482,9.6767 -1.43692,3.3294 1.33776,7.8618 2.1329,6.2555 0.72005,-1.1904 9.12283,-0.423 10.36173,-1.0293 1.52562,-0.7467 3.17475,-1.9216 3.56975,-3.546 0.5371,-1.2971 0.0318,-5.0903 -0.0724,-6.9778 0.1999,-3.9083 8.4326,-2.2343 7.72311,-13.7027 -0.55387,-0.098 -3.80451,-1.1612 -4.03155,-0.7079 0.79016,5.737 -3.23161,8.2107 -5.86078,10.1205 -1.88943,0.9506 -0.38735,5.352 -0.13591,7.0853 0.0985,1.6154 -0.67269,3.2034 -1.78222,4.5664 -0.94332,1.5197 -9.45307,0.8237 -10.1779,2.238 -1.08136,1.7455 0.10989,-1.472 1.92959,-5.2515 1.23594,-2.8874 0.18212,-5.9932 -0.86767,-8.7749 -0.93682,-2.4823 -4.81161,-6.4772 -6.37751,-8.5056 -0.74034,-1.5745 -1.56887,-2.465 -3.2949,-2.6925 -0.45444,-0.1656 -4.02203,2.101 -4.47642,1.9356 z"
       id="path3004"
       inkscape:connector-curvature="0"
       sodipodi:nodetypes="ccccscccccccccsccc" />
    <path
       style="fill:url(#radialGradient3895);fill-opacity:1;stroke:none"
       d="m -162.47689,1290.4416 c 0,0 -6.54632,0.4051 -10.24886,0.2124 -3.45783,-0.18 -9.38291,-2.7344 -9.38291,-2.7344 0,0 1.37662,-3.6263 2.36338,-10.6774 0.98677,-7.0512 -0.26948,-12.2119 -0.26948,-12.2119 0,0 4.54747,1.2131 11.01004,3.8278 4.7076,1.9047 8.67001,4.4002 8.67001,4.4002 0,0 -1.09518,3.1471 -1.62005,8.3594 -0.53896,5.3522 -0.52213,8.8239 -0.52213,8.8239 z"
       id="path3843"
       inkscape:connector-curvature="0"
       sodipodi:nodetypes="cscscscsc" />
  </g>
  <metadata
     id="metadata11">
    <rdf:RDF>
      <cc:Work>
        <dc:format>image/svg+xml</dc:format>
        <dc:type
           rdf:resource="http://purl.org/dc/dcmitype/StillImage" />
        <cc:license
           rdf:resource="http://creativecommons.org/licenses/publicdomain/" />
        <dc:publisher>
          <cc:Agent
             rdf:about="http://openclipart.org/">
            <dc:title>Open Clip Art Library</dc:title>
          </cc:Agent>
        </dc:publisher>
        <dc:title />
        <dc:date>2011-02-14T23:42:39</dc:date>
        <dc:description>Black silhouette of a ninja.</dc:description>
        <dc:source>http://openclipart.org/detail/118357/ninja-hiding-by-rones</dc:source>
        <dc:creator>
          <cc:Agent>
            <dc:title>rones</dc:title>
          </cc:Agent>
        </dc:creator>
        <dc:subject>
          <rdf:Bag>
            <rdf:li>ninja</rdf:li>
            <rdf:li>Japan</rdf:li>
            <rdf:li>comic</rdf:li>
            <rdf:li>silhouette</rdf:li>
          </rdf:Bag>
        </dc:subject>
      </cc:Work>
      <cc:License
         rdf:about="http://creativecommons.org/licenses/publicdomain/">
        <cc:permits
           rdf:resource="http://creativecommons.org/ns#Reproduction" />
        <cc:permits
           rdf:resource="http://creativecommons.org/ns#Distribution" />
        <cc:permits
           rdf:resource="http://creativecommons.org/ns#DerivativeWorks" />
      </cc:License>
    </rdf:RDF>
  </metadata>
</svg>
