<?xml version="1.0" encoding="UTF-8" standalone="no"?>
<svg
   xmlns:dc="http://purl.org/dc/elements/1.1/"
   xmlns:cc="http://creativecommons.org/ns#"
   xmlns:rdf="http://www.w3.org/1999/02/22-rdf-syntax-ns#"
   xmlns:svg="http://www.w3.org/2000/svg"
   xmlns="http://www.w3.org/2000/svg"
   xmlns:xlink="http://www.w3.org/1999/xlink"
   xmlns:sodipodi="http://sodipodi.sourceforge.net/DTD/sodipodi-0.dtd"
   xmlns:inkscape="http://www.inkscape.org/namespaces/inkscape"
   version="1.0"
   width="1085"
   height="1085"
   id="boot"
   inkscape:version="0.48.2 r9819"
   sodipodi:docname="brown_boot.svg">
  <metadata
     id="metadata19">
    <rdf:RDF>
      <cc:Work
         rdf:about="">
        <dc:format>image/svg+xml</dc:format>
        <dc:type
           rdf:resource="http://purl.org/dc/dcmitype/StillImage" />
        <dc:title></dc:title>
      </cc:Work>
    </rdf:RDF>
  </metadata>
  <sodipodi:namedview
     pagecolor="#ffffff"
     bordercolor="#666666"
     borderopacity="1"
     objecttolerance="10"
     gridtolerance="10"
     guidetolerance="10"
     inkscape:pageopacity="0"
     inkscape:pageshadow="2"
     inkscape:window-width="1680"
     inkscape:window-height="987"
     id="namedview17"
     showgrid="false"
     inkscape:snap-page="true"
     inkscape:snap-bbox="true"
     inkscape:snap-nodes="false"
     inkscape:zoom="0.32"
     inkscape:cx="682.79369"
     inkscape:cy="453.76691"
     inkscape:window-x="-8"
     inkscape:window-y="-8"
     inkscape:window-maximized="1"
     inkscape:current-layer="layer2" />
  <defs
     id="defs"><inkscape:path-effect
   effect="spiro"
   id="path-effect3855"
   is_visible="true" />
<radialGradient
   gradientTransform="matrix(-2.4889301,0.07329308,-0.06253963,-2.1237604,1128.9899,1854.4383)"
   gradientUnits="userSpaceOnUse"
   id="radialGradient3820"
   r="532.45599"
   cy="838.79797"
   cx="89.437302">
  <stop
     id="stop3824"
     offset="0"
     style="stop-color:#5ba347;stop-opacity:1;" />
  <stop
     id="stop3826"
     offset="1"
     style="stop-color:#3e7031;stop-opacity:1;" />
</radialGradient>
<radialGradient
   gradientTransform="matrix(-2.4889301,0.07329308,-0.06253963,-2.1237604,1128.9899,1854.4383)"
   gradientUnits="userSpaceOnUse"
   id="radialGradient3792"
   r="532.45599"
   cy="838.79797"
   cx="89.437302">
  <stop
     id="stop3794"
     offset="0"
     style="stop-color:#43a12a;stop-opacity:1;" />
  <stop
     id="stop3796"
     offset="0.5"
     style="stop-color:#50c132;stop-opacity:1;" />
  <stop
     id="stop3798"
     offset="1"
     style="stop-color:#2a661b;stop-opacity:1;" />
</radialGradient>
<radialGradient
   cx="89.437302"
   cy="838.79797"
   r="532.45599"
   id="radialGradient01"
   gradientUnits="userSpaceOnUse"
   gradientTransform="matrix(-2.4889301,0.07329308,-0.06253963,-2.1237604,1128.9899,1854.4383)">
  <stop
     style="stop-color:#1e1e1e;stop-opacity:1;"
     offset="0"
     id="stop5" />
  <stop
     style="stop-color:#757575;stop-opacity:1;"
     offset="0.5"
     id="stop7" />
  <stop
     style="stop-color:#000000;stop-opacity:1;"
     offset="1"
     id="stop9" />
</radialGradient>
<radialGradient
   inkscape:collect="always"
   xlink:href="#radialGradient01"
   id="radialGradient3790"
   cx="450.28143"
   cy="636.3512"
   fx="450.28143"
   fy="636.3512"
   r="469.47491"
   gradientTransform="matrix(-2.0362129,-0.03955745,0.02151084,-1.1072667,1345.5761,1460.2659)"
   gradientUnits="userSpaceOnUse" />
<radialGradient
   inkscape:collect="always"
   xlink:href="#radialGradient3792"
   id="radialGradient3800"
   gradientUnits="userSpaceOnUse"
   gradientTransform="matrix(-2.5216315,0.0742561,-0.06336132,-2.151665,1129.7629,1864.7452)"
   cx="89.437302"
   cy="838.79797"
   r="532.45599" />
<radialGradient
   inkscape:collect="always"
   xlink:href="#radialGradient3820"
   id="radialGradient3828"
   cx="738.99255"
   cy="490.85895"
   fx="738.99255"
   fy="490.85895"
   r="542.7749"
   gradientTransform="matrix(-1.3736175,0.05895091,-0.01843008,-0.42943891,1743.8912,858.90434)"
   gradientUnits="userSpaceOnUse" />
<inkscape:perspective
   sodipodi:type="inkscape:persp3d"
   inkscape:vp_x="0 : 526.18109 : 1"
   inkscape:vp_y="0 : 1000 : 0"
   inkscape:vp_z="744.09448 : 526.18109 : 1"
   inkscape:persp3d-origin="372.04724 : 350.78739 : 1"
   id="perspective3441" />
<inkscape:perspective
   id="perspective3395"
   inkscape:persp3d-origin="372.04724 : 350.78739 : 1"
   inkscape:vp_z="744.09448 : 526.18109 : 1"
   inkscape:vp_y="0 : 1000 : 0"
   inkscape:vp_x="0 : 526.18109 : 1"
   sodipodi:type="inkscape:persp3d" />

	
	
</defs>
  <path
     style="fill:none;stroke:url(#radialGradient3790);stroke-width:30;stroke-linecap:round;stroke-linejoin:round;stroke-miterlimit:4;stroke-opacity:1;stroke-dasharray:none"
     d="m 78.132067,747.11586 c 0,0 288.787473,-66.19324 393.589373,-43.08913 104.80191,23.10408 534.29976,-39.51847 521.68057,53.90953 C 973.60359,904.51609 111.58258,940.61343 80.460999,796.4431 67.269153,735.33195 410.07914,743.31092 467.06358,742.53353 549.5254,741.40858 997.9881,736.19223 986.41521,826.19523 968.32117,966.91344 74.242179,999.12355 75.803137,868.79885 76.658746,797.36388 399.36678,787.30659 464.73463,788.74171 539.02704,790.37278 999.16705,813.31332 981.75735,892.94037 953.08809,1024.0651 107.46987,1062.0696 73.474202,932.50046 55.050528,862.28151 403.12407,855.09609 469.3925,857.81579 c 65.45979,2.68651 525.15828,50.60897 507.70699,113.84029 -22.34646,80.96802 -801.15231,161.07992 -901.296354,25.0224"
     id="path3782"
     inkscape:connector-curvature="0"
     sodipodi:nodetypes="csssssssssssc" />
  <path
     d="M 7.2496568,656.71771 C -5.8079793,724.1867 1.382469,786.41473 5.7615586,809.6065 15.52623,861.3224 238.14823,845.01167 319.80316,836.01144 c 14.9976,-10.95588 9.33281,-33.87562 10.25803,-50.467 106.27927,-0.88301 135.25808,-18.61461 254.61393,50.30875 170.09586,34.44765 379.74871,6.46973 495.76528,-95.50661 8.2073,-7.33132 4.8669,-76.7456 -0.8352,-93.09159 -356.3401,5.45857 -716.0155,4.02025 -1072.3566576,9.46248 z"
     id="path11"
     inkscape:connector-curvature="0"
     style="fill:url(#radialGradient3828);fill-opacity:1;stroke:none" />
  <path
     d="M 44.998092,49.09757 C 10.323013,107.7948 59.881404,332.99641 17.498568,464.48466 -12.042126,556.13122 5.8415966,685.98021 14.60393,703.29577 c 56.704767,60.9768 339.26673,-17.32255 567.3577,40.52557 276.211,70.0524 471.66977,-72.19721 487.75437,-94.07717 C 1072.6975,537.79836 1049.8605,462.1584 869.98279,473.16818 766.59198,479.49647 559.74653,327.28018 535.647,295.14543 456.19504,189.20145 517.24962,43.081448 421.3072,1.3350444 335.77337,0.9952071 99.288145,-2.9649213 44.998092,49.097266 z"
     style="fill:url(#radialGradient3800);fill-opacity:1;stroke:none"
     id="path13"
     inkscape:connector-curvature="0" />
  <g
     inkscape:groupmode="layer"
     id="layer1"
     inkscape:label="shoe" />
  <g
     inkscape:groupmode="layer"
     id="layer2"
     inkscape:label="emblem">
    <path
       style="fill:#ffffff;fill-opacity:0.63529412;fill-rule:evenodd"
       d="m 300.92591,352.96315 c -0.45876,15.38352 -3.35581,28.0236 -2.39032,43.27414 0.9337,14.74838 3.61487,27.32738 7.86639,29.01642 -2.45486,0.3723 -4.83529,0.81133 -7.09323,1.38292 -9.50354,-15.67772 -15.01287,-65.62335 -31.62957,-67.36116 -5.34652,24.76395 -6.79832,72.01671 17.84461,76.32777 -1.18895,2.19922 -1.91113,4.87542 -2.00752,8.16363 -0.25082,1.05281 -0.39449,2.04168 -0.44611,2.98888 -4.11551,1.09966 -14.12315,5.2132 -17.12589,6.63693 -5.53197,2.62295 -6.15856,4.69083 -15.05685,8.37211 -12.76183,5.27964 -14.84842,4.67638 -22.96889,9.0544 -8.98009,4.84147 -4.39412,5.30642 -16.44423,12.54967 0,0 -2.61336,-2.89222 -2.75024,-10.84873 -0.14005,-8.143 -3.5393,-3.15271 -9.91736,-5.46616 -0.5171,-0.18757 -1.76315,-4.0787 -5.5844,-3.22344 -3.3283,0.74493 -4.6282,3.41969 -5.0159,3.5623 -0.38769,0.14261 -2.60907,-3.71141 -7.64666,-0.93031 -5.19297,2.86687 -0.56239,4.67922 -2.84934,8.29028 -1.12009,1.76861 -4.33257,0.38569 -6.04777,2.59249 -3.39803,4.37196 1.42803,5.79651 1.01533,14.5356 -0.44655,9.45558 12.5344,17.41682 21.99347,14.94435 -2.83657,7.28037 -1.75305,17.32333 -1.78446,23.77715 -2.95221,-3.20621 -6.38123,-5.92921 -11.42054,-7.04838 -5.26916,2.6509 -5.25381,10.55901 -8.78847,14.94436 -2.64672,-9.67574 -6.52613,-18.13344 -21.14586,-15.83656 -4.3498,3.81861 -4.3805,5.40459 -5.26416,12.31236 0.94242,8.80915 -6.90955,25.88886 -7.94085,29.04113 -4.939,15.09653 -22.11215,27.0952 -18.29639,40.97368 2.02457,7.36361 11.18975,8.31819 16.72933,3.47959 7.4867,-8.37335 16.78291,-18.26188 22.11212,-29.83682 3.86695,-8.39897 4.36624,-18.96477 6.75719,-24.29682 0.98502,2.53385 6.45047,0.60063 7.04862,3.5242 -2.84372,5.1462 0.94391,13.09876 -2.67669,20.25295 -3.46618,6.84904 -8.02152,13.69206 -12.31279,20.25295 -4.32467,6.61197 -8.93211,13.32131 -8.78846,18.46855 0.27982,10.0259 15.99287,12.06893 23.77794,5.26399 7.13981,-6.24092 15.08302,-20.80113 17.57693,-28.14893 1.89042,-5.56974 1.22876,-14.13603 1.73985,-20.25296 0.30976,-3.70727 2.4632,-7.53753 2.4632,-7.53753 11.36177,8.52607 52.18076,-16.66704 58.29769,-29.39958 2.09211,-4.3548 0.66774,-8.73535 3.52431,-10.57257 0,0 1.39593,0.11104 15.52999,-2.61148 12.57502,-2.42221 7.2898,9.05554 7.2898,9.05554 -1.13348,6.78787 3.98506,12.30523 7.94085,13.20457 25.11226,0.1772 45.52491,-18.15118 67.46192,-22.35716 3.67572,0.8886 5.16999,2.72635 7.85227,4.04648 6.41949,-0.88098 11.58648,-6.10734 12.68199,-12.9888 1.27003,-7.95715 -6.0382,-11.44648 -11.52218,-13.97416 1.67244,-1.87334 5.38184,0.92483 6.51528,-2.18359 1.43957,-5.66168 -3.78763,-8.94471 -7.27624,-10.38711 -10.49114,-4.34479 -25.62868,0.54653 -31.88784,2.91984 -6.25918,2.37333 -6.32833,4.73144 -9.51894,3.89063 -1.22315,-5.32112 -2.80457,-10.27987 -4.77344,-14.85515 17.05836,-1.7518 23.70055,0.64209 29.06441,-8.97769 11.43054,-21.5727 -9.40518,-42.90132 -27.503,-45.62492 7.26132,-10.67143 4.71006,-31.79089 -0.31228,-48.49111 -2.6582,-8.83901 -7.19157,-16.47694 -16.89662,-23.88874 z"
       id="path4211"
       inkscape:connector-curvature="0"
       sodipodi:nodetypes="csccccccssscssssssssccccccsscsccsssssscscscccccccczccccsc" />
    <path
       style="fill:none;stroke:#ffffff;stroke-width:4.99999952;stroke-linecap:butt;stroke-linejoin:miter;stroke-miterlimit:4;stroke-opacity:0.63529412;stroke-dasharray:none"
       d="m 59.564562,659.9302 c 0,0 21.440669,0.13316 32.900656,10.31948 3.395552,-9.33747 8.023942,-27.21733 23.647392,-46.7411"
       id="path4214"
       inkscape:connector-curvature="0"
       sodipodi:nodetypes="ccc" />
    <path
       sodipodi:nodetypes="ccc"
       inkscape:connector-curvature="0"
       id="path4216"
       d="m 68.653696,679.59231 c 0,0 18.251091,-4.66873 32.682184,14.00619 4.24444,-20.37265 5.94222,-30.55895 29.71109,-56.87361"
       style="fill:none;stroke:#ffffff;stroke-width:4.99999952;stroke-linecap:butt;stroke-linejoin:miter;stroke-miterlimit:4;stroke-opacity:0.63529412;stroke-dasharray:none" />
  </g>
</svg>
