<?xml version="1.0" encoding="UTF-8" standalone="no"?>
<!-- Created with Inkscape (http://www.inkscape.org/) -->

<svg
   xmlns:dc="http://purl.org/dc/elements/1.1/"
   xmlns:cc="http://creativecommons.org/ns#"
   xmlns:rdf="http://www.w3.org/1999/02/22-rdf-syntax-ns#"
   xmlns:svg="http://www.w3.org/2000/svg"
   xmlns="http://www.w3.org/2000/svg"
   xmlns:xlink="http://www.w3.org/1999/xlink"
   xmlns:sodipodi="http://sodipodi.sourceforge.net/DTD/sodipodi-0.dtd"
   xmlns:inkscape="http://www.inkscape.org/namespaces/inkscape"
   width="64px"
   height="64px"
   id="svg2985"
   version="1.1"
   inkscape:version="0.48.4 r9939"
   sodipodi:docname="steamplatform.svg">
  <defs
     id="defs2987">
    <linearGradient
       id="linearGradient4031">
      <stop
         id="stop4033"
         offset="0"
         style="stop-color:#3d2400;stop-opacity:1;" />
      <stop
         style="stop-color:#714200;stop-opacity:1;"
         offset="0.75019133"
         id="stop4035" />
      <stop
         style="stop-color:#a66200;stop-opacity:1;"
         offset="0.88667816"
         id="stop4037" />
      <stop
         id="stop4039"
         offset="1"
         style="stop-color:#4d2d00;stop-opacity:1;" />
    </linearGradient>
    <linearGradient
       id="linearGradient4015">
      <stop
         id="stop4017"
         offset="0"
         style="stop-color:#3d2400;stop-opacity:1;" />
      <stop
         style="stop-color:#a66200;stop-opacity:1;"
         offset="0.79629117"
         id="stop4019" />
      <stop
         id="stop4021"
         offset="1"
         style="stop-color:#4d2d00;stop-opacity:1;" />
    </linearGradient>
    <linearGradient
       id="linearGradient3994">
      <stop
         style="stop-color:#3d2c00;stop-opacity:1;"
         offset="0"
         id="stop3996" />
      <stop
         id="stop4027"
         offset="0.75019133"
         style="stop-color:#715200;stop-opacity:1;" />
      <stop
         id="stop4002"
         offset="0.86560535"
         style="stop-color:#a67800;stop-opacity:1;" />
      <stop
         style="stop-color:#4d3800;stop-opacity:1;"
         offset="1"
         id="stop3998" />
    </linearGradient>
    <linearGradient
       id="linearGradient3946">
      <stop
         id="stop3948"
         offset="0"
         style="stop-color:#47140b;stop-opacity:1;" />
      <stop
         style="stop-color:#400800;stop-opacity:1;"
         offset="0.39070809"
         id="stop3950" />
      <stop
         id="stop3952"
         offset="0.53814209"
         style="stop-color:#3c0800;stop-opacity:1;" />
      <stop
         id="stop3954"
         offset="1"
         style="stop-color:#260500;stop-opacity:1;" />
    </linearGradient>
    <linearGradient
       id="linearGradient3851">
      <stop
         style="stop-color:#e6e6e6;stop-opacity:1;"
         offset="0"
         id="stop3853" />
      <stop
         style="stop-color:#bababa;stop-opacity:1;"
         offset="1"
         id="stop3855" />
    </linearGradient>
    <linearGradient
       id="linearGradient3835">
      <stop
         style="stop-color:#1f0500;stop-opacity:1;"
         offset="0"
         id="stop3837" />
      <stop
         id="stop3845"
         offset="0.39070809"
         style="stop-color:#360700;stop-opacity:1;" />
      <stop
         style="stop-color:#4f0b00;stop-opacity:1;"
         offset="0.53814209"
         id="stop3847" />
      <stop
         style="stop-color:#380700;stop-opacity:1;"
         offset="1"
         id="stop3839" />
    </linearGradient>
    <radialGradient
       inkscape:collect="always"
       xlink:href="#linearGradient3835"
       id="radialGradient3841"
       cx="36.764889"
       cy="35.098949"
       fx="36.764889"
       fy="35.098949"
       r="30.085322"
       gradientTransform="matrix(-1.4304617,-0.45538016,0.27703468,-1.4864537,101.10801,87.505425)"
       gradientUnits="userSpaceOnUse" />
    <radialGradient
       inkscape:collect="always"
       xlink:href="#linearGradient3946"
       id="radialGradient3944"
       gradientUnits="userSpaceOnUse"
       gradientTransform="matrix(-0.60571556,0.07235581,-0.1961623,-1.1857175,90.537657,55.666319)"
       cx="57.08704"
       cy="33.97784"
       fx="57.08704"
       fy="33.97784"
       r="30.085321" />
    <linearGradient
       inkscape:collect="always"
       xlink:href="#linearGradient4031"
       id="linearGradient4013"
       gradientUnits="userSpaceOnUse"
       x1="-3.107784"
       y1="31.397648"
       x2="15.910122"
       y2="31.397648"
       gradientTransform="matrix(1.0060573,0,0,0.99549485,-0.30576605,0.01695711)" />
    <radialGradient
       inkscape:collect="always"
       xlink:href="#linearGradient4031"
       id="radialGradient4029"
       gradientUnits="userSpaceOnUse"
       gradientTransform="matrix(2.053705,-0.9326399,1.4553364,3.137762,-61.847152,-64.499563)"
       cx="6.904315"
       cy="30.040201"
       fx="6.904315"
       fy="30.040201"
       r="7.8030983" />
    <radialGradient
       inkscape:collect="always"
       xlink:href="#linearGradient4015"
       id="radialGradient4049"
       cx="3.2862432"
       cy="31.250092"
       fx="3.2862432"
       fy="31.250092"
       r="5.7352138"
       gradientTransform="matrix(1.1271181,-0.39548166,0.9497052,2.6501137,-32.44922,-58.327401)"
       gradientUnits="userSpaceOnUse" />
    <radialGradient
       inkscape:collect="always"
       xlink:href="#linearGradient4015"
       id="radialGradient4055"
       gradientUnits="userSpaceOnUse"
       gradientTransform="matrix(1.120332,-0.39727144,0.94398723,2.6621069,-31.949925,-58.608399)"
       cx="3.2862432"
       cy="31.250092"
       fx="3.2862432"
       fy="31.250092"
       r="5.7352138" />
    <linearGradient
       inkscape:collect="always"
       xlink:href="#linearGradient4015"
       id="linearGradient4058"
       x1="0.82146233"
       y1="46.765625"
       x2="9.6952457"
       y2="46.765625"
       gradientUnits="userSpaceOnUse"
       gradientTransform="matrix(1.0060573,0,0,0.99549485,-0.30576605,0.01695711)" />
    <linearGradient
       inkscape:collect="always"
       xlink:href="#linearGradient3851"
       id="linearGradient3929"
       gradientUnits="userSpaceOnUse"
       x1="14.562023"
       y1="23.31316"
       x2="19.818365"
       y2="36.068104" />
    <linearGradient
       inkscape:collect="always"
       xlink:href="#linearGradient3851"
       id="linearGradient3931"
       gradientUnits="userSpaceOnUse"
       x1="14.562023"
       y1="23.31316"
       x2="19.818365"
       y2="36.068104" />
  </defs>
  <sodipodi:namedview
     id="base"
     pagecolor="#ffffff"
     bordercolor="#666666"
     borderopacity="1.0"
     inkscape:pageopacity="0.0"
     inkscape:pageshadow="2"
     inkscape:zoom="7.21875"
     inkscape:cx="32"
     inkscape:cy="32"
     inkscape:current-layer="layer2"
     showgrid="true"
     inkscape:document-units="px"
     inkscape:grid-bbox="true"
     inkscape:window-width="1366"
     inkscape:window-height="680"
     inkscape:window-x="0"
     inkscape:window-y="31"
     inkscape:window-maximized="1" />
  <metadata
     id="metadata2990">
    <rdf:RDF>
      <cc:Work
         rdf:about="">
        <dc:format>image/svg+xml</dc:format>
        <dc:type
           rdf:resource="http://purl.org/dc/dcmitype/StillImage" />
        <dc:title />
      </cc:Work>
    </rdf:RDF>
  </metadata>
  <g
     inkscape:label="Layer copy"
     id="g3932"
     inkscape:groupmode="layer">
    <path
       sodipodi:nodetypes="ccsscsssccsssc"
       inkscape:connector-curvature="0"
       id="path3934"
       d="m 3.4133921,9.903911 c 3.9009164,0.240726 2.3935965,11.493828 2.3935965,11.493828 0,0 -2.5395835,3.279841 -3.37287,8.102818 -0.8332854,4.822981 2.5250205,10.081445 2.9749014,11.221727 2.4049291,6.095594 5.276157,19.171488 12.737375,16.024744 1.785612,-0.93348 3.696877,-3.837141 6.309165,-3.733916 1.748414,0.06909 12.261208,2.644856 17.260922,4.822976 4.999718,2.17812 11.54161,-0.18123 13.689702,-0.93348 7.272267,-2.546709 8.809023,-8.090157 8.570941,-11.512915 C 62.47757,36.974404 49.891316,37.598019 46.001954,32.476557 43.144975,28.431478 39.882591,22.411704 39.109547,16.844958 38.633384,13.416068 36.977242,13.062301 34.834507,12.439984 32.691772,11.817663 29.676958,12.358015 21.539276,13.146962 17.674209,13.521685 3.4133921,9.903918 3.4133921,9.903911 z"
       style="fill:url(#radialGradient3841);fill-opacity:1;stroke:none" />
    <path
       sodipodi:nodetypes="csssccssscc"
       inkscape:connector-curvature="0"
       id="path3958"
       d="m 34.447454,49.301873 c 0,0 11.413683,1.137563 13.940506,0.621759 2.23528,-0.456284 4.665451,-0.541516 6.326089,-1.064214 1.074357,-0.338163 2.920292,-5.38206 3.216929,-5.916919 0.292208,-0.526869 4.366308,-1.295286 4.366308,-1.295286 l 0.71074,0.911056 c 0,0 -3.228037,0.52642 -3.835851,1.561783 -0.646328,1.100974 -2.204227,5.304852 -4.261631,6.241508 -2.057406,0.936655 -3.967002,0.644607 -6.463362,1.232934 -2.49636,0.588327 -9.872094,0.01728 -9.872094,0.01728 z"
       style="fill:#200201;fill-opacity:1;stroke:none" />
    <path
       sodipodi:nodetypes="ccssscssccsssscc"
       inkscape:connector-curvature="0"
       id="path3936"
       d="m 2.3064838,32.068721 c 1.5684903,15.089568 1.3990508,22.97061 0.2448855,28.630929 0,0 0.451128,0.921613 1.0521822,1.375145 0.6010523,0.453537 13.5435765,0.411029 14.9630645,-0.660068 1.419489,-1.071097 4.901673,-2.998628 5.827594,-2.998628 0.925921,0 17.48877,4.593796 17.825468,4.703808 C 42.556376,63.229911 46.338229,64 48.701123,64 c 5.631994,0 8.922506,-0.990105 10.605999,-1.540162 1.683492,-0.550058 4.292906,-3.080326 4.377079,-3.740397 0.08417,-0.660069 0.16835,-9.830435 0.08417,-10.380495 -0.08417,-0.550057 -0.841746,2.530268 -7.575713,4.400465 -6.733966,1.8702 -20.033552,-2.519212 -21.63287,-3.28929 -1.599318,-0.770082 -6.101421,-2.640283 -9.21588,-2.860305 -3.11446,-0.220027 -6.693119,0.759025 -8.965833,2.189177 -2.272722,1.430151 -1.346801,-16.72177 -1.346801,-16.72177 z"
       style="fill:#0c0300;fill-opacity:1;stroke:none" />
    <path
       style="fill:#120a08;fill-opacity:1;stroke:none"
       d="m 2.8839002,58.456197 c 0,0 0.451128,0.921612 1.0521822,1.375145 0.6010523,0.453536 13.2110456,0.02216 14.6305336,-1.048933 1.419489,-1.071098 4.901673,-2.99863 5.827594,-2.99863 0.925921,0 17.48877,4.593797 17.825468,4.703809 0.336698,0.110004 4.118551,0.880092 6.481445,0.880092 5.631994,0 8.922506,-0.990104 10.605999,-1.540161 1.683492,-0.550059 4.292906,-3.080327 4.377079,-3.740398 0.08417,-0.660069 0.16835,-4.326498 0.08417,-4.876555 -0.08417,-0.550058 -0.841746,2.530266 -7.575713,4.400464 -6.733966,1.870198 -20.033552,-2.519212 -21.63287,-3.289291 -1.599318,-0.770081 -6.101421,-2.640282 -9.21588,-2.860305 -3.11446,-0.220026 -6.693119,0.759025 -8.965833,2.189178 L 3.5052148,50.359052 z"
       id="path4060"
       inkscape:connector-curvature="0"
       sodipodi:nodetypes="cssscssccsssccc" />
  </g>
  <g
     id="layer1"
     inkscape:label="Layer 1"
     inkscape:groupmode="layer">
    <path
       sodipodi:nodetypes="csccsccscc"
       inkscape:connector-curvature="0"
       id="path3763"
       d="M 0.08624069,0 4.4240258,4.8353357 C 7.0053134,7.7127009 15.471578,16.8187 15.471578,24.398731 l 0.22915,23.273505 c 0,1.541905 -0.06148,10.080789 -0.06148,13.509418 0,1.702256 -4.132425,1.643814 -4.281946,0.742175 l 0.19775,-22.145735 c 0,-7.001928 -0.355797,-17.333765 -3.1507552,-22.662497 0,0 -5.7669287,-7.9646807 -8.40429644143098,-10.602384 z"
       style="fill:url(#radialGradient4029);fill-opacity:1;stroke:none" />
    <path
       style="fill:url(#radialGradient4049);fill-opacity:1;stroke:none"
       d="m 0.08624069,15.891847 3.56158691,5.237615 c 2.2856027,3.361174 2.1965366,10.572222 2.1965366,16.514337 l 0.086254,19.291525 c 0,3.107105 1.9723998,5.059424 4.1756248,5.505196 l 1.433663,-0.04058 -0.119705,-5.518691 c 0,0 -1.050185,-0.342509 -1.355105,-1.275988 l 0.05594,-16.355108 c 0,-7.001927 -0.3853891,-16.200431 -3.1803487,-21.529163 0,0 -4.3033174,-6.25795 -6.940685111431,-8.8956543 z"
       id="path2993"
       inkscape:connector-curvature="0"
       sodipodi:nodetypes="cscccccccscc" />
    <path
       style="fill:url(#linearGradient4013);fill-opacity:1;stroke:none"
       d="m 11.138135,29.197398 c 0.324494,3.700318 0.408711,7.461306 0.408711,10.577133 L 11.35821,61.924289 c 0.149522,0.901641 4.275744,0.955636 4.275744,-0.746621 0,-3.428629 0.06288,-11.959492 0.06288,-13.501397 l -0.188635,-18.478873 -4.370062,0 z"
       id="path4004"
       inkscape:connector-curvature="0" />
    <path
       style="fill:url(#linearGradient4058);fill-opacity:1;stroke:none"
       d="m 5.7620168,30.690641 c 0.1048737,2.315242 0.094318,4.74017 0.094318,6.968463 l 0.062878,19.287712 c 0,3.107105 1.9782014,5.060557 4.1814262,5.506331 l 1.446207,-0.06222 -0.125757,-5.506332 c 0,0 -1.04697,-0.341998 -1.351889,-1.275477 l 0.06288,-16.363447 c 0,-2.644369 -0.06398,-5.610839 -0.2829531,-8.555032 l -4.0871085,0 z"
       id="path4051"
       inkscape:connector-curvature="0" />
  </g>
  <g
     inkscape:groupmode="layer"
     id="layer3"
     inkscape:label="Layer#1">
    <path
       sodipodi:type="arc"
       style="fill:#000000;fill-opacity:1;stroke:#000000;stroke-width:0.19647297;stroke-linecap:round;stroke-miterlimit:4;stroke-opacity:1;stroke-dasharray:none"
       id="path3773"
       sodipodi:cx="17.636364"
       sodipodi:cy="29.818182"
       sodipodi:rx="6.5454545"
       sodipodi:ry="6.5454545"
       d="m 24.181818,29.818182 a 6.5454545,6.5454545 0 1 1 -13.090909,0 6.5454545,6.5454545 0 1 1 13.090909,0 z"
       transform="matrix(1.2275863,0,0,1.2268874,0.6401033,-8.5159441)" />
    <path
       sodipodi:type="arc"
       style="opacity:0.2;fill:url(#linearGradient3929);fill-opacity:1;stroke:#000000;stroke-width:0.17590779;stroke-linecap:round;stroke-miterlimit:4;stroke-opacity:1;stroke-dasharray:none"
       id="path3926"
       sodipodi:cx="17.636364"
       sodipodi:cy="29.818182"
       sodipodi:rx="6.5454545"
       sodipodi:ry="6.5454545"
       d="m 24.181818,29.818182 a 6.5454545,6.5454545 0 1 1 -13.090909,0 6.5454545,6.5454545 0 1 1 13.090909,0 z"
       transform="matrix(1.1332647,0,0,1.1326205,2.3888555,-5.9083969)" />
    <path
       transform="matrix(1.0146443,0,0,1.0140666,4.6749041,-2.5672779)"
       d="m 24.181818,29.818182 a 6.5454545,6.5454545 0 1 1 -13.090909,0 6.5454545,6.5454545 0 1 1 13.090909,0 z"
       sodipodi:ry="6.5454545"
       sodipodi:rx="6.5454545"
       sodipodi:cy="29.818182"
       sodipodi:cx="17.636364"
       id="path3775"
       style="fill:url(#linearGradient3931);fill-opacity:1;stroke:none"
       sodipodi:type="arc" />
    <path
       transform="matrix(1.4405282,0,0,1.4397082,4.2127559,0.13803835)"
       d="m 24.181818,29.818182 a 6.5454545,6.5454545 0 1 1 -13.090909,0 6.5454545,6.5454545 0 1 1 13.090909,0 z"
       sodipodi:ry="6.5454545"
       sodipodi:rx="6.5454545"
       sodipodi:cy="29.818182"
       sodipodi:cx="17.636364"
       id="path3777"
       style="fill:#000000;fill-opacity:1;stroke:#000000;stroke-width:0.19647297;stroke-linecap:round;stroke-miterlimit:4;stroke-opacity:1;stroke-dasharray:none"
       sodipodi:type="arc" />
    <path
       transform="matrix(1.3336506,0,0,1.3328916,6.1726565,3.2481956)"
       d="m 24.181818,29.818182 a 6.5454545,6.5454545 0 1 1 -13.090909,0 6.5454545,6.5454545 0 1 1 13.090909,0 z"
       sodipodi:ry="6.5454545"
       sodipodi:rx="6.5454545"
       sodipodi:cy="29.818182"
       sodipodi:cx="17.636364"
       id="path3930"
       style="opacity:0.2;fill:#b3b3b3;fill-opacity:1;stroke:none"
       sodipodi:type="arc" />
    <path
       sodipodi:type="arc"
       style="fill:#b3b3b3;fill-opacity:1;stroke:none"
       id="path3779"
       sodipodi:cx="17.636364"
       sodipodi:cy="29.818182"
       sodipodi:rx="6.5454545"
       sodipodi:ry="6.5454545"
       d="m 24.181818,29.818182 a 6.5454545,6.5454545 0 1 1 -13.090909,0 6.5454545,6.5454545 0 1 1 13.090909,0 z"
       transform="matrix(1.2530575,0,0,1.2523442,7.7557054,5.4883848)" />
    <path
       sodipodi:type="arc"
       style="fill:none;stroke:#000000;stroke-width:0.07578123;stroke-linecap:round;stroke-miterlimit:4;stroke-opacity:1;stroke-dasharray:none"
       id="path3793"
       sodipodi:cx="21.791746"
       sodipodi:cy="29.030355"
       sodipodi:rx="3.9212284"
       sodipodi:ry="3.9212284"
       d="m 25.712975,29.030355 a 3.9212284,3.9212284 0 1 1 -7.842457,0 3.9212284,3.9212284 0 1 1 7.842457,0 z"
       transform="matrix(1.3279593,0,0,1.3272032,-6.2310468,-11.029094)" />
    <path
       style="fill:#aa0000;stroke:none"
       d="m 25.014901,29.200122 -7.757616,-4.680371 8.106846,4.011395 z"
       id="path3795"
       inkscape:connector-curvature="0"
       sodipodi:nodetypes="cccc" />
    <path
       transform="matrix(0.2242324,0,0,0.22410474,17.821089,20.994246)"
       d="m 25.712975,29.030355 a 3.9212284,3.9212284 0 1 1 -7.842457,0 3.9212284,3.9212284 0 1 1 7.842457,0 z"
       sodipodi:ry="3.9212284"
       sodipodi:rx="3.9212284"
       sodipodi:cy="29.030355"
       sodipodi:cx="21.791746"
       id="path3797"
       style="fill:#000000;stroke:none"
       sodipodi:type="arc" />
    <path
       sodipodi:open="true"
       sodipodi:end="5.4784021"
       sodipodi:start="3.944837"
       sodipodi:type="arc"
       style="fill:none;stroke:#000000;stroke-width:0.0523148;stroke-linecap:round;stroke-miterlimit:4;stroke-opacity:1;stroke-dasharray:none"
       id="path3801"
       sodipodi:cx="21.791746"
       sodipodi:cy="29.030355"
       sodipodi:rx="3.9212284"
       sodipodi:ry="3.9212284"
       d="m 19.06894,26.20859 a 3.9212284,3.9212284 0 0 1 5.441266,-0.0042"
       transform="matrix(2.0622447,0,0,1.7933129,-14.988375,-5.9648154)" />
    <path
       transform="matrix(2.4096256,0,0,1.9621503,-22.55841,-12.314797)"
       d="m 19.019019,26.257628 a 3.9212284,3.9212284 0 0 1 5.545454,0"
       sodipodi:ry="3.9212284"
       sodipodi:rx="3.9212284"
       sodipodi:cy="29.030355"
       sodipodi:cx="21.791746"
       id="path3803"
       style="fill:none;stroke:#000000;stroke-width:0.04626811;stroke-linecap:round;stroke-miterlimit:4;stroke-opacity:1;stroke-dasharray:none"
       sodipodi:type="arc"
       sodipodi:start="3.9269908"
       sodipodi:end="5.4977871"
       sodipodi:open="true" />
    <path
       style="fill:none;stroke:#000000;stroke-width:0.10060573;stroke-miterlimit:4;stroke-dasharray:none"
       d="m 23.474363,38.959925 1.139136,1.831811"
       id="path3805"
       inkscape:connector-curvature="0"
       sodipodi:nodetypes="cc" />
    <path
       style="fill:none;stroke:#000000;stroke-width:0.10060573;stroke-linecap:round;stroke-miterlimit:4;stroke-opacity:1;stroke-dasharray:none"
       d="m 24.783977,38.203689 0.969514,1.854444"
       id="path3807"
       inkscape:connector-curvature="0"
       sodipodi:nodetypes="cc" />
    <path
       style="fill:none;stroke:#000000;stroke-width:0.10060573;stroke-linecap:round;stroke-miterlimit:4;stroke-opacity:1;stroke-dasharray:none"
       d="m 26.355515,37.563798 0.552947,1.94876"
       id="path3809"
       inkscape:connector-curvature="0" />
    <path
       style="fill:#804b00;stroke:#000000;stroke-width:0.10060573000000000;stroke-linecap:round;stroke-miterlimit:4;stroke-opacity:1;stroke-dasharray:none;fill-opacity:1"
       d="m 28.033476,37.156594 0.330416,2.010461"
       id="path3811"
       inkscape:connector-curvature="0"
       sodipodi:nodetypes="cc" />
    <path
       style="fill:#804b00;stroke:#000000;stroke-width:0.10060573000000000;stroke-linecap:round;stroke-miterlimit:4;stroke-opacity:1;stroke-dasharray:none;fill-opacity:1"
       d="m 29.703615,36.988581 0.06173,2.056688"
       id="path3813"
       inkscape:connector-curvature="0" />
    <path
       style="fill:#804b00;stroke:#000000;stroke-width:0.10060573000000000;stroke-linecap:round;stroke-miterlimit:4;stroke-opacity:1;stroke-dasharray:none;fill-opacity:1"
       d="m 31.185274,37.070848 -0.205786,2.056689"
       id="path3815"
       inkscape:connector-curvature="0" />
    <path
       style="fill:#804b00;stroke:#000000;stroke-width:0.10060573000000000;stroke-linecap:round;stroke-miterlimit:4;stroke-opacity:1;stroke-dasharray:none;fill-opacity:1"
       d="m 32.564039,37.25595 -0.349835,2.036121"
       id="path3817"
       inkscape:connector-curvature="0"
       sodipodi:nodetypes="cc" />
    <path
       style="fill:#804b00;stroke:#000000;stroke-width:0.10060573000000000;stroke-linecap:round;stroke-miterlimit:4;stroke-opacity:1;stroke-dasharray:none;fill-opacity:1"
       d="m 33.819335,37.728987 -0.679094,1.88187"
       id="path3819"
       inkscape:connector-curvature="0"
       sodipodi:nodetypes="cc" />
    <path
       style="fill:#804b00;stroke:#000000;stroke-width:0.10060573000000000;stroke-linecap:round;stroke-miterlimit:4;stroke-opacity:1;stroke-dasharray:none;fill-opacity:1"
       d="m 36.443106,39.065837 -1.121533,1.727617"
       id="path3821"
       inkscape:connector-curvature="0"
       sodipodi:nodetypes="cc" />
    <path
       style="fill:#804b00;stroke:#000000;stroke-width:0.10060573000000000;stroke-linecap:round;stroke-miterlimit:4;stroke-opacity:1;stroke-dasharray:none;fill-opacity:1"
       d="m 34.004542,39.919362 0.812855,-1.799603"
       id="path3823"
       inkscape:connector-curvature="0"
       sodipodi:nodetypes="cc" />
    <path
       style="fill:#804b00;stroke:#000000;stroke-width:0.10060573000000000;stroke-linecap:round;stroke-miterlimit:4;stroke-opacity:1;stroke-dasharray:none;fill-opacity:1"
       d="M 35.671409,38.531097 34.683636,40.29985"
       id="path3825"
       inkscape:connector-curvature="0"
       sodipodi:nodetypes="cc" />
    <path
       style="fill:#333333;stroke:none"
       d="m 29.357522,49.791628 3.576933,-12.885317 0.226365,0.123396 -3.265758,12.891947 z"
       id="path3827"
       inkscape:connector-curvature="0"
       sodipodi:nodetypes="ccccc" />
    <path
       sodipodi:type="arc"
       style="fill:#804b00;fill-opacity:1;stroke:none"
       id="path3829"
       sodipodi:cx="24.547855"
       sodipodi:cy="47.358883"
       sodipodi:rx="0.38569462"
       sodipodi:ry="0.38569462"
       d="m 24.93355,47.358883 a 0.38569462,0.38569462 0 1 1 -0.771389,0 0.38569462,0.38569462 0 1 1 0.771389,0 z"
       transform="matrix(1.2805117,0,0,1.2797827,-1.57873,-11.547738)" />
    <path
       transform="matrix(1.2805117,0,0,1.2797827,-3.9658478,-16.812863)"
       d="m 24.93355,47.358883 a 0.38569462,0.38569462 0 1 1 -0.771389,0 0.38569462,0.38569462 0 1 1 0.771389,0 z"
       sodipodi:ry="0.38569462"
       sodipodi:rx="0.38569462"
       sodipodi:cy="47.358883"
       sodipodi:cx="24.547855"
       id="path3831"
       style="fill:#804b00;fill-opacity:1;stroke:none"
       sodipodi:type="arc" />
    <path
       sodipodi:type="arc"
       style="fill:#804b00;fill-opacity:1;stroke:none"
       id="path3833"
       sodipodi:cx="24.547855"
       sodipodi:cy="47.358883"
       sodipodi:rx="0.38569462"
       sodipodi:ry="0.38569462"
       d="m 24.93355,47.358883 a 0.38569462,0.38569462 0 1 1 -0.771389,0 0.38569462,0.38569462 0 1 1 0.771389,0 z"
       transform="matrix(1.2805117,0,0,1.2797827,5.2533657,-18.622747)" />
  </g>
  <g
     inkscape:groupmode="layer"
     id="layer2"
     inkscape:label="Layer">
    <path
       style="fill:url(#radialGradient3944);fill-opacity:1;stroke:none"
       d="M 47.904667,36.539046 C 45.694405,28.782381 46.137313,26.238438 46.999508,20.684528 48.037586,13.997656 48.598668,8.2791467 46.455933,7.6568291 44.313198,7.0345094 33.785685,9.0148604 30.220992,10.346804 c 1.50629,11.313018 8.731335,27.405627 17.683675,26.192242 z"
       id="path3768"
       inkscape:connector-curvature="0"
       sodipodi:nodetypes="csscc" />
    <path
       style="fill:#200201;fill-opacity:1;stroke:none"
       d="m 30.773914,10.155647 c 0,0 4.380392,12.475898 6.365298,15.625229 1.755889,2.785962 3.09871,6.021987 4.65637,7.999104 1.007736,1.279107 3.964399,2.758984 4.65962,2.199048 0.672927,-0.541982 0.913252,-2.228769 0.913252,-2.228769 l 2.413146,1.604368 c 0,0 -0.738111,2.325262 -2.473222,2.612726 -3.464932,0.574051 -5.155591,-0.861077 -7.483776,-3.164819 -2.328186,-2.303742 -2.888598,-5.027594 -4.958095,-8.09925 -2.069498,-3.071656 -7.640296,-14.274679 -6.931654,-15.469405 0.614988,-1.036833 2.839061,-1.078231 2.839061,-1.078231 z"
       id="path3956"
       inkscape:connector-curvature="0"
       sodipodi:nodetypes="csssccssssc" />
    <path
       style="fill:#804b00;fill-opacity:1;stroke:none"
       d="M 36.548795,16.60698 48.0203,15.340537 47.899597,16.296311 36.490396,17.327292 z"
       id="path4005"
       inkscape:connector-curvature="0"
       sodipodi:nodetypes="ccccc" />
    <path
       sodipodi:nodetypes="ccccc"
       inkscape:connector-curvature="0"
       id="path4007"
       d="m 38.211133,21.455465 9.022651,-0.97258 -0.120703,0.955774 -8.960347,0.737118 z"
       style="fill:#804b00;fill-opacity:1;stroke:none" />
    <path
       sodipodi:nodetypes="ccccc"
       inkscape:connector-curvature="0"
       id="path4009"
       d="m 40.240078,26.280182 6.377887,-0.776672 -0.120703,0.955774 -6.168651,0.394279 z"
       style="fill:#804b00;fill-opacity:1;stroke:none" />
    <path
       style="fill:#804b00;fill-opacity:1;stroke:none"
       d="m 42.228449,30.459794 4.418804,-0.433832 0.124182,0.85782 -4.503431,0.247347 z"
       id="path4011"
       inkscape:connector-curvature="0"
       sodipodi:nodetypes="ccccc" />
  </g>
  <g
     inkscape:groupmode="layer"
     id="layer4"
     inkscape:label="rivet"
     style="opacity:0.75">
    <path
       sodipodi:type="arc"
       style="fill:#804b00;fill-opacity:1;stroke:none"
       id="path3035"
       sodipodi:cx="24.547855"
       sodipodi:cy="47.358883"
       sodipodi:rx="0.38569462"
       sodipodi:ry="0.38569462"
       d="m 24.93355,47.358883 a 0.38569462,0.38569462 0 1 1 -0.771389,0 0.38569462,0.38569462 0 1 1 0.771389,0 z"
       transform="matrix(1.2805117,0,0,1.2797827,-1.9237031,-48.891293)" />
    <path
       sodipodi:type="arc"
       style="fill:#804b00;fill-opacity:1;stroke:none"
       id="path3035-6"
       sodipodi:cx="24.547855"
       sodipodi:cy="47.358883"
       sodipodi:rx="0.38569462"
       sodipodi:ry="0.38569462"
       d="m 24.93355,47.358883 a 0.38569462,0.38569462 0 1 1 -0.771389,0 0.38569462,0.38569462 0 1 1 0.771389,0 z"
       transform="matrix(1.2805117,0,0,1.2797827,-0.91764588,-45.873121)" />
    <path
       sodipodi:type="arc"
       style="fill:#804b00;fill-opacity:1;stroke:none"
       id="path3035-9"
       sodipodi:cx="24.547855"
       sodipodi:cy="47.358883"
       sodipodi:rx="0.38569462"
       sodipodi:ry="0.38569462"
       d="m 24.93355,47.358883 a 0.38569462,0.38569462 0 1 1 -0.771389,0 0.38569462,0.38569462 0 1 1 0.771389,0 z"
       transform="matrix(1.2805117,0,0,1.2797827,0.36279063,-43.312249)" />
    <path
       sodipodi:type="arc"
       style="fill:#804b00;fill-opacity:1;stroke:none"
       id="path3035-3"
       sodipodi:cx="24.547855"
       sodipodi:cy="47.358883"
       sodipodi:rx="0.38569462"
       sodipodi:ry="0.38569462"
       d="m 24.93355,47.358883 a 0.38569462,0.38569462 0 1 1 -0.771389,0 0.38569462,0.38569462 0 1 1 0.771389,0 z"
       transform="matrix(1.2805117,0,0,1.2797827,1.5517674,-40.476997)" />
    <path
       sodipodi:type="arc"
       style="fill:#804b00;fill-opacity:1;stroke:none"
       id="path3035-5"
       sodipodi:cx="24.547855"
       sodipodi:cy="47.358883"
       sodipodi:rx="0.38569462"
       sodipodi:ry="0.38569462"
       d="m 24.93355,47.358883 a 0.38569462,0.38569462 0 1 1 -0.771389,0 0.38569462,0.38569462 0 1 1 0.771389,0 z"
       transform="matrix(1.2805117,0,0,1.2797827,2.6492844,-38.190503)" />
    <path
       sodipodi:type="arc"
       style="fill:#804b00;fill-opacity:1;stroke:none"
       id="path3035-2"
       sodipodi:cx="24.547855"
       sodipodi:cy="47.358883"
       sodipodi:rx="0.38569462"
       sodipodi:ry="0.38569462"
       d="m 24.93355,47.358883 a 0.38569462,0.38569462 0 1 1 -0.771389,0 0.38569462,0.38569462 0 1 1 0.771389,0 z"
       transform="matrix(1.2805117,0,0,1.2797827,3.9297209,-35.53817)" />
    <path
       sodipodi:type="arc"
       style="fill:#804b00;fill-opacity:1;stroke:none"
       id="path3035-0"
       sodipodi:cx="24.547855"
       sodipodi:cy="47.358883"
       sodipodi:rx="0.38569462"
       sodipodi:ry="0.38569462"
       d="m 24.93355,47.358883 a 0.38569462,0.38569462 0 1 1 -0.771389,0 0.38569462,0.38569462 0 1 1 0.771389,0 z"
       transform="matrix(1.2805117,0,0,1.2797827,5.3016171,-33.251677)" />
    <path
       sodipodi:type="arc"
       style="fill:#804b00;fill-opacity:1;stroke:none"
       id="path3035-06"
       sodipodi:cx="24.547855"
       sodipodi:cy="47.358883"
       sodipodi:rx="0.38569462"
       sodipodi:ry="0.38569462"
       d="m 24.93355,47.358883 a 0.38569462,0.38569462 0 1 1 -0.771389,0 0.38569462,0.38569462 0 1 1 0.771389,0 z"
       transform="matrix(1.2805117,0,0,1.2797827,6.8564329,-30.507884)" />
    <path
       sodipodi:type="arc"
       style="fill:#804b00;fill-opacity:1;stroke:none"
       id="path3035-1"
       sodipodi:cx="24.547855"
       sodipodi:cy="47.358883"
       sodipodi:rx="0.38569462"
       sodipodi:ry="0.38569462"
       d="m 24.93355,47.358883 a 0.38569462,0.38569462 0 1 1 -0.771389,0 0.38569462,0.38569462 0 1 1 0.771389,0 z"
       transform="matrix(1.2805117,0,0,1.2797827,8.3197889,-27.947011)" />
    <path
       sodipodi:type="arc"
       style="fill:#804b00;fill-opacity:1;stroke:none"
       id="path3035-97"
       sodipodi:cx="24.547855"
       sodipodi:cy="47.358883"
       sodipodi:rx="0.38569462"
       sodipodi:ry="0.38569462"
       d="m 24.93355,47.358883 a 0.38569462,0.38569462 0 1 1 -0.771389,0 0.38569462,0.38569462 0 1 1 0.771389,0 z"
       transform="matrix(1.2805117,0,0,1.2797827,10.240445,-25.660516)" />
    <path
       sodipodi:type="arc"
       style="fill:#804b00;fill-opacity:1;stroke:none"
       id="path3035-52"
       sodipodi:cx="24.547855"
       sodipodi:cy="47.358883"
       sodipodi:rx="0.38569462"
       sodipodi:ry="0.38569462"
       d="m 24.93355,47.358883 a 0.38569462,0.38569462 0 1 1 -0.771389,0 0.38569462,0.38569462 0 1 1 0.771389,0 z"
       transform="matrix(1.2805117,0,0,1.2797827,12.252559,-24.288621)" />
    <path
       sodipodi:type="arc"
       style="fill:#804b00;fill-opacity:1;stroke:none"
       id="path3035-529"
       sodipodi:cx="24.547855"
       sodipodi:cy="47.358883"
       sodipodi:rx="0.38569462"
       sodipodi:ry="0.38569462"
       d="m 24.93355,47.358883 a 0.38569462,0.38569462 0 1 1 -0.771389,0 0.38569462,0.38569462 0 1 1 0.771389,0 z"
       transform="matrix(1.2805117,0,0,1.2797827,14.630512,-23.648402)" />
    <path
       sodipodi:type="arc"
       style="fill:#804b00;fill-opacity:1;stroke:none"
       id="path3035-8"
       sodipodi:cx="24.547855"
       sodipodi:cy="47.358883"
       sodipodi:rx="0.38569462"
       sodipodi:ry="0.38569462"
       d="m 24.93355,47.358883 a 0.38569462,0.38569462 0 1 1 -0.771389,0 0.38569462,0.38569462 0 1 1 0.771389,0 z"
       transform="matrix(1.2805117,0,0,1.2797827,16.551167,-25.020297)" />
    <path
       sodipodi:type="arc"
       style="fill:#804b00;fill-opacity:1;stroke:none"
       id="path3035-7"
       sodipodi:cx="24.547855"
       sodipodi:cy="47.358883"
       sodipodi:rx="0.38569462"
       sodipodi:ry="0.38569462"
       d="m 24.93355,47.358883 a 0.38569462,0.38569462 0 1 1 -0.771389,0 0.38569462,0.38569462 0 1 1 0.771389,0 z"
       transform="matrix(1.2805117,0,0,1.2797827,29.629911,-18.208032)" />
    <path
       sodipodi:type="arc"
       style="fill:#804b00;fill-opacity:1;stroke:none"
       id="path3035-72"
       sodipodi:cx="24.547855"
       sodipodi:cy="47.358883"
       sodipodi:rx="0.38569462"
       sodipodi:ry="0.38569462"
       d="m 24.93355,47.358883 a 0.38569462,0.38569462 0 1 1 -0.771389,0 0.38569462,0.38569462 0 1 1 0.771389,0 z"
       transform="matrix(1.2805117,0,0,1.2797827,13.990294,-9.6975433)" />
    <path
       sodipodi:type="arc"
       style="fill:#804b00;fill-opacity:1;stroke:none"
       id="path3035-98"
       sodipodi:cx="24.547855"
       sodipodi:cy="47.358883"
       sodipodi:rx="0.38569462"
       sodipodi:ry="0.38569462"
       d="m 24.93355,47.358883 a 0.38569462,0.38569462 0 1 1 -0.771389,0 0.38569462,0.38569462 0 1 1 0.771389,0 z"
       transform="matrix(1.2805117,0,0,1.2797827,27.343417,-17.380161)" />
    <path
       sodipodi:type="arc"
       style="fill:#804b00;fill-opacity:1;stroke:none"
       id="path3035-58"
       sodipodi:cx="24.547855"
       sodipodi:cy="47.358883"
       sodipodi:rx="0.38569462"
       sodipodi:ry="0.38569462"
       d="m 24.93355,47.358883 a 0.38569462,0.38569462 0 1 1 -0.771389,0 0.38569462,0.38569462 0 1 1 0.771389,0 z"
       transform="matrix(1.2805117,0,0,1.2797827,11.33796,-9.7890032)" />
    <path
       sodipodi:type="arc"
       style="fill:#804b00;fill-opacity:1;stroke:none"
       id="path3035-93"
       sodipodi:cx="24.547855"
       sodipodi:cy="47.358883"
       sodipodi:rx="0.38569462"
       sodipodi:ry="0.38569462"
       d="m 24.93355,47.358883 a 0.38569462,0.38569462 0 1 1 -0.771389,0 0.38569462,0.38569462 0 1 1 0.771389,0 z"
       transform="matrix(1.2805117,0,0,1.2797827,26.2459,-15.276588)" />
    <path
       sodipodi:type="arc"
       style="fill:#804b00;fill-opacity:1;stroke:none"
       id="path3035-79"
       sodipodi:cx="24.547855"
       sodipodi:cy="47.358883"
       sodipodi:rx="0.38569462"
       sodipodi:ry="0.38569462"
       d="m 24.93355,47.358883 a 0.38569462,0.38569462 0 1 1 -0.771389,0 0.38569462,0.38569462 0 1 1 0.771389,0 z"
       transform="matrix(1.2805117,0,0,1.2797827,25.056922,-12.807175)" />
    <path
       sodipodi:type="arc"
       style="fill:#804b00;fill-opacity:1;stroke:none"
       id="path3035-56"
       sodipodi:cx="24.547855"
       sodipodi:cy="47.358883"
       sodipodi:rx="0.38569462"
       sodipodi:ry="0.38569462"
       d="m 24.93355,47.358883 a 0.38569462,0.38569462 0 1 1 -0.771389,0 0.38569462,0.38569462 0 1 1 0.771389,0 z"
       transform="matrix(1.2805117,0,0,1.2797827,22.86189,-10.886521)" />
    <path
       sodipodi:type="arc"
       style="fill:#804b00;fill-opacity:1;stroke:none"
       id="path3035-71"
       sodipodi:cx="24.547855"
       sodipodi:cy="47.358883"
       sodipodi:rx="0.38569462"
       sodipodi:ry="0.38569462"
       d="m 24.93355,47.358883 a 0.38569462,0.38569462 0 1 1 -0.771389,0 0.38569462,0.38569462 0 1 1 0.771389,0 z"
       transform="matrix(1.2805117,0,0,1.2797827,8.9213124,-10.072216)" />
    <path
       sodipodi:type="arc"
       style="fill:#804b00;fill-opacity:1;stroke:none"
       id="path3035-716"
       sodipodi:cx="24.547855"
       sodipodi:cy="47.358883"
       sodipodi:rx="0.38569462"
       sodipodi:ry="0.38569462"
       d="m 24.93355,47.358883 a 0.38569462,0.38569462 0 1 1 -0.771389,0 0.38569462,0.38569462 0 1 1 0.771389,0 z"
       transform="matrix(1.2805117,0,0,1.2797827,19.719719,-10.275762)" />
    <path
       sodipodi:type="arc"
       style="fill:#804b00;fill-opacity:1;stroke:none"
       id="path3035-938"
       sodipodi:cx="24.547855"
       sodipodi:cy="47.358883"
       sodipodi:rx="0.38569462"
       sodipodi:ry="0.38569462"
       d="m 24.93355,47.358883 a 0.38569462,0.38569462 0 1 1 -0.771389,0 0.38569462,0.38569462 0 1 1 0.771389,0 z"
       transform="matrix(1.2805117,0,0,1.2797827,16.642627,-9.7890027)" />
    <path
       sodipodi:type="arc"
       style="opacity:0.75000000000000000;fill:#804b00;fill-opacity:1;stroke:none"
       id="path3035-87"
       sodipodi:cx="24.547855"
       sodipodi:cy="47.358883"
       sodipodi:rx="0.38569462"
       sodipodi:ry="0.38569462"
       d="m 24.93355,47.358883 a 0.38569462,0.38569462 0 1 1 -0.771389,0 0.38569462,0.38569462 0 1 1 0.771389,0 z"
       transform="matrix(2.1068484,0,0,2.105649,-15.032991,-82.787156)" />
    <path
       sodipodi:type="arc"
       style="opacity:0.75000000000000000;fill:#804b00;fill-opacity:1;stroke:none"
       id="path3035-6-4"
       sodipodi:cx="24.547855"
       sodipodi:cy="47.358883"
       sodipodi:rx="0.38569462"
       sodipodi:ry="0.38569462"
       d="m 24.93355,47.358883 a 0.38569462,0.38569462 0 1 1 -0.771389,0 0.38569462,0.38569462 0 1 1 0.771389,0 z"
       transform="matrix(2.1068484,0,0,2.105649,-13.377707,-77.821305)" />
    <path
       sodipodi:type="arc"
       style="opacity:0.75;fill:#804b00;fill-opacity:1;stroke:none"
       id="path3035-9-5"
       sodipodi:cx="24.547855"
       sodipodi:cy="47.358883"
       sodipodi:rx="0.38569462"
       sodipodi:ry="0.38569462"
       d="m 24.93355,47.358883 a 0.38569462,0.38569462 0 1 1 -0.771389,0 0.38569462,0.38569462 0 1 1 0.771389,0 z"
       transform="matrix(2.1068484,0,0,2.105649,-11.270982,-73.167063)" />
    <path
       sodipodi:type="arc"
       style="opacity:0.75000000000000000;fill:#804b00;fill-opacity:1;stroke:none"
       id="path3035-3-5"
       sodipodi:cx="24.547855"
       sodipodi:cy="47.358883"
       sodipodi:rx="0.38569462"
       sodipodi:ry="0.38569462"
       d="m 24.93355,47.358883 a 0.38569462,0.38569462 0 1 1 -0.771389,0 0.38569462,0.38569462 0 1 1 0.771389,0 z"
       transform="matrix(2.1068484,0,0,2.105649,-9.3147377,-68.942967)" />
  </g>
</svg>
