<?xml version="1.0" encoding="UTF-8" standalone="no"?>
<!-- Created with Inkscape (http://www.inkscape.org/) -->

<svg
   xmlns:dc="http://purl.org/dc/elements/1.1/"
   xmlns:cc="http://creativecommons.org/ns#"
   xmlns:rdf="http://www.w3.org/1999/02/22-rdf-syntax-ns#"
   xmlns:svg="http://www.w3.org/2000/svg"
   xmlns="http://www.w3.org/2000/svg"
   xmlns:xlink="http://www.w3.org/1999/xlink"
   xmlns:sodipodi="http://sodipodi.sourceforge.net/DTD/sodipodi-0.dtd"
   xmlns:inkscape="http://www.inkscape.org/namespaces/inkscape"
   width="64px"
   height="64px"
   id="svg2985"
   version="1.1"
   inkscape:version="0.48.4 r9939"
   sodipodi:docname="wetsock.svg">
  <defs
     id="defs2987">
    <linearGradient
       id="linearGradient4279">
      <stop
         style="stop-color:#3f4957;stop-opacity:1;"
         offset="0"
         id="stop4281" />
      <stop
         style="stop-color:#556275;stop-opacity:1;"
         offset="1"
         id="stop4283" />
    </linearGradient>
    <linearGradient
       id="linearGradient4252">
      <stop
         style="stop-color:#4a7490;stop-opacity:1;"
         offset="0"
         id="stop4254" />
      <stop
         style="stop-color:#8ca8ba;stop-opacity:1;"
         offset="1"
         id="stop4256" />
    </linearGradient>
    <linearGradient
       id="linearGradient4216">
      <stop
         style="stop-color:#71bfaf;stop-opacity:1;"
         offset="0"
         id="stop4218" />
      <stop
         id="stop4224"
         offset="0.33265156"
         style="stop-color:#a3cac2;stop-opacity:1;" />
      <stop
         style="stop-color:#d6d6d6;stop-opacity:1;"
         offset="1"
         id="stop4220" />
    </linearGradient>
    <linearGradient
       inkscape:collect="always"
       xlink:href="#linearGradient4216"
       id="linearGradient4222"
       x1="37.627686"
       y1="62.590797"
       x2="35.400696"
       y2="7.7183199"
       gradientUnits="userSpaceOnUse" />
    <linearGradient
       inkscape:collect="always"
       xlink:href="#linearGradient4216"
       id="linearGradient4234"
       x1="15.862471"
       y1="50.882221"
       x2="20.173138"
       y2="0.22766143"
       gradientUnits="userSpaceOnUse"
       gradientTransform="matrix(0.90347242,0,0,0.90520493,2.6329663,-0.44871028)" />
    <linearGradient
       inkscape:collect="always"
       xlink:href="#linearGradient4216"
       id="linearGradient4248"
       gradientUnits="userSpaceOnUse"
       x1="37.627686"
       y1="62.590797"
       x2="35.400696"
       y2="7.7183199"
       gradientTransform="matrix(0.90025623,-0.07631139,0.07616533,0.90198258,-0.14218498,3.7562665)" />
    <linearGradient
       inkscape:collect="always"
       xlink:href="#linearGradient4252"
       id="linearGradient4258"
       x1="33.878422"
       y1="68.550102"
       x2="33.660088"
       y2="47.722588"
       gradientUnits="userSpaceOnUse"
       gradientTransform="matrix(1.008245,0,0,1.0101784,-0.7209485,-0.16115523)" />
    <linearGradient
       inkscape:collect="always"
       xlink:href="#linearGradient4279"
       id="linearGradient4285"
       x1="2.6780342"
       y1="50.09174"
       x2="19.540887"
       y2="50.09174"
       gradientUnits="userSpaceOnUse" />
    <linearGradient
       inkscape:collect="always"
       xlink:href="#linearGradient4279"
       id="linearGradient4287"
       x1="51.507041"
       y1="49.098559"
       x2="60.43068"
       y2="49.098559"
       gradientUnits="userSpaceOnUse" />
    <linearGradient
       inkscape:collect="always"
       xlink:href="#linearGradient4279"
       id="linearGradient4290"
       gradientUnits="userSpaceOnUse"
       x1="31.733694"
       y1="56.648548"
       x2="31.240292"
       y2="36.206734" />
  </defs>
  <sodipodi:namedview
     id="base"
     pagecolor="#ffffff"
     bordercolor="#666666"
     borderopacity="1.0"
     inkscape:pageopacity="0.0"
     inkscape:pageshadow="2"
     inkscape:zoom="2.75"
     inkscape:cx="50.672568"
     inkscape:cy="-15.383814"
     inkscape:current-layer="layer1"
     showgrid="true"
     inkscape:document-units="px"
     inkscape:grid-bbox="true"
     inkscape:window-width="1366"
     inkscape:window-height="680"
     inkscape:window-x="0"
     inkscape:window-y="31"
     inkscape:window-maximized="1" />
  <metadata
     id="metadata2990">
    <rdf:RDF>
      <cc:Work
         rdf:about="">
        <dc:format>image/svg+xml</dc:format>
        <dc:type
           rdf:resource="http://purl.org/dc/dcmitype/StillImage" />
      </cc:Work>
    </rdf:RDF>
  </metadata>
  <g
     id="layer1"
     inkscape:label="Layer 1"
     inkscape:groupmode="layer">
    <path
       style="fill:url(#linearGradient4258);fill-opacity:1;stroke:none"
       d="m 2.3954452,54.388482 c -1.1798436,0.649204 -2.72562071,2.01214 -2.33324804,3.302216 1.69906514,5.586327 10.55033884,5.599192 16.34564284,6.224047 6.403459,0.690427 12.669785,-3.0453 19.107826,-2.869619 4.011959,0.109477 7.817167,2.987717 11.792513,2.434963 2.512804,-0.349395 4.256105,-3.070683 6.753985,-3.514694 2.317065,-0.411871 4.935251,2.029224 7.002115,0.901961 1.818878,-0.992014 3.615591,-3.765079 2.679551,-5.61591 C 61.262096,50.34432 53.036044,52.568159 47.558729,52.185549 39.931186,51.652738 32.28359,52.907476 24.646583,53.280101 17.229166,53.642012 8.9046221,50.806831 2.3954452,54.388482 z"
       id="path4250"
       inkscape:connector-curvature="0"
       sodipodi:nodetypes="aaaaaaaaaaa" />
    <path
       style="fill:url(#linearGradient4234);fill-opacity:1"
       inkscape:connector-curvature="0"
       d="M 6.9911832,23.022993 C 6.267731,22.003479 4.8248716,22.731902 4.6724005,21.602089 4.5188799,20.461925 4.238241,20.143261 4.5894514,19.024959 4.9635909,17.833922 4.468986,16.477122 5.1859565,15.374849 5.8993117,14.277961 6.4462702,13.125611 6.7876355,11.941736 7.121181,10.784269 7.2732356,9.5964315 7.1689347,8.4159352 7.1432414,8.1260976 7.0786138,7.8390953 7.0292835,7.5507479 6.9853454,7.2958654 6.5922278,7.1804344 6.3221986,7.0629306 5.5811714,6.7404882 4.9348483,6.353417 4.6062403,5.8111344 4.0737677,4.9324279 3.8526443,4.2959746 4.394317,3.4388433 4.7397487,2.891887 5.4503951,2.5135236 6.1407852,2.1972089 6.8706016,1.863133 7.6478962,1.5846917 8.4457215,1.3424563 11.420144,0.43970903 15.668955,0.16124637 18.890206,0.03526357 c 3.260752,-0.1274382 6.546021,0.0859133 9.692607,0.71741733 1.585632,0.3182151 3.348771,0.7309679 4.44284,1.6601231 0.430232,0.3656011 0.685802,0.8303848 0.590245,1.3101618 -0.113512,0.5702492 -0.451842,1.1110771 -0.668022,1.6639381 -0.233006,0.5960366 -0.506437,1.1785333 -0.906548,1.7296913 -0.402068,0.5533645 -0.856287,1.0870417 -1.228493,1.6513915 -0.671423,1.0179857 -1.093542,2.1113783 -1.079881,3.2406923 0.01495,1.21951 0.395705,2.417367 0.472916,3.633691 0.07149,1.122848 -0.124456,2.666918 -1.505542,3.397974"
       id="path3250"
       sodipodi:nodetypes="ccccccccsccccscccccccc" />
    <path
       style="fill:none;stroke:#787878;stroke-width:0.72103994999999999;stroke-linecap:round;stroke-linejoin:round;stroke-miterlimit:11.50000000000000000;opacity:0.5"
       inkscape:connector-curvature="0"
       stroke-miterlimit="11.5"
       d="M 7.123603,18.59905 C 7.3063594,18.082384 8.6117745,16.798477 8.3926942,16.287833 8.1596751,15.745151 8.1780558,15.212004 8.2397758,14.654344 8.3789987,13.39903 8.6047164,12.151119 8.805993,10.900013 8.9954568,9.7220427 9.1691056,8.5397688 9.1932798,7.3544828 9.2049212,6.7761754 9.1850542,6.1952972 9.0614975,5.6220136 8.9676236,5.1866987 8.8439813,4.6094844 8.1497703,4.4105574 M 11.451407,17.886819 C 12.308967,16.901318 10.596294,15.226614 10.3362,14.228038 10.19166,13.672167 10.31028,13.120509 10.489206,12.574689 10.688077,11.967704 10.91059,11.36451 11.142183,10.762571 11.629227,9.498179 12.091129,8.22993 12.56518,6.9636308 13.028658,5.7253459 13.502752,4.4886622 13.980558,3.2527852 M 15.220922,17.175718 C 15.700991,16.611381 14.954074,16.066716 14.777752,15.51839 14.586032,14.922791 14.463063,14.318735 14.35499,13.714534 14.25913,13.179093 14.055424,12.653122 14.187772,12.1119 14.332229,11.51971 14.641183,10.952981 14.886051,10.376938 15.150034,9.7554922 15.408999,9.1330205 15.675586,8.5120128 16.210146,7.2671261 16.759713,6.025033 17.314943,4.7840765 17.57279,4.2078395 17.831971,3.632102 18.0933,3.0565419 m 0.414721,14.1407371 c 0.369016,-0.636519 -0.189706,-2.845837 -0.50684,-3.395897 -0.306779,-0.531324 -0.570554,-1.090233 -0.602251,-1.662409 -0.03044,-0.55076 0.271278,-1.082617 0.492154,-1.605302 0.264533,-0.6261062 0.562632,-1.2453796 0.853961,-1.8661584 0.58056,-1.2372464 1.141726,-2.4784868 1.722066,-3.7158629 0.398035,-0.8490275 0.798221,-1.6978771 1.202372,-2.5455127 m 0.634044,15.012462 c -0.04189,-0.994617 -0.828445,-3.39712 -1.357142,-4.295634 -0.149684,-0.254259 -0.272663,-0.515539 -0.360813,-0.781841 -0.08516,-0.25648 -0.05937,-0.562019 -0.211576,-0.804362 -0.05501,-0.08793 0.02792,-0.192508 0.06091,-0.276891 0.05678,-0.143341 0.118084,-0.285918 0.182888,-0.427817 0.140835,-0.307773 0.299315,-0.612036 0.467881,-0.913685 0.66542,-1.1920077 1.420432,-2.3635644 2.125058,-3.5457807 0.679281,-1.1393263 1.354424,-2.2794368 2.045316,-3.415805 M 24.908976,17.7816 c -0.150315,-0.591106 -0.556639,-3.098319 -0.605898,-3.698576 -0.04732,-0.576626 0.05522,-1.135103 0.243863,-1.697386 0.841182,-2.5068868 1.91537,-4.9853953 2.919031,-7.4658879 0.2736,-0.6756636 0.546976,-1.3514554 0.823414,-2.0265512 M 27.909618,17.78663 c 0.22279,-0.499336 0.09633,-1.029956 -0.136942,-1.516763 -0.271989,-0.567786 -0.628327,-1.119773 -0.806819,-1.705473 -0.163647,-0.537697 -0.194427,-1.093634 -0.06949,-1.636469 0.28131,-1.220654 0.857634,-2.399305 1.421046,-3.5732763 0.594104,-1.2381694 1.229639,-2.4676391 1.892091,-3.6906663 0.353434,-0.6529232 0.713642,-1.3043448 1.087218,-1.9523289"
       id="path3254"
       sodipodi:nodetypes="ccccccccccccccccccccccccccccccccccccccccccccccccc" />
    <path
       style="fill:#4a7490;fill-opacity:1"
       inkscape:connector-curvature="0"
       d="M 32.637359,5.9710788 C 31.855785,5.0105956 30.309647,4.4078538 28.696301,4.26197 27.766857,4.1779316 26.826965,4.1717507 25.891188,4.1467006 c -0.946236,-0.025262 -1.893316,-0.042614 -2.840186,-0.030791 -0.917496,0.01156 -1.839459,0.0368 -2.742652,0.1518301 -0.836371,0.1065304 -1.65201,0.2895447 -2.505001,0.3336917 -1.713417,0.088515 -3.434869,-0.1145679 -5.14337,0.050066 -0.793831,0.076575 -1.577222,0.244724 -2.238937,0.5492941 C 9.6404559,5.5601351 8.9253489,5.6512222 8.3657694,6.1512475 7.8762462,6.5885713 6.6592019,7.5592548 6.7366875,8.1331863 6.8227473,8.7677727 6.8844478,9.4039317 6.9542038,10.039712 7.2841905,9.4548573 8.4253885,8.3225612 8.9513987,7.8039186 9.4360049,7.3255592 10.15051,7.285455 10.923387,7.003679 c 1.399675,-0.5101517 3.064048,-0.4276081 4.60576,-0.4262702 1.794874,0.00172 3.602775,-0.039249 5.371319,-0.2568391 1.715556,-0.2111503 3.422848,-0.5134254 5.181497,-0.5020319 0.933275,0.00607 1.879692,0.1361865 2.658043,0.4907172 0.832839,0.379313 1.830452,1.5679735 2.287972,2.1567095 0.521903,-0.3984352 0.802953,-1.1464363 1.334402,-1.5394298 0.145965,-0.1089799 0.5479,-0.7998326 0.274979,-0.9554559"
       id="path3272"
       sodipodi:nodetypes="cscccccccccccccccccc" />
    <path
       style="fill:#4a7490;fill-opacity:1"
       inkscape:connector-curvature="0"
       d="M 30.072921,9.9085871 C 29.220418,8.8422398 26.757934,8.3905337 25.095173,8.2837698 c -0.925678,-0.05936 -1.8568,-0.065267 -2.786091,-0.068048 -0.910971,-0.00286 -1.826075,0.020867 -2.723624,0.1309956 -0.878007,0.1076635 -1.724891,0.3147619 -2.615992,0.3767193 -0.88686,0.061741 -1.77901,0.022561 -2.667695,0.00355 -1.551643,-0.033709 -3.23476,-0.0675 -4.6318641,0.4525002 -0.6064066,0.225868 -1.0960464,0.5589025 -1.550835,0.9008131 -0.4915715,0.369903 -0.965216,0.753694 -1.3442042,1.178894 -0.1671999,0.187468 -0.3379231,0.377906 -0.363965,0.599521 -0.02418,0.203557 0.044258,0.404682 0.06641,0.606885 0.056654,0.515967 -0.420359,0.908344 -0.3636998,1.424312 0.3295924,-0.584556 1.3066144,-1.016534 1.8311236,-1.535249 0.4849111,-0.479497 1.0724839,-0.937899 1.8535714,-1.214728 1.3515281,-0.478954 2.9451021,-0.330727 4.4075661,-0.245475 0.914351,0.05317 1.83274,0.10628 2.751429,0.09199 0.903367,-0.0141 1.795385,-0.112471 2.682127,-0.220123 1.631549,-0.198037 3.311641,-0.413959 4.969396,-0.220492 0.861159,0.100619 1.668141,0.32927 2.446367,0.585266 0.827951,0.272305 1.999209,0.638188 2.782922,1.00818 0.09659,-0.421555 0.183891,-0.844785 0.243377,-1.271763 0.02475,-0.179729 0.02875,-0.361935 0.05874,-0.541067 0.02092,-0.129964 0.09399,-0.301483 -0.06732,-0.4177479"
       id="path3276"
       sodipodi:nodetypes="ccccccccccccccccccccccc" />
    <path
       sodipodi:nodetypes="ccccccccccccccccccccascccsccccccc"
       style="fill:url(#linearGradient4248);fill-opacity:1"
       inkscape:connector-curvature="0"
       d="m 59.458892,53.055558 c 1.117518,-2.367419 1.067332,-5.251932 -0.287915,-7.523912 -1.61882,-2.71349 -4.860569,-3.965175 -7.911047,-4.632408 -3.368364,-0.73712 -6.828403,-1.025334 -10.182056,-1.829774 -3.311035,-0.794119 -6.470865,-2.145143 -9.297365,-3.964171 -2.346849,-1.510259 -1.193446,-3.91178 -2.020462,-6.594246 -0.434665,-1.409185 -0.320853,-2.889031 -0.03626,-4.31375 0.159875,-0.799907 0.364663,-1.59115 0.516016,-2.39241 0.128691,-0.679453 0.248523,-1.393236 0.09972,-2.079 -0.33869,-1.560734 -2.058628,-1.909586 -3.498627,-1.982636 C 25.073887,17.653661 23.305543,17.61081 21.541165,17.472786 18.091959,17.203407 14.640263,16.832122 11.173653,16.9174 9.6594659,16.95456 8.1719271,17.142712 6.8181174,17.824649 6.0608051,18.206186 5.2955423,18.57315 4.5108642,18.901735 3.8773417,19.167156 3.037378,19.505522 2.80658,20.191251 c -0.3613199,1.074398 1.2989308,2.029132 2.016976,2.539602 0.6573144,0.46721 0.4129149,1.868066 0.8515349,2.539159 0.3571695,0.547043 0.5419706,1.174688 0.6461568,1.805952 0.1058945,0.64152 0.1344971,1.291235 0.1935292,1.937329 0.065359,0.71833 0.1894089,1.431641 0.3559302,2.134835 0.3618366,1.528743 -0.1554202,2.804532 -0.5232608,4.148892 -0.5220093,1.90781 -1.7500124,3.419502 -2.3580192,5.444069 -0.4465595,1.486964 -1.0952424,2.987333 -0.9659079,4.523672 0.1271915,1.50983 0.2064384,3.06999 0.8149197,4.489372 0.5921042,1.381491 1.6283646,2.473363 2.8811297,3.351729 1.4069135,0.986842 3.0055213,1.740434 4.6100614,2.390491 1.588649,0.643615 3.22945,1.172832 4.887072,1.631974 3.224084,0.892897 6.914832,-2.570786 10.278898,-2.522671 3.391848,0.04885 12.21248,2.392736 15.585884,2.136387 1.640732,-0.124743 3.293279,-0.202152 4.936194,-0.07447 1.580675,0.122926 3.132896,0.462546 4.711599,0.583138 1.513255,0.115568 2.909959,-0.156759 4.193957,-0.944989 1.386243,-0.850822 2.487635,-2.057026 3.535672,-3.250181"
       id="path3256" />
    <path
       style="fill:url(#linearGradient4290);fill-opacity:1"
       d="m 51.5,41 c 0.75475,1.209896 1.623716,3.039795 2.25,4.3125 0.561301,1.140463 1.03951,2.361812 1.15625,3.625 0.121869,1.324006 -0.03693,2.62979 -0.25,3.9375 -0.227565,1.396072 -0.525174,2.798175 -0.9375,4.15625 L 53.4375,57.1875 c 0.470225,0.11748 1.241139,-0.251206 1.65625,-0.4375 0.55338,-0.249028 1.071728,-0.557746 1.5625,-0.90625 1.026826,-0.728971 2.273408,-1.423299 2.875,-2.5 C 60.85148,50.980109 60.645526,47.703698 59.3125,45.3125 57.884168,42.751374 54.448698,40.92754 51.5,41 z"
       id="path4294" />
    <path
       style="fill:url(#linearGradient4290);fill-opacity:1"
       d="m 3.34375,42.6875 c -0.089308,0.0029 -0.1546277,0.02649 -0.21875,0.0625 -0.2228735,0.125138 -0.3481121,0.726862 -0.375,0.9375 -0.1871526,1.474876 0.073406,2.899041 0.4375,4.34375 0.7080527,2.810991 2.4078513,5.415214 4.9375,7.0625 2.619153,1.705571 5.834179,2.353026 8.96875,2.40625 0.870062,0.01478 1.81121,-0.290967 2.4375,-0.59375 C 18.190173,55.262814 17.510751,53.264299 17.25,51 17.108771,49.773575 17.109912,48.54032 17.21875,47.3125 17.332447,46.031965 17.51721,44.748219 17.84375,43.5 14.198056,43.313701 10.551913,43.1238 6.90625,42.9375 5.9949517,42.891333 5.0986971,42.827995 4.1875,42.78125 3.9758921,42.770698 3.611675,42.678928 3.34375,42.6875 z"
       id="path3264" />
    <path
       sodipodi:nodetypes="cccc"
       style="fill:none;stroke:#919191;stroke-width:0.77453559999999999;stroke-linecap:round;stroke-linejoin:round;stroke-miterlimit:11.50000000000000000;opacity:0.5"
       inkscape:connector-curvature="0"
       stroke-miterlimit="11.5"
       d="m 26.99098,17.837566 c -0.360675,0.642346 -0.56685,2.352355 -0.534796,3.01702 0.04256,0.895832 -0.354199,1.726982 -0.655392,2.547363 -0.536945,1.462379 -0.831768,3.189181 -0.02598,4.613546"
       id="path3282" />
    <path
       sodipodi:nodetypes="ccccc"
       style="fill:none;stroke:#919191;stroke-width:0.77453559999999999;stroke-linecap:round;stroke-linejoin:round;stroke-miterlimit:11.50000000000000000;opacity:0.5"
       inkscape:connector-curvature="0"
       stroke-miterlimit="11.5"
       d="m 24.34246,17.821245 c -0.742245,0.694038 -0.869287,2.137592 -0.792724,2.748102 0.09914,0.792077 -0.157879,1.568115 -0.412185,2.306551 -0.276208,0.802912 -0.520971,1.632966 -0.52737,2.48921 -0.0068,0.863438 0.07166,1.729945 0.264735,2.572337"
       id="path3286" />
    <path
       sodipodi:nodetypes="ccccc"
       style="fill:none;stroke:#919191;stroke-width:0.77453559999999999;stroke-linecap:round;stroke-linejoin:round;stroke-miterlimit:11.50000000000000000;opacity:0.5"
       inkscape:connector-curvature="0"
       stroke-miterlimit="11.5"
       d="m 21.260164,17.787526 c 0.07109,-0.743764 -0.665658,2.167452 -0.590702,2.89519 0.08075,0.790092 -0.222892,1.551532 -0.55104,2.252997 -0.353336,0.755765 -0.696119,1.550043 -0.70057,2.399595 -0.0045,0.795675 0.127938,1.614972 0.523721,2.315135"
       id="path3290" />
    <path
       sodipodi:nodetypes="cccc"
       style="fill:none;stroke:#919191;stroke-width:0.77453559999999999;stroke-linecap:round;stroke-linejoin:round;stroke-miterlimit:11.50000000000000000;opacity:0.5"
       inkscape:connector-curvature="0"
       stroke-miterlimit="11.5"
       d="m 18.306565,17.433033 c -0.756939,0.454242 -0.912994,2.421969 -0.868973,3.099579 0.05464,0.843977 -0.150609,1.661972 -0.381818,2.466227 -0.404585,1.406739 -0.589014,3.003826 0.163499,4.332589"
       id="path3294" />
    <path
       sodipodi:nodetypes="csscc"
       style="opacity:0.5;fill:none;stroke:#919191;stroke-width:0.7745356;stroke-linecap:round;stroke-linejoin:round;stroke-miterlimit:11.5"
       inkscape:connector-curvature="0"
       stroke-miterlimit="11.5"
       d="m 13.81498,17.152069 c -1.471212,0.616035 -0.248788,3.208502 0.517289,4.067916 0.570421,0.63992 -0.236787,1.006432 -0.200912,1.862955 0.03564,0.850918 -0.0223,1.70329 0.03631,2.5534 0.05668,0.823379 0.229807,1.636996 0.491547,2.419163"
       id="path3298" />
    <path
       sodipodi:nodetypes="cscc"
       style="fill:none;stroke:#919191;stroke-width:0.77453559999999999;stroke-linecap:round;stroke-linejoin:round;stroke-miterlimit:11.50000000000000000;opacity:0.5"
       inkscape:connector-curvature="0"
       stroke-miterlimit="11.5"
       d="m 10.65666,17.329997 c -1.5706127,1.900963 0.417415,3.569837 0.635396,4.37728 0.25331,0.938303 -0.305327,3.121274 -0.277592,4.096798 0.02649,0.935356 0.218226,1.861133 0.514027,2.74663"
       id="path3302" />
    <path
       inkscape:connector-curvature="0"
       id="path3446"
       d="M 15.78795,44.831458 C 11.918191,47.33916 9.7053289,48.955152 9.0564285,53.870836"
       style="fill:none;stroke:#919191;stroke-width:0.79513734999999997;stroke-linecap:round;stroke-linejoin:round;stroke-miterlimit:11.50000000000000000;opacity:0.5" />
    <path
       sodipodi:nodetypes="ccscccc"
       inkscape:connector-curvature="0"
       id="path3306"
       d="m 5.8048656,18.654048 c 0.2758324,2.263039 1.8011072,2.429227 2.287327,3.204324 0.2959775,0.313748 0.5309366,0.266694 0.60895,0.701799 0.085763,0.47838 -0.011824,0.962248 -0.087168,1.435089 -0.076725,0.485455 -0.1446985,0.978914 -0.097643,1.470917 0.047296,0.493468 0.2369569,0.955813 0.3836364,1.424758 0.3002389,0.961404 0.3871879,1.976206 0.3767352,2.979357"
       style="opacity:0.5;fill:none;stroke:#919191;stroke-width:0.7745356;stroke-linecap:round;stroke-linejoin:round;stroke-miterlimit:11.5" />
    <path
       id="path4226"
       d="m 29.314076,18.53583 c -0.360673,0.642348 -0.334538,2.1196 -0.302487,2.784266 0.04256,0.895832 -0.760725,2.716197 -0.771546,3.711138 -0.01696,1.558099 0.09747,2.490916 0.206321,3.740715"
       stroke-miterlimit="11.5"
       inkscape:connector-curvature="0"
       style="fill:none;stroke:#919191;stroke-width:0.77453559999999999;stroke-linecap:round;stroke-linejoin:round;stroke-miterlimit:11.50000000000000000;opacity:0.5"
       sodipodi:nodetypes="ccsc" />
  </g>
</svg>
